M48
;DRILL file {KiCad 4.0.2-stable} date 9/10/2017 7:41:38 PM
;FORMAT={-:-/ absolute / inch / decimal}
FMAT,2
INCH,TZ
T1C0.024
T2C0.031
T3C0.039
T4C0.047
%
G90
G05
M72
T1
X6.0571Y-4.5224
X6.8626Y-4.6665
X6.9724Y-4.2402
X7.1732Y-3.9567
T2
X5.6098Y-4.3709
X5.6098Y-4.4709
X5.6098Y-4.5709
X5.6098Y-4.6709
X5.9098Y-4.3709
X5.9098Y-4.4709
X5.9098Y-4.5709
X5.9098Y-4.6709
T3
X6.55Y-4.9
X6.55Y-5.
X6.65Y-4.9
X6.65Y-5.
X6.75Y-4.9
X6.75Y-5.
X6.85Y-4.9
X6.85Y-5.
X6.95Y-4.9
X6.95Y-5.
X7.05Y-4.9
X7.05Y-5.
X7.15Y-4.9
X7.15Y-5.
X7.25Y-4.9
X7.25Y-5.
X7.35Y-4.9
X7.35Y-5.
X7.45Y-4.9
X7.45Y-5.
T4
X5.35Y-4.15
X5.35Y-4.35
X5.35Y-4.55
X7.65Y-4.825
X7.65Y-4.975
T0
M30
