G04 #@! TF.FileFunction,Copper,L1,Top,Signal*
%FSLAX46Y46*%
G04 Gerber Fmt 4.6, Leading zero omitted, Abs format (unit mm)*
G04 Created by KiCad (PCBNEW 4.0.2-stable) date 6/25/2017 2:35:03 PM*
%MOMM*%
G01*
G04 APERTURE LIST*
%ADD10C,0.100000*%
%ADD11R,1.600000X1.600000*%
%ADD12O,1.600000X1.600000*%
%ADD13R,0.800000X1.900000*%
%ADD14R,1.700000X2.000000*%
%ADD15R,1.500000X1.250000*%
%ADD16C,1.900000*%
%ADD17R,3.500000X3.500000*%
%ADD18R,2.620000X3.510000*%
%ADD19R,1.600000X0.610000*%
%ADD20R,3.400000X2.350000*%
%ADD21C,2.200000*%
%ADD22R,2.000000X1.700000*%
%ADD23R,2.500000X3.390000*%
%ADD24C,1.500000*%
%ADD25C,0.800000*%
%ADD26C,0.400000*%
%ADD27C,0.200000*%
G04 APERTURE END LIST*
D10*
D11*
X140970000Y-118110000D03*
D12*
X148590000Y-110490000D03*
X140970000Y-115570000D03*
X148590000Y-113030000D03*
X140970000Y-113030000D03*
X148590000Y-115570000D03*
X140970000Y-110490000D03*
X148590000Y-118110000D03*
D13*
X160975000Y-117705000D03*
X162875000Y-117705000D03*
X161925000Y-114705000D03*
X168082000Y-103656000D03*
X166182000Y-103656000D03*
X167132000Y-106656000D03*
D14*
X163068000Y-106398000D03*
X163068000Y-102898000D03*
X171196000Y-106398000D03*
X171196000Y-102898000D03*
X189230000Y-104605000D03*
X189230000Y-108105000D03*
X193075000Y-104575000D03*
X193075000Y-108075000D03*
D15*
X171280000Y-110490000D03*
X169080000Y-110490000D03*
X183370000Y-100440000D03*
X181170000Y-100440000D03*
D14*
X186050000Y-114450000D03*
X186050000Y-117950000D03*
D16*
X189230000Y-124460000D03*
X189230000Y-127000000D03*
X186690000Y-124460000D03*
X186690000Y-127000000D03*
X184150000Y-124460000D03*
X184150000Y-127000000D03*
X181610000Y-124460000D03*
X181610000Y-127000000D03*
X179070000Y-124460000D03*
X179070000Y-127000000D03*
X176530000Y-124460000D03*
X176530000Y-127000000D03*
X173990000Y-124460000D03*
X173990000Y-127000000D03*
X171450000Y-124460000D03*
X171450000Y-127000000D03*
X168910000Y-124460000D03*
X168910000Y-127000000D03*
X166370000Y-124460000D03*
X166370000Y-127000000D03*
D17*
X157055000Y-104775000D03*
X151555000Y-104775000D03*
D18*
X182245000Y-105720000D03*
D19*
X179245000Y-107625000D03*
X179245000Y-106355000D03*
X179245000Y-105085000D03*
X179245000Y-103815000D03*
X185245000Y-103815000D03*
X185245000Y-105085000D03*
X185245000Y-106355000D03*
X185245000Y-107625000D03*
D20*
X193040000Y-118595000D03*
X193040000Y-112545000D03*
D21*
X135890000Y-105410000D03*
X135890000Y-110490000D03*
X135890000Y-115570000D03*
D22*
X160810000Y-110490000D03*
X164310000Y-110490000D03*
X156055000Y-110490000D03*
X152555000Y-110490000D03*
D14*
X167140000Y-114420000D03*
X167140000Y-117920000D03*
D22*
X152555000Y-114300000D03*
X156055000Y-114300000D03*
D14*
X171450000Y-114455000D03*
X171450000Y-117955000D03*
D22*
X152555000Y-118110000D03*
X156055000Y-118110000D03*
D14*
X175895000Y-114455000D03*
X175895000Y-117955000D03*
D22*
X182725000Y-114300000D03*
X179225000Y-114300000D03*
D23*
X140100000Y-104775000D03*
X146920000Y-104775000D03*
D21*
X194310000Y-126365000D03*
X194310000Y-122555000D03*
D24*
X173525000Y-112150000D03*
X177025000Y-105000000D03*
X178875000Y-101850000D03*
X185150000Y-109525000D03*
X177050000Y-102975000D03*
X179175000Y-116750000D03*
D25*
X193075000Y-104575000D02*
X189260000Y-104575000D01*
X189260000Y-104575000D02*
X189230000Y-104605000D01*
X189230000Y-111910000D02*
X190890000Y-110250000D01*
X157055000Y-103055000D02*
X159315000Y-100795000D01*
X159315000Y-100795000D02*
X172615000Y-100795000D01*
X172615000Y-100795000D02*
X173810000Y-101990000D01*
X173810000Y-101990000D02*
X173810000Y-109920000D01*
X173810000Y-109920000D02*
X175800000Y-111910000D01*
X175800000Y-111910000D02*
X189230000Y-111910000D01*
X194275000Y-104575000D02*
X193075000Y-104575000D01*
X195525000Y-105825000D02*
X194275000Y-104575000D01*
X195525000Y-109194998D02*
X195525000Y-105825000D01*
X194469998Y-110250000D02*
X195525000Y-109194998D01*
X190890000Y-110250000D02*
X194469998Y-110250000D01*
D26*
X163068000Y-106398000D02*
X163440000Y-106398000D01*
X163440000Y-106398000D02*
X166182000Y-103656000D01*
X157055000Y-104775000D02*
X161445000Y-104775000D01*
X161445000Y-104775000D02*
X163068000Y-106398000D01*
D25*
X185245000Y-106355000D02*
X186825000Y-106355000D01*
X186825000Y-106355000D02*
X188575000Y-104605000D01*
X188575000Y-104605000D02*
X189230000Y-104605000D01*
X157055000Y-104775000D02*
X157055000Y-103055000D01*
X182765000Y-104775000D02*
X181435000Y-104775000D01*
D26*
X167140000Y-114420000D02*
X167140000Y-109660000D01*
X169444000Y-108150000D02*
X171196000Y-106398000D01*
X168650000Y-108150000D02*
X169444000Y-108150000D01*
X167140000Y-109660000D02*
X168650000Y-108150000D01*
X168082000Y-103656000D02*
X168454000Y-103656000D01*
X168454000Y-103656000D02*
X171196000Y-106398000D01*
X163410000Y-120590000D02*
X167860000Y-120590000D01*
X169320000Y-116600000D02*
X167140000Y-114420000D01*
X169320000Y-119130000D02*
X169320000Y-116600000D01*
X167860000Y-120590000D02*
X169320000Y-119130000D01*
X148590000Y-118110000D02*
X148900000Y-118110000D01*
X148900000Y-118110000D02*
X151380000Y-120590000D01*
X151380000Y-120590000D02*
X163410000Y-120590000D01*
X163410000Y-120590000D02*
X163480000Y-120590000D01*
X160140000Y-107750000D02*
X160820000Y-107750000D01*
X148590000Y-110490000D02*
X151330000Y-107750000D01*
X162690000Y-113940000D02*
X161925000Y-114705000D01*
X162690000Y-109620000D02*
X162690000Y-113940000D01*
X151330000Y-107750000D02*
X160140000Y-107750000D01*
X160820000Y-107750000D02*
X162690000Y-109620000D01*
X161925000Y-114705000D02*
X163275000Y-114705000D01*
X163275000Y-114705000D02*
X166490000Y-117920000D01*
X166490000Y-117920000D02*
X167140000Y-117920000D01*
X148590000Y-113030000D02*
X144020000Y-108460000D01*
X175875000Y-106355000D02*
X179245000Y-106355000D01*
X175420000Y-105900000D02*
X175875000Y-106355000D01*
X175420000Y-100560000D02*
X175420000Y-105900000D01*
X174200000Y-99340000D02*
X175420000Y-100560000D01*
X147060000Y-99340000D02*
X174200000Y-99340000D01*
X144020000Y-102380000D02*
X147060000Y-99340000D01*
X144020000Y-108460000D02*
X144020000Y-102380000D01*
X148590000Y-113030000D02*
X151285000Y-113030000D01*
X151285000Y-113030000D02*
X152555000Y-114300000D01*
X135890000Y-115570000D02*
X137160000Y-114300000D01*
X154270000Y-112205000D02*
X152555000Y-110490000D01*
X154270000Y-115640000D02*
X154270000Y-112205000D01*
X153580000Y-116330000D02*
X154270000Y-115640000D01*
X151690000Y-116330000D02*
X153580000Y-116330000D01*
X149660000Y-114300000D02*
X151690000Y-116330000D01*
X137160000Y-114300000D02*
X149660000Y-114300000D01*
X152555000Y-110490000D02*
X152555000Y-110075000D01*
X152555000Y-110075000D02*
X154240000Y-108390000D01*
X158710000Y-108390000D02*
X160810000Y-110490000D01*
X154240000Y-108390000D02*
X158710000Y-108390000D01*
X156055000Y-110490000D02*
X156055000Y-110875000D01*
X156055000Y-110875000D02*
X159490000Y-114310000D01*
X159490000Y-114310000D02*
X159490000Y-116220000D01*
X159490000Y-116220000D02*
X160975000Y-117705000D01*
X171280000Y-110490000D02*
X171865000Y-110490000D01*
X171865000Y-110490000D02*
X173525000Y-112150000D01*
X177025000Y-105000000D02*
X177110000Y-105085000D01*
X177110000Y-105085000D02*
X179245000Y-105085000D01*
X171450000Y-114455000D02*
X169080000Y-112085000D01*
X169080000Y-112085000D02*
X169080000Y-110490000D01*
D25*
X193040000Y-112545000D02*
X194530000Y-112545000D01*
X194530000Y-112545000D02*
X196575000Y-110500000D01*
X193925000Y-101250000D02*
X188850000Y-101250000D01*
X196575000Y-103900000D02*
X193925000Y-101250000D01*
X196575000Y-110500000D02*
X196575000Y-103900000D01*
D26*
X183370000Y-100440000D02*
X184560000Y-100440000D01*
X184560000Y-100440000D02*
X187110000Y-102990000D01*
D25*
X186525000Y-105085000D02*
X185245000Y-105085000D01*
X187110000Y-104500000D02*
X186525000Y-105085000D01*
X187110000Y-102990000D02*
X187110000Y-104500000D01*
X188850000Y-101250000D02*
X187110000Y-102990000D01*
X193675000Y-111910000D02*
X193040000Y-112545000D01*
X193040000Y-112545000D02*
X193040000Y-112020000D01*
D26*
X185245000Y-107625000D02*
X185245000Y-109430000D01*
X180285000Y-100440000D02*
X181170000Y-100440000D01*
X178875000Y-101850000D02*
X180285000Y-100440000D01*
X185245000Y-109430000D02*
X185150000Y-109525000D01*
X186055000Y-114455000D02*
X185900000Y-114300000D01*
X185900000Y-114300000D02*
X182725000Y-114300000D01*
X193040000Y-118595000D02*
X188900000Y-114455000D01*
X188900000Y-114455000D02*
X186055000Y-114455000D01*
D25*
X191830000Y-126365000D02*
X191830000Y-119805000D01*
X191830000Y-119805000D02*
X193040000Y-118595000D01*
X194310000Y-126365000D02*
X191830000Y-126365000D01*
X191830000Y-126365000D02*
X189865000Y-126365000D01*
X189865000Y-126365000D02*
X189230000Y-127000000D01*
X186690000Y-127000000D02*
X189230000Y-127000000D01*
D26*
X148590000Y-115570000D02*
X147810000Y-115570000D01*
X147810000Y-115570000D02*
X146610000Y-116770000D01*
X176530000Y-122500000D02*
X176530000Y-124460000D01*
X175220002Y-121190002D02*
X176530000Y-122500000D01*
X148770002Y-121190002D02*
X175220002Y-121190002D01*
X146610000Y-119030000D02*
X148770002Y-121190002D01*
X146610000Y-116770000D02*
X146610000Y-119030000D01*
X148590000Y-115570000D02*
X150015000Y-115570000D01*
X150015000Y-115570000D02*
X152555000Y-118110000D01*
D25*
X146920000Y-104775000D02*
X151555000Y-104775000D01*
D26*
X179225000Y-114300000D02*
X179225000Y-116700000D01*
X177890000Y-103815000D02*
X179245000Y-103815000D01*
X177050000Y-102975000D02*
X177890000Y-103815000D01*
X179225000Y-116700000D02*
X179175000Y-116750000D01*
X179225000Y-114300000D02*
X176050000Y-114300000D01*
X176050000Y-114300000D02*
X175895000Y-114455000D01*
D25*
X135890000Y-105410000D02*
X136525000Y-104775000D01*
X136525000Y-104775000D02*
X140100000Y-104775000D01*
D27*
G36*
X143666447Y-102026447D02*
X143558060Y-102188658D01*
X143520000Y-102380000D01*
X143520000Y-108460000D01*
X143550223Y-108611940D01*
X143558060Y-108651342D01*
X143666447Y-108813553D01*
X147537211Y-112684317D01*
X147468450Y-113030000D01*
X147552183Y-113450952D01*
X147785410Y-113800000D01*
X141774590Y-113800000D01*
X142007817Y-113450952D01*
X142091550Y-113030000D01*
X142007817Y-112609048D01*
X141769367Y-112252183D01*
X141412502Y-112013733D01*
X140991550Y-111930000D01*
X140948450Y-111930000D01*
X140527498Y-112013733D01*
X140170633Y-112252183D01*
X139932183Y-112609048D01*
X139848450Y-113030000D01*
X139932183Y-113450952D01*
X140165410Y-113800000D01*
X137160000Y-113800000D01*
X137003282Y-113831173D01*
X136968658Y-113838060D01*
X136806446Y-113946447D01*
X136461488Y-114291405D01*
X136169699Y-114170243D01*
X135612744Y-114169757D01*
X135098000Y-114382445D01*
X134703830Y-114775928D01*
X134490243Y-115290301D01*
X134489757Y-115847256D01*
X134702445Y-116362000D01*
X135095928Y-116756170D01*
X135610301Y-116969757D01*
X136167256Y-116970243D01*
X136682000Y-116757555D01*
X137076170Y-116364072D01*
X137289757Y-115849699D01*
X137290243Y-115292744D01*
X137168647Y-114998460D01*
X137367107Y-114800000D01*
X140165410Y-114800000D01*
X139932183Y-115149048D01*
X139848450Y-115570000D01*
X139932183Y-115990952D01*
X140170633Y-116347817D01*
X140527498Y-116586267D01*
X140948450Y-116670000D01*
X140991550Y-116670000D01*
X141412502Y-116586267D01*
X141769367Y-116347817D01*
X142007817Y-115990952D01*
X142091550Y-115570000D01*
X142007817Y-115149048D01*
X141774590Y-114800000D01*
X147785410Y-114800000D01*
X147552183Y-115149048D01*
X147551396Y-115153003D01*
X147456446Y-115216447D01*
X146256447Y-116416447D01*
X146148060Y-116578658D01*
X146110000Y-116770000D01*
X146110000Y-119030000D01*
X146142812Y-119194958D01*
X146148060Y-119221342D01*
X146256447Y-119383553D01*
X148416449Y-121543555D01*
X148578660Y-121651942D01*
X148770002Y-121690002D01*
X175012896Y-121690002D01*
X176030000Y-122707106D01*
X176030000Y-123314094D01*
X175822857Y-123399684D01*
X175470919Y-123751007D01*
X175280217Y-124210269D01*
X175279783Y-124707550D01*
X175469684Y-125167143D01*
X175821007Y-125519081D01*
X176280269Y-125709783D01*
X176777550Y-125710217D01*
X177237143Y-125520316D01*
X177589081Y-125168993D01*
X177779783Y-124709731D01*
X177779784Y-124707550D01*
X177819783Y-124707550D01*
X178009684Y-125167143D01*
X178361007Y-125519081D01*
X178820269Y-125709783D01*
X179317550Y-125710217D01*
X179777143Y-125520316D01*
X180129081Y-125168993D01*
X180319783Y-124709731D01*
X180319784Y-124707550D01*
X180359783Y-124707550D01*
X180549684Y-125167143D01*
X180901007Y-125519081D01*
X181360269Y-125709783D01*
X181857550Y-125710217D01*
X182317143Y-125520316D01*
X182669081Y-125168993D01*
X182859783Y-124709731D01*
X182859784Y-124707550D01*
X182899783Y-124707550D01*
X183089684Y-125167143D01*
X183441007Y-125519081D01*
X183900269Y-125709783D01*
X183969262Y-125709843D01*
X183795831Y-125722725D01*
X183497266Y-125846394D01*
X183387139Y-126025007D01*
X184150000Y-126787868D01*
X184912861Y-126025007D01*
X184802734Y-125846394D01*
X184389793Y-125710210D01*
X184397550Y-125710217D01*
X184857143Y-125520316D01*
X185209081Y-125168993D01*
X185399783Y-124709731D01*
X185399784Y-124707550D01*
X185439783Y-124707550D01*
X185629684Y-125167143D01*
X185981007Y-125519081D01*
X186440269Y-125709783D01*
X186937550Y-125710217D01*
X187397143Y-125520316D01*
X187749081Y-125168993D01*
X187939783Y-124709731D01*
X187939784Y-124707550D01*
X187979783Y-124707550D01*
X188169684Y-125167143D01*
X188521007Y-125519081D01*
X188980269Y-125709783D01*
X189477550Y-125710217D01*
X189937143Y-125520316D01*
X190289081Y-125168993D01*
X190479783Y-124709731D01*
X190480217Y-124212450D01*
X190290316Y-123752857D01*
X189938993Y-123400919D01*
X189479731Y-123210217D01*
X188982450Y-123209783D01*
X188522857Y-123399684D01*
X188170919Y-123751007D01*
X187980217Y-124210269D01*
X187979783Y-124707550D01*
X187939784Y-124707550D01*
X187940217Y-124212450D01*
X187750316Y-123752857D01*
X187398993Y-123400919D01*
X186939731Y-123210217D01*
X186442450Y-123209783D01*
X185982857Y-123399684D01*
X185630919Y-123751007D01*
X185440217Y-124210269D01*
X185439783Y-124707550D01*
X185399784Y-124707550D01*
X185400217Y-124212450D01*
X185210316Y-123752857D01*
X184858993Y-123400919D01*
X184399731Y-123210217D01*
X183902450Y-123209783D01*
X183442857Y-123399684D01*
X183090919Y-123751007D01*
X182900217Y-124210269D01*
X182899783Y-124707550D01*
X182859784Y-124707550D01*
X182860217Y-124212450D01*
X182670316Y-123752857D01*
X182318993Y-123400919D01*
X181859731Y-123210217D01*
X181362450Y-123209783D01*
X180902857Y-123399684D01*
X180550919Y-123751007D01*
X180360217Y-124210269D01*
X180359783Y-124707550D01*
X180319784Y-124707550D01*
X180320217Y-124212450D01*
X180130316Y-123752857D01*
X179778993Y-123400919D01*
X179319731Y-123210217D01*
X178822450Y-123209783D01*
X178362857Y-123399684D01*
X178010919Y-123751007D01*
X177820217Y-124210269D01*
X177819783Y-124707550D01*
X177779784Y-124707550D01*
X177780217Y-124212450D01*
X177590316Y-123752857D01*
X177238993Y-123400919D01*
X177030000Y-123314138D01*
X177030000Y-122500000D01*
X176991940Y-122308658D01*
X176883553Y-122146447D01*
X175573555Y-120836449D01*
X175411344Y-120728062D01*
X175220002Y-120690002D01*
X168467104Y-120690002D01*
X169673554Y-119483553D01*
X169781940Y-119321342D01*
X169820000Y-119130000D01*
X169820000Y-118192500D01*
X170250000Y-118192500D01*
X170250000Y-119024619D01*
X170303284Y-119153259D01*
X170401741Y-119251715D01*
X170530380Y-119305000D01*
X171212500Y-119305000D01*
X171300000Y-119217500D01*
X171300000Y-118105000D01*
X171600000Y-118105000D01*
X171600000Y-119217500D01*
X171687500Y-119305000D01*
X172369620Y-119305000D01*
X172498259Y-119251715D01*
X172596716Y-119153259D01*
X172650000Y-119024619D01*
X172650000Y-118192500D01*
X174695000Y-118192500D01*
X174695000Y-119024619D01*
X174748284Y-119153259D01*
X174846741Y-119251715D01*
X174975380Y-119305000D01*
X175657500Y-119305000D01*
X175745000Y-119217500D01*
X175745000Y-118105000D01*
X176045000Y-118105000D01*
X176045000Y-119217500D01*
X176132500Y-119305000D01*
X176814620Y-119305000D01*
X176943259Y-119251715D01*
X177041716Y-119153259D01*
X177095000Y-119024619D01*
X177095000Y-118192500D01*
X177090000Y-118187500D01*
X184850000Y-118187500D01*
X184850000Y-119019619D01*
X184903284Y-119148259D01*
X185001741Y-119246715D01*
X185130380Y-119300000D01*
X185812500Y-119300000D01*
X185900000Y-119212500D01*
X185900000Y-118100000D01*
X186200000Y-118100000D01*
X186200000Y-119212500D01*
X186287500Y-119300000D01*
X186969620Y-119300000D01*
X187098259Y-119246715D01*
X187196716Y-119148259D01*
X187250000Y-119019619D01*
X187250000Y-118187500D01*
X187162500Y-118100000D01*
X186200000Y-118100000D01*
X185900000Y-118100000D01*
X184937500Y-118100000D01*
X184850000Y-118187500D01*
X177090000Y-118187500D01*
X177007500Y-118105000D01*
X176045000Y-118105000D01*
X175745000Y-118105000D01*
X174782500Y-118105000D01*
X174695000Y-118192500D01*
X172650000Y-118192500D01*
X172562500Y-118105000D01*
X171600000Y-118105000D01*
X171300000Y-118105000D01*
X170337500Y-118105000D01*
X170250000Y-118192500D01*
X169820000Y-118192500D01*
X169820000Y-116885381D01*
X170250000Y-116885381D01*
X170250000Y-117717500D01*
X170337500Y-117805000D01*
X171300000Y-117805000D01*
X171300000Y-116692500D01*
X171600000Y-116692500D01*
X171600000Y-117805000D01*
X172562500Y-117805000D01*
X172650000Y-117717500D01*
X172650000Y-116885381D01*
X174695000Y-116885381D01*
X174695000Y-117717500D01*
X174782500Y-117805000D01*
X175745000Y-117805000D01*
X175745000Y-116692500D01*
X176045000Y-116692500D01*
X176045000Y-117805000D01*
X177007500Y-117805000D01*
X177095000Y-117717500D01*
X177095000Y-116885381D01*
X177041716Y-116756741D01*
X176943259Y-116658285D01*
X176814620Y-116605000D01*
X176132500Y-116605000D01*
X176045000Y-116692500D01*
X175745000Y-116692500D01*
X175657500Y-116605000D01*
X174975380Y-116605000D01*
X174846741Y-116658285D01*
X174748284Y-116756741D01*
X174695000Y-116885381D01*
X172650000Y-116885381D01*
X172596716Y-116756741D01*
X172498259Y-116658285D01*
X172369620Y-116605000D01*
X171687500Y-116605000D01*
X171600000Y-116692500D01*
X171300000Y-116692500D01*
X171212500Y-116605000D01*
X170530380Y-116605000D01*
X170401741Y-116658285D01*
X170303284Y-116756741D01*
X170250000Y-116885381D01*
X169820000Y-116885381D01*
X169820000Y-116600000D01*
X169781940Y-116408658D01*
X169714722Y-116308060D01*
X169673554Y-116246447D01*
X168295877Y-114868771D01*
X168295877Y-113420000D01*
X168274958Y-113308827D01*
X168209255Y-113206721D01*
X168109003Y-113138222D01*
X167990000Y-113114123D01*
X167640000Y-113114123D01*
X167640000Y-109867106D01*
X167642106Y-109865000D01*
X168024123Y-109865000D01*
X168024123Y-111115000D01*
X168045042Y-111226173D01*
X168110745Y-111328279D01*
X168210997Y-111396778D01*
X168330000Y-111420877D01*
X168580000Y-111420877D01*
X168580000Y-112085000D01*
X168613255Y-112252183D01*
X168618060Y-112276342D01*
X168726447Y-112438553D01*
X170294123Y-114006229D01*
X170294123Y-115455000D01*
X170315042Y-115566173D01*
X170380745Y-115668279D01*
X170480997Y-115736778D01*
X170600000Y-115760877D01*
X172300000Y-115760877D01*
X172411173Y-115739958D01*
X172513279Y-115674255D01*
X172581778Y-115574003D01*
X172605877Y-115455000D01*
X172605877Y-113455000D01*
X174739123Y-113455000D01*
X174739123Y-115455000D01*
X174760042Y-115566173D01*
X174825745Y-115668279D01*
X174925997Y-115736778D01*
X175045000Y-115760877D01*
X176745000Y-115760877D01*
X176856173Y-115739958D01*
X176958279Y-115674255D01*
X177026778Y-115574003D01*
X177050877Y-115455000D01*
X177050877Y-114800000D01*
X177919123Y-114800000D01*
X177919123Y-115150000D01*
X177940042Y-115261173D01*
X178005745Y-115363279D01*
X178105997Y-115431778D01*
X178225000Y-115455877D01*
X178725000Y-115455877D01*
X178725000Y-115799834D01*
X178581000Y-115859334D01*
X178285372Y-116154446D01*
X178125182Y-116540226D01*
X178124818Y-116957942D01*
X178284334Y-117344000D01*
X178579446Y-117639628D01*
X178965226Y-117799818D01*
X179382942Y-117800182D01*
X179769000Y-117640666D01*
X180064628Y-117345554D01*
X180224818Y-116959774D01*
X180224887Y-116880381D01*
X184850000Y-116880381D01*
X184850000Y-117712500D01*
X184937500Y-117800000D01*
X185900000Y-117800000D01*
X185900000Y-116687500D01*
X186200000Y-116687500D01*
X186200000Y-117800000D01*
X187162500Y-117800000D01*
X187250000Y-117712500D01*
X187250000Y-116880381D01*
X187196716Y-116751741D01*
X187098259Y-116653285D01*
X186969620Y-116600000D01*
X186287500Y-116600000D01*
X186200000Y-116687500D01*
X185900000Y-116687500D01*
X185812500Y-116600000D01*
X185130380Y-116600000D01*
X185001741Y-116653285D01*
X184903284Y-116751741D01*
X184850000Y-116880381D01*
X180224887Y-116880381D01*
X180225182Y-116542058D01*
X180065666Y-116156000D01*
X179770554Y-115860372D01*
X179725000Y-115841456D01*
X179725000Y-115455877D01*
X180225000Y-115455877D01*
X180336173Y-115434958D01*
X180438279Y-115369255D01*
X180506778Y-115269003D01*
X180530877Y-115150000D01*
X180530877Y-113450000D01*
X181419123Y-113450000D01*
X181419123Y-115150000D01*
X181440042Y-115261173D01*
X181505745Y-115363279D01*
X181605997Y-115431778D01*
X181725000Y-115455877D01*
X183725000Y-115455877D01*
X183836173Y-115434958D01*
X183938279Y-115369255D01*
X184006778Y-115269003D01*
X184030877Y-115150000D01*
X184030877Y-114800000D01*
X184894123Y-114800000D01*
X184894123Y-115450000D01*
X184915042Y-115561173D01*
X184980745Y-115663279D01*
X185080997Y-115731778D01*
X185200000Y-115755877D01*
X186900000Y-115755877D01*
X187011173Y-115734958D01*
X187113279Y-115669255D01*
X187181778Y-115569003D01*
X187205877Y-115450000D01*
X187205877Y-114955000D01*
X188692894Y-114955000D01*
X191054967Y-117317073D01*
X191034123Y-117420000D01*
X191034123Y-119770000D01*
X191055042Y-119881173D01*
X191120745Y-119983279D01*
X191130000Y-119989603D01*
X191130000Y-125665000D01*
X189865005Y-125665000D01*
X189865000Y-125664999D01*
X189597121Y-125718284D01*
X189522655Y-125768041D01*
X189479731Y-125750217D01*
X188982450Y-125749783D01*
X188522857Y-125939684D01*
X188170919Y-126291007D01*
X188167185Y-126300000D01*
X187753267Y-126300000D01*
X187750316Y-126292857D01*
X187398993Y-125940919D01*
X186939731Y-125750217D01*
X186442450Y-125749783D01*
X185982857Y-125939684D01*
X185630919Y-126291007D01*
X185440217Y-126750269D01*
X185440157Y-126819262D01*
X185427275Y-126645831D01*
X185303606Y-126347266D01*
X185124993Y-126237139D01*
X184362132Y-127000000D01*
X185124993Y-127762861D01*
X185303606Y-127652734D01*
X185439790Y-127239793D01*
X185439783Y-127247550D01*
X185629684Y-127707143D01*
X185981007Y-128059081D01*
X186440269Y-128249783D01*
X186937550Y-128250217D01*
X187397143Y-128060316D01*
X187749081Y-127708993D01*
X187752815Y-127700000D01*
X188166733Y-127700000D01*
X188169684Y-127707143D01*
X188521007Y-128059081D01*
X188980269Y-128249783D01*
X189477550Y-128250217D01*
X189937143Y-128060316D01*
X190289081Y-127708993D01*
X190479783Y-127249731D01*
X190479944Y-127065000D01*
X193084431Y-127065000D01*
X193122445Y-127157000D01*
X193515928Y-127551170D01*
X194030301Y-127764757D01*
X194587256Y-127765243D01*
X195102000Y-127552555D01*
X195496170Y-127159072D01*
X195709757Y-126644699D01*
X195710243Y-126087744D01*
X195497555Y-125573000D01*
X195104072Y-125178830D01*
X194589699Y-124965243D01*
X194032744Y-124964757D01*
X193518000Y-125177445D01*
X193123830Y-125570928D01*
X193084768Y-125665000D01*
X192530000Y-125665000D01*
X192530000Y-123638850D01*
X193438282Y-123638850D01*
X193566851Y-123833052D01*
X194112510Y-124020157D01*
X194688234Y-123984204D01*
X195053149Y-123833052D01*
X195181718Y-123638850D01*
X194310000Y-122767132D01*
X193438282Y-123638850D01*
X192530000Y-123638850D01*
X192530000Y-122357510D01*
X192844843Y-122357510D01*
X192880796Y-122933234D01*
X193031948Y-123298149D01*
X193226150Y-123426718D01*
X194097868Y-122555000D01*
X194522132Y-122555000D01*
X195393850Y-123426718D01*
X195588052Y-123298149D01*
X195775157Y-122752490D01*
X195739204Y-122176766D01*
X195588052Y-121811851D01*
X195393850Y-121683282D01*
X194522132Y-122555000D01*
X194097868Y-122555000D01*
X193226150Y-121683282D01*
X193031948Y-121811851D01*
X192844843Y-122357510D01*
X192530000Y-122357510D01*
X192530000Y-121471150D01*
X193438282Y-121471150D01*
X194310000Y-122342868D01*
X195181718Y-121471150D01*
X195053149Y-121276948D01*
X194507490Y-121089843D01*
X193931766Y-121125796D01*
X193566851Y-121276948D01*
X193438282Y-121471150D01*
X192530000Y-121471150D01*
X192530000Y-120094950D01*
X192549073Y-120075877D01*
X194740000Y-120075877D01*
X194851173Y-120054958D01*
X194953279Y-119989255D01*
X195021778Y-119889003D01*
X195045877Y-119770000D01*
X195045877Y-117420000D01*
X195024958Y-117308827D01*
X194959255Y-117206721D01*
X194859003Y-117138222D01*
X194740000Y-117114123D01*
X192266229Y-117114123D01*
X189253553Y-114101447D01*
X189091342Y-113993060D01*
X188900000Y-113955000D01*
X187205877Y-113955000D01*
X187205877Y-113450000D01*
X187184958Y-113338827D01*
X187119255Y-113236721D01*
X187019003Y-113168222D01*
X186900000Y-113144123D01*
X185200000Y-113144123D01*
X185088827Y-113165042D01*
X184986721Y-113230745D01*
X184918222Y-113330997D01*
X184894123Y-113450000D01*
X184894123Y-113800000D01*
X184030877Y-113800000D01*
X184030877Y-113450000D01*
X184009958Y-113338827D01*
X183944255Y-113236721D01*
X183844003Y-113168222D01*
X183725000Y-113144123D01*
X181725000Y-113144123D01*
X181613827Y-113165042D01*
X181511721Y-113230745D01*
X181443222Y-113330997D01*
X181419123Y-113450000D01*
X180530877Y-113450000D01*
X180509958Y-113338827D01*
X180444255Y-113236721D01*
X180344003Y-113168222D01*
X180225000Y-113144123D01*
X178225000Y-113144123D01*
X178113827Y-113165042D01*
X178011721Y-113230745D01*
X177943222Y-113330997D01*
X177919123Y-113450000D01*
X177919123Y-113800000D01*
X177050877Y-113800000D01*
X177050877Y-113455000D01*
X177029958Y-113343827D01*
X176964255Y-113241721D01*
X176864003Y-113173222D01*
X176745000Y-113149123D01*
X175045000Y-113149123D01*
X174933827Y-113170042D01*
X174831721Y-113235745D01*
X174763222Y-113335997D01*
X174739123Y-113455000D01*
X172605877Y-113455000D01*
X172584958Y-113343827D01*
X172519255Y-113241721D01*
X172419003Y-113173222D01*
X172300000Y-113149123D01*
X170851229Y-113149123D01*
X169580000Y-111877894D01*
X169580000Y-111420877D01*
X169830000Y-111420877D01*
X169941173Y-111399958D01*
X170043279Y-111334255D01*
X170111778Y-111234003D01*
X170135877Y-111115000D01*
X170135877Y-109865000D01*
X170224123Y-109865000D01*
X170224123Y-111115000D01*
X170245042Y-111226173D01*
X170310745Y-111328279D01*
X170410997Y-111396778D01*
X170530000Y-111420877D01*
X172030000Y-111420877D01*
X172079463Y-111411570D01*
X172514186Y-111846293D01*
X172475182Y-111940226D01*
X172474818Y-112357942D01*
X172634334Y-112744000D01*
X172929446Y-113039628D01*
X173315226Y-113199818D01*
X173732942Y-113200182D01*
X174119000Y-113040666D01*
X174414628Y-112745554D01*
X174574818Y-112359774D01*
X174575182Y-111942058D01*
X174415666Y-111556000D01*
X174120554Y-111260372D01*
X173734774Y-111100182D01*
X173317058Y-111099818D01*
X173221435Y-111139329D01*
X172335877Y-110253771D01*
X172335877Y-109865000D01*
X172314958Y-109753827D01*
X172249255Y-109651721D01*
X172149003Y-109583222D01*
X172030000Y-109559123D01*
X170530000Y-109559123D01*
X170418827Y-109580042D01*
X170316721Y-109645745D01*
X170248222Y-109745997D01*
X170224123Y-109865000D01*
X170135877Y-109865000D01*
X170114958Y-109753827D01*
X170049255Y-109651721D01*
X169949003Y-109583222D01*
X169830000Y-109559123D01*
X168330000Y-109559123D01*
X168218827Y-109580042D01*
X168116721Y-109645745D01*
X168048222Y-109745997D01*
X168024123Y-109865000D01*
X167642106Y-109865000D01*
X168857107Y-108650000D01*
X169444000Y-108650000D01*
X169635342Y-108611940D01*
X169797553Y-108503553D01*
X170597229Y-107703877D01*
X172046000Y-107703877D01*
X172157173Y-107682958D01*
X172259279Y-107617255D01*
X172327778Y-107517003D01*
X172351877Y-107398000D01*
X172351877Y-105398000D01*
X172330958Y-105286827D01*
X172265255Y-105184721D01*
X172165003Y-105116222D01*
X172046000Y-105092123D01*
X170597230Y-105092123D01*
X168807553Y-103302447D01*
X168787877Y-103289300D01*
X168787877Y-103135500D01*
X169996000Y-103135500D01*
X169996000Y-103967619D01*
X170049284Y-104096259D01*
X170147741Y-104194715D01*
X170276380Y-104248000D01*
X170958500Y-104248000D01*
X171046000Y-104160500D01*
X171046000Y-103048000D01*
X171346000Y-103048000D01*
X171346000Y-104160500D01*
X171433500Y-104248000D01*
X172115620Y-104248000D01*
X172244259Y-104194715D01*
X172342716Y-104096259D01*
X172396000Y-103967619D01*
X172396000Y-103135500D01*
X172308500Y-103048000D01*
X171346000Y-103048000D01*
X171046000Y-103048000D01*
X170083500Y-103048000D01*
X169996000Y-103135500D01*
X168787877Y-103135500D01*
X168787877Y-102706000D01*
X168766958Y-102594827D01*
X168701255Y-102492721D01*
X168601003Y-102424222D01*
X168482000Y-102400123D01*
X167682000Y-102400123D01*
X167570827Y-102421042D01*
X167468721Y-102486745D01*
X167400222Y-102586997D01*
X167376123Y-102706000D01*
X167376123Y-104606000D01*
X167397042Y-104717173D01*
X167462745Y-104819279D01*
X167562997Y-104887778D01*
X167682000Y-104911877D01*
X168482000Y-104911877D01*
X168593173Y-104890958D01*
X168695279Y-104825255D01*
X168763778Y-104725003D01*
X168772555Y-104681661D01*
X170040123Y-105949230D01*
X170040123Y-106846770D01*
X169236894Y-107650000D01*
X168650000Y-107650000D01*
X168484308Y-107682958D01*
X168458658Y-107688060D01*
X168296446Y-107796447D01*
X166786447Y-109306447D01*
X166678060Y-109468658D01*
X166640000Y-109660000D01*
X166640000Y-113114123D01*
X166290000Y-113114123D01*
X166178827Y-113135042D01*
X166076721Y-113200745D01*
X166008222Y-113300997D01*
X165984123Y-113420000D01*
X165984123Y-115420000D01*
X166005042Y-115531173D01*
X166070745Y-115633279D01*
X166170997Y-115701778D01*
X166290000Y-115725877D01*
X167738771Y-115725877D01*
X168820000Y-116807107D01*
X168820000Y-118922893D01*
X167652894Y-120090000D01*
X151587107Y-120090000D01*
X149694222Y-118197115D01*
X149711550Y-118110000D01*
X149627817Y-117689048D01*
X149389367Y-117332183D01*
X149032502Y-117093733D01*
X148611550Y-117010000D01*
X148568450Y-117010000D01*
X148147498Y-117093733D01*
X147790633Y-117332183D01*
X147552183Y-117689048D01*
X147468450Y-118110000D01*
X147552183Y-118530952D01*
X147790633Y-118887817D01*
X148147498Y-119126267D01*
X148568450Y-119210000D01*
X148611550Y-119210000D01*
X149032502Y-119126267D01*
X149138401Y-119055507D01*
X150772895Y-120690002D01*
X148977108Y-120690002D01*
X147110000Y-118822894D01*
X147110000Y-116977106D01*
X147770068Y-116317039D01*
X147790633Y-116347817D01*
X148147498Y-116586267D01*
X148568450Y-116670000D01*
X148611550Y-116670000D01*
X149032502Y-116586267D01*
X149389367Y-116347817D01*
X149574999Y-116070000D01*
X149807894Y-116070000D01*
X151249123Y-117511230D01*
X151249123Y-118960000D01*
X151270042Y-119071173D01*
X151335745Y-119173279D01*
X151435997Y-119241778D01*
X151555000Y-119265877D01*
X153555000Y-119265877D01*
X153666173Y-119244958D01*
X153768279Y-119179255D01*
X153836778Y-119079003D01*
X153860877Y-118960000D01*
X153860877Y-118347500D01*
X154705000Y-118347500D01*
X154705000Y-119029620D01*
X154758285Y-119158259D01*
X154856741Y-119256716D01*
X154985381Y-119310000D01*
X155817500Y-119310000D01*
X155905000Y-119222500D01*
X155905000Y-118260000D01*
X156205000Y-118260000D01*
X156205000Y-119222500D01*
X156292500Y-119310000D01*
X157124619Y-119310000D01*
X157253259Y-119256716D01*
X157351715Y-119158259D01*
X157405000Y-119029620D01*
X157405000Y-118347500D01*
X157317500Y-118260000D01*
X156205000Y-118260000D01*
X155905000Y-118260000D01*
X154792500Y-118260000D01*
X154705000Y-118347500D01*
X153860877Y-118347500D01*
X153860877Y-117260000D01*
X153847777Y-117190380D01*
X154705000Y-117190380D01*
X154705000Y-117872500D01*
X154792500Y-117960000D01*
X155905000Y-117960000D01*
X155905000Y-116997500D01*
X156205000Y-116997500D01*
X156205000Y-117960000D01*
X157317500Y-117960000D01*
X157405000Y-117872500D01*
X157405000Y-117190380D01*
X157351715Y-117061741D01*
X157253259Y-116963284D01*
X157124619Y-116910000D01*
X156292500Y-116910000D01*
X156205000Y-116997500D01*
X155905000Y-116997500D01*
X155817500Y-116910000D01*
X154985381Y-116910000D01*
X154856741Y-116963284D01*
X154758285Y-117061741D01*
X154705000Y-117190380D01*
X153847777Y-117190380D01*
X153839958Y-117148827D01*
X153774255Y-117046721D01*
X153674003Y-116978222D01*
X153555000Y-116954123D01*
X152106230Y-116954123D01*
X151982107Y-116830000D01*
X153580000Y-116830000D01*
X153771342Y-116791940D01*
X153933553Y-116683553D01*
X154623553Y-115993554D01*
X154731940Y-115831342D01*
X154743345Y-115774003D01*
X154770000Y-115640000D01*
X154770000Y-115359974D01*
X154856741Y-115446716D01*
X154985381Y-115500000D01*
X155817500Y-115500000D01*
X155905000Y-115412500D01*
X155905000Y-114450000D01*
X156205000Y-114450000D01*
X156205000Y-115412500D01*
X156292500Y-115500000D01*
X157124619Y-115500000D01*
X157253259Y-115446716D01*
X157351715Y-115348259D01*
X157405000Y-115219620D01*
X157405000Y-114537500D01*
X157317500Y-114450000D01*
X156205000Y-114450000D01*
X155905000Y-114450000D01*
X155885000Y-114450000D01*
X155885000Y-114150000D01*
X155905000Y-114150000D01*
X155905000Y-113187500D01*
X156205000Y-113187500D01*
X156205000Y-114150000D01*
X157317500Y-114150000D01*
X157405000Y-114062500D01*
X157405000Y-113380380D01*
X157351715Y-113251741D01*
X157253259Y-113153284D01*
X157124619Y-113100000D01*
X156292500Y-113100000D01*
X156205000Y-113187500D01*
X155905000Y-113187500D01*
X155817500Y-113100000D01*
X154985381Y-113100000D01*
X154856741Y-113153284D01*
X154770000Y-113240026D01*
X154770000Y-112205000D01*
X154731940Y-112013658D01*
X154623553Y-111851446D01*
X153860877Y-111088770D01*
X153860877Y-109640000D01*
X154749123Y-109640000D01*
X154749123Y-111340000D01*
X154770042Y-111451173D01*
X154835745Y-111553279D01*
X154935997Y-111621778D01*
X155055000Y-111645877D01*
X156118771Y-111645877D01*
X158990000Y-114517107D01*
X158990000Y-116220000D01*
X159025097Y-116396447D01*
X159028060Y-116411342D01*
X159136447Y-116573553D01*
X160269123Y-117706229D01*
X160269123Y-118655000D01*
X160290042Y-118766173D01*
X160355745Y-118868279D01*
X160455997Y-118936778D01*
X160575000Y-118960877D01*
X161375000Y-118960877D01*
X161486173Y-118939958D01*
X161588279Y-118874255D01*
X161656778Y-118774003D01*
X161680877Y-118655000D01*
X161680877Y-117942500D01*
X162125000Y-117942500D01*
X162125000Y-118724619D01*
X162178284Y-118853259D01*
X162276741Y-118951715D01*
X162405380Y-119005000D01*
X162637500Y-119005000D01*
X162725000Y-118917500D01*
X162725000Y-117855000D01*
X163025000Y-117855000D01*
X163025000Y-118917500D01*
X163112500Y-119005000D01*
X163344620Y-119005000D01*
X163473259Y-118951715D01*
X163571716Y-118853259D01*
X163625000Y-118724619D01*
X163625000Y-117942500D01*
X163537500Y-117855000D01*
X163025000Y-117855000D01*
X162725000Y-117855000D01*
X162212500Y-117855000D01*
X162125000Y-117942500D01*
X161680877Y-117942500D01*
X161680877Y-116755000D01*
X161667778Y-116685381D01*
X162125000Y-116685381D01*
X162125000Y-117467500D01*
X162212500Y-117555000D01*
X162725000Y-117555000D01*
X162725000Y-116492500D01*
X163025000Y-116492500D01*
X163025000Y-117555000D01*
X163537500Y-117555000D01*
X163625000Y-117467500D01*
X163625000Y-116685381D01*
X163571716Y-116556741D01*
X163473259Y-116458285D01*
X163344620Y-116405000D01*
X163112500Y-116405000D01*
X163025000Y-116492500D01*
X162725000Y-116492500D01*
X162637500Y-116405000D01*
X162405380Y-116405000D01*
X162276741Y-116458285D01*
X162178284Y-116556741D01*
X162125000Y-116685381D01*
X161667778Y-116685381D01*
X161659958Y-116643827D01*
X161594255Y-116541721D01*
X161494003Y-116473222D01*
X161375000Y-116449123D01*
X160575000Y-116449123D01*
X160463827Y-116470042D01*
X160453678Y-116476572D01*
X159990000Y-116012894D01*
X159990000Y-114310000D01*
X159951940Y-114118658D01*
X159889945Y-114025877D01*
X159843554Y-113956447D01*
X157338349Y-111451243D01*
X157360877Y-111340000D01*
X157360877Y-109640000D01*
X157339958Y-109528827D01*
X157274255Y-109426721D01*
X157174003Y-109358222D01*
X157055000Y-109334123D01*
X155055000Y-109334123D01*
X154943827Y-109355042D01*
X154841721Y-109420745D01*
X154773222Y-109520997D01*
X154749123Y-109640000D01*
X153860877Y-109640000D01*
X153839958Y-109528827D01*
X153827555Y-109509551D01*
X154447106Y-108890000D01*
X158502894Y-108890000D01*
X159504123Y-109891230D01*
X159504123Y-111340000D01*
X159525042Y-111451173D01*
X159590745Y-111553279D01*
X159690997Y-111621778D01*
X159810000Y-111645877D01*
X161810000Y-111645877D01*
X161921173Y-111624958D01*
X162023279Y-111559255D01*
X162091778Y-111459003D01*
X162115877Y-111340000D01*
X162115877Y-109752984D01*
X162190000Y-109827107D01*
X162190000Y-113449123D01*
X161525000Y-113449123D01*
X161413827Y-113470042D01*
X161311721Y-113535745D01*
X161243222Y-113635997D01*
X161219123Y-113755000D01*
X161219123Y-115655000D01*
X161240042Y-115766173D01*
X161305745Y-115868279D01*
X161405997Y-115936778D01*
X161525000Y-115960877D01*
X162325000Y-115960877D01*
X162436173Y-115939958D01*
X162538279Y-115874255D01*
X162606778Y-115774003D01*
X162630877Y-115655000D01*
X162630877Y-115205000D01*
X163067894Y-115205000D01*
X165984123Y-118121230D01*
X165984123Y-118920000D01*
X166005042Y-119031173D01*
X166070745Y-119133279D01*
X166170997Y-119201778D01*
X166290000Y-119225877D01*
X167990000Y-119225877D01*
X168101173Y-119204958D01*
X168203279Y-119139255D01*
X168271778Y-119039003D01*
X168295877Y-118920000D01*
X168295877Y-116920000D01*
X168274958Y-116808827D01*
X168209255Y-116706721D01*
X168109003Y-116638222D01*
X167990000Y-116614123D01*
X166290000Y-116614123D01*
X166178827Y-116635042D01*
X166076721Y-116700745D01*
X166036588Y-116759481D01*
X163628553Y-114351447D01*
X163466342Y-114243060D01*
X163275000Y-114205000D01*
X163102723Y-114205000D01*
X163151940Y-114131342D01*
X163172918Y-114025877D01*
X163190000Y-113940000D01*
X163190000Y-111669132D01*
X163240381Y-111690000D01*
X164072500Y-111690000D01*
X164160000Y-111602500D01*
X164160000Y-110640000D01*
X164460000Y-110640000D01*
X164460000Y-111602500D01*
X164547500Y-111690000D01*
X165379619Y-111690000D01*
X165508259Y-111636716D01*
X165606715Y-111538259D01*
X165660000Y-111409620D01*
X165660000Y-110727500D01*
X165572500Y-110640000D01*
X164460000Y-110640000D01*
X164160000Y-110640000D01*
X164140000Y-110640000D01*
X164140000Y-110340000D01*
X164160000Y-110340000D01*
X164160000Y-109377500D01*
X164460000Y-109377500D01*
X164460000Y-110340000D01*
X165572500Y-110340000D01*
X165660000Y-110252500D01*
X165660000Y-109570380D01*
X165606715Y-109441741D01*
X165508259Y-109343284D01*
X165379619Y-109290000D01*
X164547500Y-109290000D01*
X164460000Y-109377500D01*
X164160000Y-109377500D01*
X164072500Y-109290000D01*
X163240381Y-109290000D01*
X163111741Y-109343284D01*
X163101642Y-109353383D01*
X163043553Y-109266446D01*
X161173553Y-107396447D01*
X161011342Y-107288060D01*
X160820000Y-107250000D01*
X151330000Y-107250000D01*
X151138658Y-107288060D01*
X150976446Y-107396447D01*
X148921284Y-109451610D01*
X148611550Y-109390000D01*
X148568450Y-109390000D01*
X148147498Y-109473733D01*
X147790633Y-109712183D01*
X147552183Y-110069048D01*
X147468450Y-110490000D01*
X147552183Y-110910952D01*
X147790633Y-111267817D01*
X148147498Y-111506267D01*
X148568450Y-111590000D01*
X148611550Y-111590000D01*
X149032502Y-111506267D01*
X149389367Y-111267817D01*
X149627817Y-110910952D01*
X149711550Y-110490000D01*
X149642789Y-110144317D01*
X151537107Y-108250000D01*
X153672894Y-108250000D01*
X152588771Y-109334123D01*
X151555000Y-109334123D01*
X151443827Y-109355042D01*
X151341721Y-109420745D01*
X151273222Y-109520997D01*
X151249123Y-109640000D01*
X151249123Y-111340000D01*
X151270042Y-111451173D01*
X151335745Y-111553279D01*
X151435997Y-111621778D01*
X151555000Y-111645877D01*
X153003771Y-111645877D01*
X153770000Y-112412107D01*
X153770000Y-113233814D01*
X153674003Y-113168222D01*
X153555000Y-113144123D01*
X152106229Y-113144123D01*
X151638553Y-112676447D01*
X151476342Y-112568060D01*
X151285000Y-112530000D01*
X149574999Y-112530000D01*
X149389367Y-112252183D01*
X149032502Y-112013733D01*
X148611550Y-111930000D01*
X148568450Y-111930000D01*
X148258716Y-111991610D01*
X144520000Y-108252894D01*
X144520000Y-103080000D01*
X145364123Y-103080000D01*
X145364123Y-106470000D01*
X145385042Y-106581173D01*
X145450745Y-106683279D01*
X145550997Y-106751778D01*
X145670000Y-106775877D01*
X148170000Y-106775877D01*
X148281173Y-106754958D01*
X148383279Y-106689255D01*
X148451778Y-106589003D01*
X148475877Y-106470000D01*
X148475877Y-105475000D01*
X149499123Y-105475000D01*
X149499123Y-106525000D01*
X149520042Y-106636173D01*
X149585745Y-106738279D01*
X149685997Y-106806778D01*
X149805000Y-106830877D01*
X153305000Y-106830877D01*
X153416173Y-106809958D01*
X153518279Y-106744255D01*
X153586778Y-106644003D01*
X153610877Y-106525000D01*
X153610877Y-103025000D01*
X154999123Y-103025000D01*
X154999123Y-106525000D01*
X155020042Y-106636173D01*
X155085745Y-106738279D01*
X155185997Y-106806778D01*
X155305000Y-106830877D01*
X158805000Y-106830877D01*
X158916173Y-106809958D01*
X159018279Y-106744255D01*
X159086778Y-106644003D01*
X159110877Y-106525000D01*
X159110877Y-105275000D01*
X161237894Y-105275000D01*
X161912123Y-105949230D01*
X161912123Y-107398000D01*
X161933042Y-107509173D01*
X161998745Y-107611279D01*
X162098997Y-107679778D01*
X162218000Y-107703877D01*
X163918000Y-107703877D01*
X164029173Y-107682958D01*
X164131279Y-107617255D01*
X164199778Y-107517003D01*
X164223877Y-107398000D01*
X164223877Y-106893500D01*
X166382000Y-106893500D01*
X166382000Y-107675619D01*
X166435284Y-107804259D01*
X166533741Y-107902715D01*
X166662380Y-107956000D01*
X166894500Y-107956000D01*
X166982000Y-107868500D01*
X166982000Y-106806000D01*
X167282000Y-106806000D01*
X167282000Y-107868500D01*
X167369500Y-107956000D01*
X167601620Y-107956000D01*
X167730259Y-107902715D01*
X167828716Y-107804259D01*
X167882000Y-107675619D01*
X167882000Y-106893500D01*
X167794500Y-106806000D01*
X167282000Y-106806000D01*
X166982000Y-106806000D01*
X166469500Y-106806000D01*
X166382000Y-106893500D01*
X164223877Y-106893500D01*
X164223877Y-106321229D01*
X164908725Y-105636381D01*
X166382000Y-105636381D01*
X166382000Y-106418500D01*
X166469500Y-106506000D01*
X166982000Y-106506000D01*
X166982000Y-105443500D01*
X167282000Y-105443500D01*
X167282000Y-106506000D01*
X167794500Y-106506000D01*
X167882000Y-106418500D01*
X167882000Y-105636381D01*
X167828716Y-105507741D01*
X167730259Y-105409285D01*
X167601620Y-105356000D01*
X167369500Y-105356000D01*
X167282000Y-105443500D01*
X166982000Y-105443500D01*
X166894500Y-105356000D01*
X166662380Y-105356000D01*
X166533741Y-105409285D01*
X166435284Y-105507741D01*
X166382000Y-105636381D01*
X164908725Y-105636381D01*
X165659630Y-104885477D01*
X165662997Y-104887778D01*
X165782000Y-104911877D01*
X166582000Y-104911877D01*
X166693173Y-104890958D01*
X166795279Y-104825255D01*
X166863778Y-104725003D01*
X166887877Y-104606000D01*
X166887877Y-102706000D01*
X166866958Y-102594827D01*
X166801255Y-102492721D01*
X166701003Y-102424222D01*
X166582000Y-102400123D01*
X165782000Y-102400123D01*
X165670827Y-102421042D01*
X165568721Y-102486745D01*
X165500222Y-102586997D01*
X165476123Y-102706000D01*
X165476123Y-103654770D01*
X164018432Y-105112461D01*
X163918000Y-105092123D01*
X162469229Y-105092123D01*
X161798553Y-104421447D01*
X161636342Y-104313060D01*
X161606484Y-104307121D01*
X161445000Y-104275000D01*
X159110877Y-104275000D01*
X159110877Y-103135500D01*
X161868000Y-103135500D01*
X161868000Y-103967619D01*
X161921284Y-104096259D01*
X162019741Y-104194715D01*
X162148380Y-104248000D01*
X162830500Y-104248000D01*
X162918000Y-104160500D01*
X162918000Y-103048000D01*
X163218000Y-103048000D01*
X163218000Y-104160500D01*
X163305500Y-104248000D01*
X163987620Y-104248000D01*
X164116259Y-104194715D01*
X164214716Y-104096259D01*
X164268000Y-103967619D01*
X164268000Y-103135500D01*
X164180500Y-103048000D01*
X163218000Y-103048000D01*
X162918000Y-103048000D01*
X161955500Y-103048000D01*
X161868000Y-103135500D01*
X159110877Y-103135500D01*
X159110877Y-103025000D01*
X159089958Y-102913827D01*
X159024255Y-102811721D01*
X158924003Y-102743222D01*
X158805000Y-102719123D01*
X158380827Y-102719123D01*
X159271569Y-101828381D01*
X161868000Y-101828381D01*
X161868000Y-102660500D01*
X161955500Y-102748000D01*
X162918000Y-102748000D01*
X162918000Y-101635500D01*
X163218000Y-101635500D01*
X163218000Y-102748000D01*
X164180500Y-102748000D01*
X164268000Y-102660500D01*
X164268000Y-101828381D01*
X169996000Y-101828381D01*
X169996000Y-102660500D01*
X170083500Y-102748000D01*
X171046000Y-102748000D01*
X171046000Y-101635500D01*
X171346000Y-101635500D01*
X171346000Y-102748000D01*
X172308500Y-102748000D01*
X172396000Y-102660500D01*
X172396000Y-101828381D01*
X172342716Y-101699741D01*
X172244259Y-101601285D01*
X172115620Y-101548000D01*
X171433500Y-101548000D01*
X171346000Y-101635500D01*
X171046000Y-101635500D01*
X170958500Y-101548000D01*
X170276380Y-101548000D01*
X170147741Y-101601285D01*
X170049284Y-101699741D01*
X169996000Y-101828381D01*
X164268000Y-101828381D01*
X164214716Y-101699741D01*
X164116259Y-101601285D01*
X163987620Y-101548000D01*
X163305500Y-101548000D01*
X163218000Y-101635500D01*
X162918000Y-101635500D01*
X162830500Y-101548000D01*
X162148380Y-101548000D01*
X162019741Y-101601285D01*
X161921284Y-101699741D01*
X161868000Y-101828381D01*
X159271569Y-101828381D01*
X159604950Y-101495000D01*
X172325050Y-101495000D01*
X173110000Y-102279950D01*
X173110000Y-109920000D01*
X173163284Y-110187879D01*
X173315025Y-110414975D01*
X175305025Y-112404975D01*
X175532121Y-112556716D01*
X175800000Y-112610000D01*
X189230000Y-112610000D01*
X189497879Y-112556716D01*
X189724975Y-112404975D01*
X191179949Y-110950000D01*
X194469998Y-110950000D01*
X194737877Y-110896716D01*
X194964973Y-110744975D01*
X195875000Y-109834948D01*
X195875000Y-110210050D01*
X194940882Y-111144168D01*
X194859003Y-111088222D01*
X194740000Y-111064123D01*
X191340000Y-111064123D01*
X191228827Y-111085042D01*
X191126721Y-111150745D01*
X191058222Y-111250997D01*
X191034123Y-111370000D01*
X191034123Y-113720000D01*
X191055042Y-113831173D01*
X191120745Y-113933279D01*
X191220997Y-114001778D01*
X191340000Y-114025877D01*
X194740000Y-114025877D01*
X194851173Y-114004958D01*
X194953279Y-113939255D01*
X195021778Y-113839003D01*
X195045877Y-113720000D01*
X195045877Y-113019073D01*
X197069975Y-110994975D01*
X197221716Y-110767879D01*
X197275001Y-110500000D01*
X197275000Y-110499995D01*
X197275000Y-103900000D01*
X197221716Y-103632122D01*
X197221716Y-103632121D01*
X197069975Y-103405025D01*
X194419975Y-100755025D01*
X194192879Y-100603284D01*
X193925000Y-100550000D01*
X188850005Y-100550000D01*
X188850000Y-100549999D01*
X188582121Y-100603284D01*
X188540130Y-100631342D01*
X188355025Y-100755025D01*
X188355023Y-100755028D01*
X186968579Y-102141472D01*
X184913553Y-100086447D01*
X184751342Y-99978060D01*
X184560000Y-99940000D01*
X184425877Y-99940000D01*
X184425877Y-99815000D01*
X184404958Y-99703827D01*
X184339255Y-99601721D01*
X184239003Y-99533222D01*
X184120000Y-99509123D01*
X182620000Y-99509123D01*
X182508827Y-99530042D01*
X182406721Y-99595745D01*
X182338222Y-99695997D01*
X182314123Y-99815000D01*
X182314123Y-101065000D01*
X182335042Y-101176173D01*
X182400745Y-101278279D01*
X182500997Y-101346778D01*
X182620000Y-101370877D01*
X184120000Y-101370877D01*
X184231173Y-101349958D01*
X184333279Y-101284255D01*
X184401778Y-101184003D01*
X184425877Y-101065000D01*
X184425877Y-101012983D01*
X186410000Y-102997107D01*
X186410000Y-104210050D01*
X186369947Y-104250103D01*
X186395000Y-104189619D01*
X186395000Y-104052500D01*
X186307500Y-103965000D01*
X185395000Y-103965000D01*
X185395000Y-103985000D01*
X185095000Y-103985000D01*
X185095000Y-103965000D01*
X184182500Y-103965000D01*
X184095000Y-104052500D01*
X184095000Y-104189619D01*
X184148284Y-104318259D01*
X184246741Y-104416715D01*
X184375380Y-104470000D01*
X184929656Y-104470000D01*
X184923485Y-104474123D01*
X184445000Y-104474123D01*
X184333827Y-104495042D01*
X184231721Y-104560745D01*
X184163222Y-104660997D01*
X184139123Y-104780000D01*
X184139123Y-105390000D01*
X184160042Y-105501173D01*
X184225745Y-105603279D01*
X184325997Y-105671778D01*
X184445000Y-105695877D01*
X184923485Y-105695877D01*
X184959588Y-105720000D01*
X184923485Y-105744123D01*
X184445000Y-105744123D01*
X184333827Y-105765042D01*
X184231721Y-105830745D01*
X184163222Y-105930997D01*
X184139123Y-106050000D01*
X184139123Y-106660000D01*
X184160042Y-106771173D01*
X184225745Y-106873279D01*
X184325997Y-106941778D01*
X184445000Y-106965877D01*
X184923485Y-106965877D01*
X184977122Y-107001716D01*
X185039496Y-107014123D01*
X184445000Y-107014123D01*
X184333827Y-107035042D01*
X184231721Y-107100745D01*
X184163222Y-107200997D01*
X184139123Y-107320000D01*
X184139123Y-107930000D01*
X184160042Y-108041173D01*
X184225745Y-108143279D01*
X184325997Y-108211778D01*
X184445000Y-108235877D01*
X184745000Y-108235877D01*
X184745000Y-108556241D01*
X184556000Y-108634334D01*
X184260372Y-108929446D01*
X184100182Y-109315226D01*
X184099818Y-109732942D01*
X184259334Y-110119000D01*
X184554446Y-110414628D01*
X184940226Y-110574818D01*
X185357942Y-110575182D01*
X185744000Y-110415666D01*
X186039628Y-110120554D01*
X186199818Y-109734774D01*
X186200182Y-109317058D01*
X186040666Y-108931000D01*
X185745554Y-108635372D01*
X185745000Y-108635142D01*
X185745000Y-108342500D01*
X188030000Y-108342500D01*
X188030000Y-109174619D01*
X188083284Y-109303259D01*
X188181741Y-109401715D01*
X188310380Y-109455000D01*
X188992500Y-109455000D01*
X189080000Y-109367500D01*
X189080000Y-108255000D01*
X189380000Y-108255000D01*
X189380000Y-109367500D01*
X189467500Y-109455000D01*
X190149620Y-109455000D01*
X190278259Y-109401715D01*
X190376716Y-109303259D01*
X190430000Y-109174619D01*
X190430000Y-108342500D01*
X190400000Y-108312500D01*
X191875000Y-108312500D01*
X191875000Y-109144619D01*
X191928284Y-109273259D01*
X192026741Y-109371715D01*
X192155380Y-109425000D01*
X192837500Y-109425000D01*
X192925000Y-109337500D01*
X192925000Y-108225000D01*
X193225000Y-108225000D01*
X193225000Y-109337500D01*
X193312500Y-109425000D01*
X193994620Y-109425000D01*
X194123259Y-109371715D01*
X194221716Y-109273259D01*
X194275000Y-109144619D01*
X194275000Y-108312500D01*
X194187500Y-108225000D01*
X193225000Y-108225000D01*
X192925000Y-108225000D01*
X191962500Y-108225000D01*
X191875000Y-108312500D01*
X190400000Y-108312500D01*
X190342500Y-108255000D01*
X189380000Y-108255000D01*
X189080000Y-108255000D01*
X188117500Y-108255000D01*
X188030000Y-108342500D01*
X185745000Y-108342500D01*
X185745000Y-108235877D01*
X186045000Y-108235877D01*
X186156173Y-108214958D01*
X186258279Y-108149255D01*
X186326778Y-108049003D01*
X186350877Y-107930000D01*
X186350877Y-107320000D01*
X186329958Y-107208827D01*
X186264255Y-107106721D01*
X186188559Y-107055000D01*
X186825000Y-107055000D01*
X186923632Y-107035381D01*
X188030000Y-107035381D01*
X188030000Y-107867500D01*
X188117500Y-107955000D01*
X189080000Y-107955000D01*
X189080000Y-106842500D01*
X189380000Y-106842500D01*
X189380000Y-107955000D01*
X190342500Y-107955000D01*
X190430000Y-107867500D01*
X190430000Y-107035381D01*
X190417574Y-107005381D01*
X191875000Y-107005381D01*
X191875000Y-107837500D01*
X191962500Y-107925000D01*
X192925000Y-107925000D01*
X192925000Y-106812500D01*
X193225000Y-106812500D01*
X193225000Y-107925000D01*
X194187500Y-107925000D01*
X194275000Y-107837500D01*
X194275000Y-107005381D01*
X194221716Y-106876741D01*
X194123259Y-106778285D01*
X193994620Y-106725000D01*
X193312500Y-106725000D01*
X193225000Y-106812500D01*
X192925000Y-106812500D01*
X192837500Y-106725000D01*
X192155380Y-106725000D01*
X192026741Y-106778285D01*
X191928284Y-106876741D01*
X191875000Y-107005381D01*
X190417574Y-107005381D01*
X190376716Y-106906741D01*
X190278259Y-106808285D01*
X190149620Y-106755000D01*
X189467500Y-106755000D01*
X189380000Y-106842500D01*
X189080000Y-106842500D01*
X188992500Y-106755000D01*
X188310380Y-106755000D01*
X188181741Y-106808285D01*
X188083284Y-106906741D01*
X188030000Y-107035381D01*
X186923632Y-107035381D01*
X187092879Y-107001716D01*
X187319975Y-106849975D01*
X188279438Y-105890512D01*
X188380000Y-105910877D01*
X190080000Y-105910877D01*
X190191173Y-105889958D01*
X190293279Y-105824255D01*
X190361778Y-105724003D01*
X190385877Y-105605000D01*
X190385877Y-105275000D01*
X191919123Y-105275000D01*
X191919123Y-105575000D01*
X191940042Y-105686173D01*
X192005745Y-105788279D01*
X192105997Y-105856778D01*
X192225000Y-105880877D01*
X193925000Y-105880877D01*
X194036173Y-105859958D01*
X194138279Y-105794255D01*
X194206778Y-105694003D01*
X194230877Y-105575000D01*
X194230877Y-105520827D01*
X194825000Y-106114950D01*
X194825000Y-108905048D01*
X194180048Y-109550000D01*
X190890005Y-109550000D01*
X190890000Y-109549999D01*
X190622121Y-109603284D01*
X190549032Y-109652121D01*
X190395025Y-109755025D01*
X190395023Y-109755028D01*
X188940050Y-111210000D01*
X176089950Y-111210000D01*
X174510000Y-109630050D01*
X174510000Y-107320000D01*
X178139123Y-107320000D01*
X178139123Y-107930000D01*
X178160042Y-108041173D01*
X178225745Y-108143279D01*
X178325997Y-108211778D01*
X178445000Y-108235877D01*
X180045000Y-108235877D01*
X180156173Y-108214958D01*
X180258279Y-108149255D01*
X180326778Y-108049003D01*
X180350877Y-107930000D01*
X180350877Y-107320000D01*
X180329958Y-107208827D01*
X180264255Y-107106721D01*
X180164003Y-107038222D01*
X180045000Y-107014123D01*
X178445000Y-107014123D01*
X178333827Y-107035042D01*
X178231721Y-107100745D01*
X178163222Y-107200997D01*
X178139123Y-107320000D01*
X174510000Y-107320000D01*
X174510000Y-101990000D01*
X174456716Y-101722122D01*
X174304975Y-101495025D01*
X173109975Y-100300025D01*
X172882879Y-100148284D01*
X172615000Y-100095000D01*
X159315005Y-100095000D01*
X159315000Y-100094999D01*
X159047121Y-100148284D01*
X158820025Y-100300025D01*
X156560025Y-102560025D01*
X156453719Y-102719123D01*
X155305000Y-102719123D01*
X155193827Y-102740042D01*
X155091721Y-102805745D01*
X155023222Y-102905997D01*
X154999123Y-103025000D01*
X153610877Y-103025000D01*
X153589958Y-102913827D01*
X153524255Y-102811721D01*
X153424003Y-102743222D01*
X153305000Y-102719123D01*
X149805000Y-102719123D01*
X149693827Y-102740042D01*
X149591721Y-102805745D01*
X149523222Y-102905997D01*
X149499123Y-103025000D01*
X149499123Y-104075000D01*
X148475877Y-104075000D01*
X148475877Y-103080000D01*
X148454958Y-102968827D01*
X148389255Y-102866721D01*
X148289003Y-102798222D01*
X148170000Y-102774123D01*
X145670000Y-102774123D01*
X145558827Y-102795042D01*
X145456721Y-102860745D01*
X145388222Y-102960997D01*
X145364123Y-103080000D01*
X144520000Y-103080000D01*
X144520000Y-102587106D01*
X147267107Y-99840000D01*
X173992894Y-99840000D01*
X174920000Y-100767107D01*
X174920000Y-105900000D01*
X174949837Y-106050000D01*
X174958060Y-106091342D01*
X175066447Y-106253553D01*
X175521446Y-106708553D01*
X175667285Y-106806000D01*
X175683658Y-106816940D01*
X175875000Y-106855000D01*
X178213983Y-106855000D01*
X178225745Y-106873279D01*
X178325997Y-106941778D01*
X178445000Y-106965877D01*
X180045000Y-106965877D01*
X180156173Y-106944958D01*
X180258279Y-106879255D01*
X180326778Y-106779003D01*
X180350877Y-106660000D01*
X180350877Y-106050000D01*
X180333472Y-105957500D01*
X180585000Y-105957500D01*
X180585000Y-107544619D01*
X180638284Y-107673259D01*
X180736741Y-107771715D01*
X180865380Y-107825000D01*
X182007500Y-107825000D01*
X182095000Y-107737500D01*
X182095000Y-105870000D01*
X182395000Y-105870000D01*
X182395000Y-107737500D01*
X182482500Y-107825000D01*
X183624620Y-107825000D01*
X183753259Y-107771715D01*
X183851716Y-107673259D01*
X183905000Y-107544619D01*
X183905000Y-105957500D01*
X183817500Y-105870000D01*
X182395000Y-105870000D01*
X182095000Y-105870000D01*
X180672500Y-105870000D01*
X180585000Y-105957500D01*
X180333472Y-105957500D01*
X180329958Y-105938827D01*
X180264255Y-105836721D01*
X180164003Y-105768222D01*
X180045000Y-105744123D01*
X178445000Y-105744123D01*
X178333827Y-105765042D01*
X178231721Y-105830745D01*
X178215148Y-105855000D01*
X177654728Y-105855000D01*
X177914628Y-105595554D01*
X177919010Y-105585000D01*
X178213983Y-105585000D01*
X178225745Y-105603279D01*
X178325997Y-105671778D01*
X178445000Y-105695877D01*
X180045000Y-105695877D01*
X180156173Y-105674958D01*
X180258279Y-105609255D01*
X180326778Y-105509003D01*
X180350877Y-105390000D01*
X180350877Y-104780000D01*
X180329958Y-104668827D01*
X180264255Y-104566721D01*
X180164003Y-104498222D01*
X180045000Y-104474123D01*
X178445000Y-104474123D01*
X178333827Y-104495042D01*
X178231721Y-104560745D01*
X178215148Y-104585000D01*
X177989627Y-104585000D01*
X177915666Y-104406000D01*
X177808677Y-104298824D01*
X177890000Y-104315000D01*
X178213983Y-104315000D01*
X178225745Y-104333279D01*
X178325997Y-104401778D01*
X178445000Y-104425877D01*
X180045000Y-104425877D01*
X180156173Y-104404958D01*
X180258279Y-104339255D01*
X180326778Y-104239003D01*
X180350877Y-104120000D01*
X180350877Y-103895381D01*
X180585000Y-103895381D01*
X180585000Y-105482500D01*
X180672500Y-105570000D01*
X182095000Y-105570000D01*
X182095000Y-103702500D01*
X182395000Y-103702500D01*
X182395000Y-105570000D01*
X183817500Y-105570000D01*
X183905000Y-105482500D01*
X183905000Y-103895381D01*
X183851716Y-103766741D01*
X183753259Y-103668285D01*
X183624620Y-103615000D01*
X182482500Y-103615000D01*
X182395000Y-103702500D01*
X182095000Y-103702500D01*
X182007500Y-103615000D01*
X180865380Y-103615000D01*
X180736741Y-103668285D01*
X180638284Y-103766741D01*
X180585000Y-103895381D01*
X180350877Y-103895381D01*
X180350877Y-103510000D01*
X180337778Y-103440381D01*
X184095000Y-103440381D01*
X184095000Y-103577500D01*
X184182500Y-103665000D01*
X185095000Y-103665000D01*
X185095000Y-103247500D01*
X185395000Y-103247500D01*
X185395000Y-103665000D01*
X186307500Y-103665000D01*
X186395000Y-103577500D01*
X186395000Y-103440381D01*
X186341716Y-103311741D01*
X186243259Y-103213285D01*
X186114620Y-103160000D01*
X185482500Y-103160000D01*
X185395000Y-103247500D01*
X185095000Y-103247500D01*
X185007500Y-103160000D01*
X184375380Y-103160000D01*
X184246741Y-103213285D01*
X184148284Y-103311741D01*
X184095000Y-103440381D01*
X180337778Y-103440381D01*
X180329958Y-103398827D01*
X180264255Y-103296721D01*
X180164003Y-103228222D01*
X180045000Y-103204123D01*
X178445000Y-103204123D01*
X178333827Y-103225042D01*
X178231721Y-103290745D01*
X178215148Y-103315000D01*
X178097107Y-103315000D01*
X178060814Y-103278707D01*
X178099818Y-103184774D01*
X178100182Y-102767058D01*
X177940666Y-102381000D01*
X177645554Y-102085372D01*
X177579496Y-102057942D01*
X177824818Y-102057942D01*
X177984334Y-102444000D01*
X178279446Y-102739628D01*
X178665226Y-102899818D01*
X179082942Y-102900182D01*
X179469000Y-102740666D01*
X179764628Y-102445554D01*
X179924818Y-102059774D01*
X179925182Y-101642058D01*
X179885671Y-101546435D01*
X180182375Y-101249731D01*
X180200745Y-101278279D01*
X180300997Y-101346778D01*
X180420000Y-101370877D01*
X181920000Y-101370877D01*
X182031173Y-101349958D01*
X182133279Y-101284255D01*
X182201778Y-101184003D01*
X182225877Y-101065000D01*
X182225877Y-99815000D01*
X182204958Y-99703827D01*
X182139255Y-99601721D01*
X182039003Y-99533222D01*
X181920000Y-99509123D01*
X180420000Y-99509123D01*
X180308827Y-99530042D01*
X180206721Y-99595745D01*
X180138222Y-99695997D01*
X180114123Y-99815000D01*
X180114123Y-99973989D01*
X180093658Y-99978060D01*
X179931447Y-100086447D01*
X179178707Y-100839187D01*
X179084774Y-100800182D01*
X178667058Y-100799818D01*
X178281000Y-100959334D01*
X177985372Y-101254446D01*
X177825182Y-101640226D01*
X177824818Y-102057942D01*
X177579496Y-102057942D01*
X177259774Y-101925182D01*
X176842058Y-101924818D01*
X176456000Y-102084334D01*
X176160372Y-102379446D01*
X176000182Y-102765226D01*
X175999818Y-103182942D01*
X176159334Y-103569000D01*
X176454446Y-103864628D01*
X176738138Y-103982427D01*
X176431000Y-104109334D01*
X176135372Y-104404446D01*
X175975182Y-104790226D01*
X175974818Y-105207942D01*
X176134334Y-105594000D01*
X176394878Y-105855000D01*
X176082107Y-105855000D01*
X175920000Y-105692894D01*
X175920000Y-100560000D01*
X175881940Y-100368658D01*
X175801758Y-100248658D01*
X175773554Y-100206447D01*
X174847106Y-99280000D01*
X197355000Y-99280000D01*
X197355000Y-128530000D01*
X164840000Y-128530000D01*
X164840000Y-127247550D01*
X165119783Y-127247550D01*
X165309684Y-127707143D01*
X165661007Y-128059081D01*
X166120269Y-128249783D01*
X166617550Y-128250217D01*
X167077143Y-128060316D01*
X167429081Y-127708993D01*
X167619783Y-127249731D01*
X167619784Y-127247550D01*
X167659783Y-127247550D01*
X167849684Y-127707143D01*
X168201007Y-128059081D01*
X168660269Y-128249783D01*
X169157550Y-128250217D01*
X169617143Y-128060316D01*
X169969081Y-127708993D01*
X170159783Y-127249731D01*
X170159784Y-127247550D01*
X170199783Y-127247550D01*
X170389684Y-127707143D01*
X170741007Y-128059081D01*
X171200269Y-128249783D01*
X171697550Y-128250217D01*
X172157143Y-128060316D01*
X172242615Y-127974993D01*
X173227139Y-127974993D01*
X173337266Y-128153606D01*
X173828418Y-128315583D01*
X174344169Y-128277275D01*
X174642734Y-128153606D01*
X174752861Y-127974993D01*
X173990000Y-127212132D01*
X173227139Y-127974993D01*
X172242615Y-127974993D01*
X172509081Y-127708993D01*
X172699783Y-127249731D01*
X172699843Y-127180738D01*
X172712725Y-127354169D01*
X172836394Y-127652734D01*
X173015007Y-127762861D01*
X173777868Y-127000000D01*
X174202132Y-127000000D01*
X174964993Y-127762861D01*
X175143606Y-127652734D01*
X175279790Y-127239793D01*
X175279783Y-127247550D01*
X175469684Y-127707143D01*
X175821007Y-128059081D01*
X176280269Y-128249783D01*
X176777550Y-128250217D01*
X177237143Y-128060316D01*
X177589081Y-127708993D01*
X177779783Y-127249731D01*
X177779784Y-127247550D01*
X177819783Y-127247550D01*
X178009684Y-127707143D01*
X178361007Y-128059081D01*
X178820269Y-128249783D01*
X179317550Y-128250217D01*
X179777143Y-128060316D01*
X180129081Y-127708993D01*
X180319783Y-127249731D01*
X180319784Y-127247550D01*
X180359783Y-127247550D01*
X180549684Y-127707143D01*
X180901007Y-128059081D01*
X181360269Y-128249783D01*
X181857550Y-128250217D01*
X182317143Y-128060316D01*
X182402615Y-127974993D01*
X183387139Y-127974993D01*
X183497266Y-128153606D01*
X183988418Y-128315583D01*
X184504169Y-128277275D01*
X184802734Y-128153606D01*
X184912861Y-127974993D01*
X184150000Y-127212132D01*
X183387139Y-127974993D01*
X182402615Y-127974993D01*
X182669081Y-127708993D01*
X182859783Y-127249731D01*
X182859843Y-127180738D01*
X182872725Y-127354169D01*
X182996394Y-127652734D01*
X183175007Y-127762861D01*
X183937868Y-127000000D01*
X183175007Y-126237139D01*
X182996394Y-126347266D01*
X182860210Y-126760207D01*
X182860217Y-126752450D01*
X182670316Y-126292857D01*
X182318993Y-125940919D01*
X181859731Y-125750217D01*
X181362450Y-125749783D01*
X180902857Y-125939684D01*
X180550919Y-126291007D01*
X180360217Y-126750269D01*
X180359783Y-127247550D01*
X180319784Y-127247550D01*
X180320217Y-126752450D01*
X180130316Y-126292857D01*
X179778993Y-125940919D01*
X179319731Y-125750217D01*
X178822450Y-125749783D01*
X178362857Y-125939684D01*
X178010919Y-126291007D01*
X177820217Y-126750269D01*
X177819783Y-127247550D01*
X177779784Y-127247550D01*
X177780217Y-126752450D01*
X177590316Y-126292857D01*
X177238993Y-125940919D01*
X176779731Y-125750217D01*
X176282450Y-125749783D01*
X175822857Y-125939684D01*
X175470919Y-126291007D01*
X175280217Y-126750269D01*
X175280157Y-126819262D01*
X175267275Y-126645831D01*
X175143606Y-126347266D01*
X174964993Y-126237139D01*
X174202132Y-127000000D01*
X173777868Y-127000000D01*
X173015007Y-126237139D01*
X172836394Y-126347266D01*
X172700210Y-126760207D01*
X172700217Y-126752450D01*
X172510316Y-126292857D01*
X172158993Y-125940919D01*
X171699731Y-125750217D01*
X171202450Y-125749783D01*
X170742857Y-125939684D01*
X170390919Y-126291007D01*
X170200217Y-126750269D01*
X170199783Y-127247550D01*
X170159784Y-127247550D01*
X170160217Y-126752450D01*
X169970316Y-126292857D01*
X169618993Y-125940919D01*
X169159731Y-125750217D01*
X168662450Y-125749783D01*
X168202857Y-125939684D01*
X167850919Y-126291007D01*
X167660217Y-126750269D01*
X167659783Y-127247550D01*
X167619784Y-127247550D01*
X167620217Y-126752450D01*
X167430316Y-126292857D01*
X167078993Y-125940919D01*
X166619731Y-125750217D01*
X166122450Y-125749783D01*
X165662857Y-125939684D01*
X165310919Y-126291007D01*
X165120217Y-126750269D01*
X165119783Y-127247550D01*
X164840000Y-127247550D01*
X164840000Y-124707550D01*
X165119783Y-124707550D01*
X165309684Y-125167143D01*
X165661007Y-125519081D01*
X166120269Y-125709783D01*
X166617550Y-125710217D01*
X167077143Y-125520316D01*
X167429081Y-125168993D01*
X167619783Y-124709731D01*
X167619784Y-124707550D01*
X167659783Y-124707550D01*
X167849684Y-125167143D01*
X168201007Y-125519081D01*
X168660269Y-125709783D01*
X169157550Y-125710217D01*
X169617143Y-125520316D01*
X169969081Y-125168993D01*
X170159783Y-124709731D01*
X170159784Y-124707550D01*
X170199783Y-124707550D01*
X170389684Y-125167143D01*
X170741007Y-125519081D01*
X171200269Y-125709783D01*
X171697550Y-125710217D01*
X172157143Y-125520316D01*
X172509081Y-125168993D01*
X172699783Y-124709731D01*
X172699784Y-124707550D01*
X172739783Y-124707550D01*
X172929684Y-125167143D01*
X173281007Y-125519081D01*
X173740269Y-125709783D01*
X173809262Y-125709843D01*
X173635831Y-125722725D01*
X173337266Y-125846394D01*
X173227139Y-126025007D01*
X173990000Y-126787868D01*
X174752861Y-126025007D01*
X174642734Y-125846394D01*
X174229793Y-125710210D01*
X174237550Y-125710217D01*
X174697143Y-125520316D01*
X175049081Y-125168993D01*
X175239783Y-124709731D01*
X175240217Y-124212450D01*
X175050316Y-123752857D01*
X174698993Y-123400919D01*
X174239731Y-123210217D01*
X173742450Y-123209783D01*
X173282857Y-123399684D01*
X172930919Y-123751007D01*
X172740217Y-124210269D01*
X172739783Y-124707550D01*
X172699784Y-124707550D01*
X172700217Y-124212450D01*
X172510316Y-123752857D01*
X172158993Y-123400919D01*
X171699731Y-123210217D01*
X171202450Y-123209783D01*
X170742857Y-123399684D01*
X170390919Y-123751007D01*
X170200217Y-124210269D01*
X170199783Y-124707550D01*
X170159784Y-124707550D01*
X170160217Y-124212450D01*
X169970316Y-123752857D01*
X169618993Y-123400919D01*
X169159731Y-123210217D01*
X168662450Y-123209783D01*
X168202857Y-123399684D01*
X167850919Y-123751007D01*
X167660217Y-124210269D01*
X167659783Y-124707550D01*
X167619784Y-124707550D01*
X167620217Y-124212450D01*
X167430316Y-123752857D01*
X167078993Y-123400919D01*
X166619731Y-123210217D01*
X166122450Y-123209783D01*
X165662857Y-123399684D01*
X165310919Y-123751007D01*
X165120217Y-124210269D01*
X165119783Y-124707550D01*
X164840000Y-124707550D01*
X164840000Y-122555000D01*
X164811455Y-122411494D01*
X164730165Y-122289835D01*
X164608506Y-122208545D01*
X164465000Y-122180000D01*
X134360000Y-122180000D01*
X134360000Y-117310000D01*
X139864123Y-117310000D01*
X139864123Y-118910000D01*
X139885042Y-119021173D01*
X139950745Y-119123279D01*
X140050997Y-119191778D01*
X140170000Y-119215877D01*
X141770000Y-119215877D01*
X141881173Y-119194958D01*
X141983279Y-119129255D01*
X142051778Y-119029003D01*
X142075877Y-118910000D01*
X142075877Y-117310000D01*
X142054958Y-117198827D01*
X141989255Y-117096721D01*
X141889003Y-117028222D01*
X141770000Y-117004123D01*
X140170000Y-117004123D01*
X140058827Y-117025042D01*
X139956721Y-117090745D01*
X139888222Y-117190997D01*
X139864123Y-117310000D01*
X134360000Y-117310000D01*
X134360000Y-111573850D01*
X135018282Y-111573850D01*
X135146851Y-111768052D01*
X135692510Y-111955157D01*
X136268234Y-111919204D01*
X136633149Y-111768052D01*
X136761718Y-111573850D01*
X135890000Y-110702132D01*
X135018282Y-111573850D01*
X134360000Y-111573850D01*
X134360000Y-110292510D01*
X134424843Y-110292510D01*
X134460796Y-110868234D01*
X134611948Y-111233149D01*
X134806150Y-111361718D01*
X135677868Y-110490000D01*
X136102132Y-110490000D01*
X136973850Y-111361718D01*
X137168052Y-111233149D01*
X137310914Y-110816516D01*
X139867328Y-110816516D01*
X139959400Y-111038835D01*
X140246357Y-111383797D01*
X140643482Y-111592687D01*
X140820000Y-111542690D01*
X140820000Y-110640000D01*
X141120000Y-110640000D01*
X141120000Y-111542690D01*
X141296518Y-111592687D01*
X141693643Y-111383797D01*
X141980600Y-111038835D01*
X142072672Y-110816516D01*
X142021858Y-110640000D01*
X141120000Y-110640000D01*
X140820000Y-110640000D01*
X139918142Y-110640000D01*
X139867328Y-110816516D01*
X137310914Y-110816516D01*
X137355157Y-110687490D01*
X137322434Y-110163484D01*
X139867328Y-110163484D01*
X139918142Y-110340000D01*
X140820000Y-110340000D01*
X140820000Y-109437310D01*
X141120000Y-109437310D01*
X141120000Y-110340000D01*
X142021858Y-110340000D01*
X142072672Y-110163484D01*
X141980600Y-109941165D01*
X141693643Y-109596203D01*
X141296518Y-109387313D01*
X141120000Y-109437310D01*
X140820000Y-109437310D01*
X140643482Y-109387313D01*
X140246357Y-109596203D01*
X139959400Y-109941165D01*
X139867328Y-110163484D01*
X137322434Y-110163484D01*
X137319204Y-110111766D01*
X137168052Y-109746851D01*
X136973850Y-109618282D01*
X136102132Y-110490000D01*
X135677868Y-110490000D01*
X134806150Y-109618282D01*
X134611948Y-109746851D01*
X134424843Y-110292510D01*
X134360000Y-110292510D01*
X134360000Y-109406150D01*
X135018282Y-109406150D01*
X135890000Y-110277868D01*
X136761718Y-109406150D01*
X136633149Y-109211948D01*
X136087490Y-109024843D01*
X135511766Y-109060796D01*
X135146851Y-109211948D01*
X135018282Y-109406150D01*
X134360000Y-109406150D01*
X134360000Y-105687256D01*
X134489757Y-105687256D01*
X134702445Y-106202000D01*
X135095928Y-106596170D01*
X135610301Y-106809757D01*
X136167256Y-106810243D01*
X136682000Y-106597555D01*
X137076170Y-106204072D01*
X137289757Y-105689699D01*
X137289944Y-105475000D01*
X138544123Y-105475000D01*
X138544123Y-106470000D01*
X138565042Y-106581173D01*
X138630745Y-106683279D01*
X138730997Y-106751778D01*
X138850000Y-106775877D01*
X141350000Y-106775877D01*
X141461173Y-106754958D01*
X141563279Y-106689255D01*
X141631778Y-106589003D01*
X141655877Y-106470000D01*
X141655877Y-103080000D01*
X141634958Y-102968827D01*
X141569255Y-102866721D01*
X141469003Y-102798222D01*
X141350000Y-102774123D01*
X138850000Y-102774123D01*
X138738827Y-102795042D01*
X138636721Y-102860745D01*
X138568222Y-102960997D01*
X138544123Y-103080000D01*
X138544123Y-104075000D01*
X136525005Y-104075000D01*
X136525000Y-104074999D01*
X136390215Y-104101810D01*
X136169699Y-104010243D01*
X135612744Y-104009757D01*
X135098000Y-104222445D01*
X134703830Y-104615928D01*
X134490243Y-105130301D01*
X134489757Y-105687256D01*
X134360000Y-105687256D01*
X134360000Y-99280000D01*
X146412893Y-99280000D01*
X143666447Y-102026447D01*
X143666447Y-102026447D01*
G37*
X143666447Y-102026447D02*
X143558060Y-102188658D01*
X143520000Y-102380000D01*
X143520000Y-108460000D01*
X143550223Y-108611940D01*
X143558060Y-108651342D01*
X143666447Y-108813553D01*
X147537211Y-112684317D01*
X147468450Y-113030000D01*
X147552183Y-113450952D01*
X147785410Y-113800000D01*
X141774590Y-113800000D01*
X142007817Y-113450952D01*
X142091550Y-113030000D01*
X142007817Y-112609048D01*
X141769367Y-112252183D01*
X141412502Y-112013733D01*
X140991550Y-111930000D01*
X140948450Y-111930000D01*
X140527498Y-112013733D01*
X140170633Y-112252183D01*
X139932183Y-112609048D01*
X139848450Y-113030000D01*
X139932183Y-113450952D01*
X140165410Y-113800000D01*
X137160000Y-113800000D01*
X137003282Y-113831173D01*
X136968658Y-113838060D01*
X136806446Y-113946447D01*
X136461488Y-114291405D01*
X136169699Y-114170243D01*
X135612744Y-114169757D01*
X135098000Y-114382445D01*
X134703830Y-114775928D01*
X134490243Y-115290301D01*
X134489757Y-115847256D01*
X134702445Y-116362000D01*
X135095928Y-116756170D01*
X135610301Y-116969757D01*
X136167256Y-116970243D01*
X136682000Y-116757555D01*
X137076170Y-116364072D01*
X137289757Y-115849699D01*
X137290243Y-115292744D01*
X137168647Y-114998460D01*
X137367107Y-114800000D01*
X140165410Y-114800000D01*
X139932183Y-115149048D01*
X139848450Y-115570000D01*
X139932183Y-115990952D01*
X140170633Y-116347817D01*
X140527498Y-116586267D01*
X140948450Y-116670000D01*
X140991550Y-116670000D01*
X141412502Y-116586267D01*
X141769367Y-116347817D01*
X142007817Y-115990952D01*
X142091550Y-115570000D01*
X142007817Y-115149048D01*
X141774590Y-114800000D01*
X147785410Y-114800000D01*
X147552183Y-115149048D01*
X147551396Y-115153003D01*
X147456446Y-115216447D01*
X146256447Y-116416447D01*
X146148060Y-116578658D01*
X146110000Y-116770000D01*
X146110000Y-119030000D01*
X146142812Y-119194958D01*
X146148060Y-119221342D01*
X146256447Y-119383553D01*
X148416449Y-121543555D01*
X148578660Y-121651942D01*
X148770002Y-121690002D01*
X175012896Y-121690002D01*
X176030000Y-122707106D01*
X176030000Y-123314094D01*
X175822857Y-123399684D01*
X175470919Y-123751007D01*
X175280217Y-124210269D01*
X175279783Y-124707550D01*
X175469684Y-125167143D01*
X175821007Y-125519081D01*
X176280269Y-125709783D01*
X176777550Y-125710217D01*
X177237143Y-125520316D01*
X177589081Y-125168993D01*
X177779783Y-124709731D01*
X177779784Y-124707550D01*
X177819783Y-124707550D01*
X178009684Y-125167143D01*
X178361007Y-125519081D01*
X178820269Y-125709783D01*
X179317550Y-125710217D01*
X179777143Y-125520316D01*
X180129081Y-125168993D01*
X180319783Y-124709731D01*
X180319784Y-124707550D01*
X180359783Y-124707550D01*
X180549684Y-125167143D01*
X180901007Y-125519081D01*
X181360269Y-125709783D01*
X181857550Y-125710217D01*
X182317143Y-125520316D01*
X182669081Y-125168993D01*
X182859783Y-124709731D01*
X182859784Y-124707550D01*
X182899783Y-124707550D01*
X183089684Y-125167143D01*
X183441007Y-125519081D01*
X183900269Y-125709783D01*
X183969262Y-125709843D01*
X183795831Y-125722725D01*
X183497266Y-125846394D01*
X183387139Y-126025007D01*
X184150000Y-126787868D01*
X184912861Y-126025007D01*
X184802734Y-125846394D01*
X184389793Y-125710210D01*
X184397550Y-125710217D01*
X184857143Y-125520316D01*
X185209081Y-125168993D01*
X185399783Y-124709731D01*
X185399784Y-124707550D01*
X185439783Y-124707550D01*
X185629684Y-125167143D01*
X185981007Y-125519081D01*
X186440269Y-125709783D01*
X186937550Y-125710217D01*
X187397143Y-125520316D01*
X187749081Y-125168993D01*
X187939783Y-124709731D01*
X187939784Y-124707550D01*
X187979783Y-124707550D01*
X188169684Y-125167143D01*
X188521007Y-125519081D01*
X188980269Y-125709783D01*
X189477550Y-125710217D01*
X189937143Y-125520316D01*
X190289081Y-125168993D01*
X190479783Y-124709731D01*
X190480217Y-124212450D01*
X190290316Y-123752857D01*
X189938993Y-123400919D01*
X189479731Y-123210217D01*
X188982450Y-123209783D01*
X188522857Y-123399684D01*
X188170919Y-123751007D01*
X187980217Y-124210269D01*
X187979783Y-124707550D01*
X187939784Y-124707550D01*
X187940217Y-124212450D01*
X187750316Y-123752857D01*
X187398993Y-123400919D01*
X186939731Y-123210217D01*
X186442450Y-123209783D01*
X185982857Y-123399684D01*
X185630919Y-123751007D01*
X185440217Y-124210269D01*
X185439783Y-124707550D01*
X185399784Y-124707550D01*
X185400217Y-124212450D01*
X185210316Y-123752857D01*
X184858993Y-123400919D01*
X184399731Y-123210217D01*
X183902450Y-123209783D01*
X183442857Y-123399684D01*
X183090919Y-123751007D01*
X182900217Y-124210269D01*
X182899783Y-124707550D01*
X182859784Y-124707550D01*
X182860217Y-124212450D01*
X182670316Y-123752857D01*
X182318993Y-123400919D01*
X181859731Y-123210217D01*
X181362450Y-123209783D01*
X180902857Y-123399684D01*
X180550919Y-123751007D01*
X180360217Y-124210269D01*
X180359783Y-124707550D01*
X180319784Y-124707550D01*
X180320217Y-124212450D01*
X180130316Y-123752857D01*
X179778993Y-123400919D01*
X179319731Y-123210217D01*
X178822450Y-123209783D01*
X178362857Y-123399684D01*
X178010919Y-123751007D01*
X177820217Y-124210269D01*
X177819783Y-124707550D01*
X177779784Y-124707550D01*
X177780217Y-124212450D01*
X177590316Y-123752857D01*
X177238993Y-123400919D01*
X177030000Y-123314138D01*
X177030000Y-122500000D01*
X176991940Y-122308658D01*
X176883553Y-122146447D01*
X175573555Y-120836449D01*
X175411344Y-120728062D01*
X175220002Y-120690002D01*
X168467104Y-120690002D01*
X169673554Y-119483553D01*
X169781940Y-119321342D01*
X169820000Y-119130000D01*
X169820000Y-118192500D01*
X170250000Y-118192500D01*
X170250000Y-119024619D01*
X170303284Y-119153259D01*
X170401741Y-119251715D01*
X170530380Y-119305000D01*
X171212500Y-119305000D01*
X171300000Y-119217500D01*
X171300000Y-118105000D01*
X171600000Y-118105000D01*
X171600000Y-119217500D01*
X171687500Y-119305000D01*
X172369620Y-119305000D01*
X172498259Y-119251715D01*
X172596716Y-119153259D01*
X172650000Y-119024619D01*
X172650000Y-118192500D01*
X174695000Y-118192500D01*
X174695000Y-119024619D01*
X174748284Y-119153259D01*
X174846741Y-119251715D01*
X174975380Y-119305000D01*
X175657500Y-119305000D01*
X175745000Y-119217500D01*
X175745000Y-118105000D01*
X176045000Y-118105000D01*
X176045000Y-119217500D01*
X176132500Y-119305000D01*
X176814620Y-119305000D01*
X176943259Y-119251715D01*
X177041716Y-119153259D01*
X177095000Y-119024619D01*
X177095000Y-118192500D01*
X177090000Y-118187500D01*
X184850000Y-118187500D01*
X184850000Y-119019619D01*
X184903284Y-119148259D01*
X185001741Y-119246715D01*
X185130380Y-119300000D01*
X185812500Y-119300000D01*
X185900000Y-119212500D01*
X185900000Y-118100000D01*
X186200000Y-118100000D01*
X186200000Y-119212500D01*
X186287500Y-119300000D01*
X186969620Y-119300000D01*
X187098259Y-119246715D01*
X187196716Y-119148259D01*
X187250000Y-119019619D01*
X187250000Y-118187500D01*
X187162500Y-118100000D01*
X186200000Y-118100000D01*
X185900000Y-118100000D01*
X184937500Y-118100000D01*
X184850000Y-118187500D01*
X177090000Y-118187500D01*
X177007500Y-118105000D01*
X176045000Y-118105000D01*
X175745000Y-118105000D01*
X174782500Y-118105000D01*
X174695000Y-118192500D01*
X172650000Y-118192500D01*
X172562500Y-118105000D01*
X171600000Y-118105000D01*
X171300000Y-118105000D01*
X170337500Y-118105000D01*
X170250000Y-118192500D01*
X169820000Y-118192500D01*
X169820000Y-116885381D01*
X170250000Y-116885381D01*
X170250000Y-117717500D01*
X170337500Y-117805000D01*
X171300000Y-117805000D01*
X171300000Y-116692500D01*
X171600000Y-116692500D01*
X171600000Y-117805000D01*
X172562500Y-117805000D01*
X172650000Y-117717500D01*
X172650000Y-116885381D01*
X174695000Y-116885381D01*
X174695000Y-117717500D01*
X174782500Y-117805000D01*
X175745000Y-117805000D01*
X175745000Y-116692500D01*
X176045000Y-116692500D01*
X176045000Y-117805000D01*
X177007500Y-117805000D01*
X177095000Y-117717500D01*
X177095000Y-116885381D01*
X177041716Y-116756741D01*
X176943259Y-116658285D01*
X176814620Y-116605000D01*
X176132500Y-116605000D01*
X176045000Y-116692500D01*
X175745000Y-116692500D01*
X175657500Y-116605000D01*
X174975380Y-116605000D01*
X174846741Y-116658285D01*
X174748284Y-116756741D01*
X174695000Y-116885381D01*
X172650000Y-116885381D01*
X172596716Y-116756741D01*
X172498259Y-116658285D01*
X172369620Y-116605000D01*
X171687500Y-116605000D01*
X171600000Y-116692500D01*
X171300000Y-116692500D01*
X171212500Y-116605000D01*
X170530380Y-116605000D01*
X170401741Y-116658285D01*
X170303284Y-116756741D01*
X170250000Y-116885381D01*
X169820000Y-116885381D01*
X169820000Y-116600000D01*
X169781940Y-116408658D01*
X169714722Y-116308060D01*
X169673554Y-116246447D01*
X168295877Y-114868771D01*
X168295877Y-113420000D01*
X168274958Y-113308827D01*
X168209255Y-113206721D01*
X168109003Y-113138222D01*
X167990000Y-113114123D01*
X167640000Y-113114123D01*
X167640000Y-109867106D01*
X167642106Y-109865000D01*
X168024123Y-109865000D01*
X168024123Y-111115000D01*
X168045042Y-111226173D01*
X168110745Y-111328279D01*
X168210997Y-111396778D01*
X168330000Y-111420877D01*
X168580000Y-111420877D01*
X168580000Y-112085000D01*
X168613255Y-112252183D01*
X168618060Y-112276342D01*
X168726447Y-112438553D01*
X170294123Y-114006229D01*
X170294123Y-115455000D01*
X170315042Y-115566173D01*
X170380745Y-115668279D01*
X170480997Y-115736778D01*
X170600000Y-115760877D01*
X172300000Y-115760877D01*
X172411173Y-115739958D01*
X172513279Y-115674255D01*
X172581778Y-115574003D01*
X172605877Y-115455000D01*
X172605877Y-113455000D01*
X174739123Y-113455000D01*
X174739123Y-115455000D01*
X174760042Y-115566173D01*
X174825745Y-115668279D01*
X174925997Y-115736778D01*
X175045000Y-115760877D01*
X176745000Y-115760877D01*
X176856173Y-115739958D01*
X176958279Y-115674255D01*
X177026778Y-115574003D01*
X177050877Y-115455000D01*
X177050877Y-114800000D01*
X177919123Y-114800000D01*
X177919123Y-115150000D01*
X177940042Y-115261173D01*
X178005745Y-115363279D01*
X178105997Y-115431778D01*
X178225000Y-115455877D01*
X178725000Y-115455877D01*
X178725000Y-115799834D01*
X178581000Y-115859334D01*
X178285372Y-116154446D01*
X178125182Y-116540226D01*
X178124818Y-116957942D01*
X178284334Y-117344000D01*
X178579446Y-117639628D01*
X178965226Y-117799818D01*
X179382942Y-117800182D01*
X179769000Y-117640666D01*
X180064628Y-117345554D01*
X180224818Y-116959774D01*
X180224887Y-116880381D01*
X184850000Y-116880381D01*
X184850000Y-117712500D01*
X184937500Y-117800000D01*
X185900000Y-117800000D01*
X185900000Y-116687500D01*
X186200000Y-116687500D01*
X186200000Y-117800000D01*
X187162500Y-117800000D01*
X187250000Y-117712500D01*
X187250000Y-116880381D01*
X187196716Y-116751741D01*
X187098259Y-116653285D01*
X186969620Y-116600000D01*
X186287500Y-116600000D01*
X186200000Y-116687500D01*
X185900000Y-116687500D01*
X185812500Y-116600000D01*
X185130380Y-116600000D01*
X185001741Y-116653285D01*
X184903284Y-116751741D01*
X184850000Y-116880381D01*
X180224887Y-116880381D01*
X180225182Y-116542058D01*
X180065666Y-116156000D01*
X179770554Y-115860372D01*
X179725000Y-115841456D01*
X179725000Y-115455877D01*
X180225000Y-115455877D01*
X180336173Y-115434958D01*
X180438279Y-115369255D01*
X180506778Y-115269003D01*
X180530877Y-115150000D01*
X180530877Y-113450000D01*
X181419123Y-113450000D01*
X181419123Y-115150000D01*
X181440042Y-115261173D01*
X181505745Y-115363279D01*
X181605997Y-115431778D01*
X181725000Y-115455877D01*
X183725000Y-115455877D01*
X183836173Y-115434958D01*
X183938279Y-115369255D01*
X184006778Y-115269003D01*
X184030877Y-115150000D01*
X184030877Y-114800000D01*
X184894123Y-114800000D01*
X184894123Y-115450000D01*
X184915042Y-115561173D01*
X184980745Y-115663279D01*
X185080997Y-115731778D01*
X185200000Y-115755877D01*
X186900000Y-115755877D01*
X187011173Y-115734958D01*
X187113279Y-115669255D01*
X187181778Y-115569003D01*
X187205877Y-115450000D01*
X187205877Y-114955000D01*
X188692894Y-114955000D01*
X191054967Y-117317073D01*
X191034123Y-117420000D01*
X191034123Y-119770000D01*
X191055042Y-119881173D01*
X191120745Y-119983279D01*
X191130000Y-119989603D01*
X191130000Y-125665000D01*
X189865005Y-125665000D01*
X189865000Y-125664999D01*
X189597121Y-125718284D01*
X189522655Y-125768041D01*
X189479731Y-125750217D01*
X188982450Y-125749783D01*
X188522857Y-125939684D01*
X188170919Y-126291007D01*
X188167185Y-126300000D01*
X187753267Y-126300000D01*
X187750316Y-126292857D01*
X187398993Y-125940919D01*
X186939731Y-125750217D01*
X186442450Y-125749783D01*
X185982857Y-125939684D01*
X185630919Y-126291007D01*
X185440217Y-126750269D01*
X185440157Y-126819262D01*
X185427275Y-126645831D01*
X185303606Y-126347266D01*
X185124993Y-126237139D01*
X184362132Y-127000000D01*
X185124993Y-127762861D01*
X185303606Y-127652734D01*
X185439790Y-127239793D01*
X185439783Y-127247550D01*
X185629684Y-127707143D01*
X185981007Y-128059081D01*
X186440269Y-128249783D01*
X186937550Y-128250217D01*
X187397143Y-128060316D01*
X187749081Y-127708993D01*
X187752815Y-127700000D01*
X188166733Y-127700000D01*
X188169684Y-127707143D01*
X188521007Y-128059081D01*
X188980269Y-128249783D01*
X189477550Y-128250217D01*
X189937143Y-128060316D01*
X190289081Y-127708993D01*
X190479783Y-127249731D01*
X190479944Y-127065000D01*
X193084431Y-127065000D01*
X193122445Y-127157000D01*
X193515928Y-127551170D01*
X194030301Y-127764757D01*
X194587256Y-127765243D01*
X195102000Y-127552555D01*
X195496170Y-127159072D01*
X195709757Y-126644699D01*
X195710243Y-126087744D01*
X195497555Y-125573000D01*
X195104072Y-125178830D01*
X194589699Y-124965243D01*
X194032744Y-124964757D01*
X193518000Y-125177445D01*
X193123830Y-125570928D01*
X193084768Y-125665000D01*
X192530000Y-125665000D01*
X192530000Y-123638850D01*
X193438282Y-123638850D01*
X193566851Y-123833052D01*
X194112510Y-124020157D01*
X194688234Y-123984204D01*
X195053149Y-123833052D01*
X195181718Y-123638850D01*
X194310000Y-122767132D01*
X193438282Y-123638850D01*
X192530000Y-123638850D01*
X192530000Y-122357510D01*
X192844843Y-122357510D01*
X192880796Y-122933234D01*
X193031948Y-123298149D01*
X193226150Y-123426718D01*
X194097868Y-122555000D01*
X194522132Y-122555000D01*
X195393850Y-123426718D01*
X195588052Y-123298149D01*
X195775157Y-122752490D01*
X195739204Y-122176766D01*
X195588052Y-121811851D01*
X195393850Y-121683282D01*
X194522132Y-122555000D01*
X194097868Y-122555000D01*
X193226150Y-121683282D01*
X193031948Y-121811851D01*
X192844843Y-122357510D01*
X192530000Y-122357510D01*
X192530000Y-121471150D01*
X193438282Y-121471150D01*
X194310000Y-122342868D01*
X195181718Y-121471150D01*
X195053149Y-121276948D01*
X194507490Y-121089843D01*
X193931766Y-121125796D01*
X193566851Y-121276948D01*
X193438282Y-121471150D01*
X192530000Y-121471150D01*
X192530000Y-120094950D01*
X192549073Y-120075877D01*
X194740000Y-120075877D01*
X194851173Y-120054958D01*
X194953279Y-119989255D01*
X195021778Y-119889003D01*
X195045877Y-119770000D01*
X195045877Y-117420000D01*
X195024958Y-117308827D01*
X194959255Y-117206721D01*
X194859003Y-117138222D01*
X194740000Y-117114123D01*
X192266229Y-117114123D01*
X189253553Y-114101447D01*
X189091342Y-113993060D01*
X188900000Y-113955000D01*
X187205877Y-113955000D01*
X187205877Y-113450000D01*
X187184958Y-113338827D01*
X187119255Y-113236721D01*
X187019003Y-113168222D01*
X186900000Y-113144123D01*
X185200000Y-113144123D01*
X185088827Y-113165042D01*
X184986721Y-113230745D01*
X184918222Y-113330997D01*
X184894123Y-113450000D01*
X184894123Y-113800000D01*
X184030877Y-113800000D01*
X184030877Y-113450000D01*
X184009958Y-113338827D01*
X183944255Y-113236721D01*
X183844003Y-113168222D01*
X183725000Y-113144123D01*
X181725000Y-113144123D01*
X181613827Y-113165042D01*
X181511721Y-113230745D01*
X181443222Y-113330997D01*
X181419123Y-113450000D01*
X180530877Y-113450000D01*
X180509958Y-113338827D01*
X180444255Y-113236721D01*
X180344003Y-113168222D01*
X180225000Y-113144123D01*
X178225000Y-113144123D01*
X178113827Y-113165042D01*
X178011721Y-113230745D01*
X177943222Y-113330997D01*
X177919123Y-113450000D01*
X177919123Y-113800000D01*
X177050877Y-113800000D01*
X177050877Y-113455000D01*
X177029958Y-113343827D01*
X176964255Y-113241721D01*
X176864003Y-113173222D01*
X176745000Y-113149123D01*
X175045000Y-113149123D01*
X174933827Y-113170042D01*
X174831721Y-113235745D01*
X174763222Y-113335997D01*
X174739123Y-113455000D01*
X172605877Y-113455000D01*
X172584958Y-113343827D01*
X172519255Y-113241721D01*
X172419003Y-113173222D01*
X172300000Y-113149123D01*
X170851229Y-113149123D01*
X169580000Y-111877894D01*
X169580000Y-111420877D01*
X169830000Y-111420877D01*
X169941173Y-111399958D01*
X170043279Y-111334255D01*
X170111778Y-111234003D01*
X170135877Y-111115000D01*
X170135877Y-109865000D01*
X170224123Y-109865000D01*
X170224123Y-111115000D01*
X170245042Y-111226173D01*
X170310745Y-111328279D01*
X170410997Y-111396778D01*
X170530000Y-111420877D01*
X172030000Y-111420877D01*
X172079463Y-111411570D01*
X172514186Y-111846293D01*
X172475182Y-111940226D01*
X172474818Y-112357942D01*
X172634334Y-112744000D01*
X172929446Y-113039628D01*
X173315226Y-113199818D01*
X173732942Y-113200182D01*
X174119000Y-113040666D01*
X174414628Y-112745554D01*
X174574818Y-112359774D01*
X174575182Y-111942058D01*
X174415666Y-111556000D01*
X174120554Y-111260372D01*
X173734774Y-111100182D01*
X173317058Y-111099818D01*
X173221435Y-111139329D01*
X172335877Y-110253771D01*
X172335877Y-109865000D01*
X172314958Y-109753827D01*
X172249255Y-109651721D01*
X172149003Y-109583222D01*
X172030000Y-109559123D01*
X170530000Y-109559123D01*
X170418827Y-109580042D01*
X170316721Y-109645745D01*
X170248222Y-109745997D01*
X170224123Y-109865000D01*
X170135877Y-109865000D01*
X170114958Y-109753827D01*
X170049255Y-109651721D01*
X169949003Y-109583222D01*
X169830000Y-109559123D01*
X168330000Y-109559123D01*
X168218827Y-109580042D01*
X168116721Y-109645745D01*
X168048222Y-109745997D01*
X168024123Y-109865000D01*
X167642106Y-109865000D01*
X168857107Y-108650000D01*
X169444000Y-108650000D01*
X169635342Y-108611940D01*
X169797553Y-108503553D01*
X170597229Y-107703877D01*
X172046000Y-107703877D01*
X172157173Y-107682958D01*
X172259279Y-107617255D01*
X172327778Y-107517003D01*
X172351877Y-107398000D01*
X172351877Y-105398000D01*
X172330958Y-105286827D01*
X172265255Y-105184721D01*
X172165003Y-105116222D01*
X172046000Y-105092123D01*
X170597230Y-105092123D01*
X168807553Y-103302447D01*
X168787877Y-103289300D01*
X168787877Y-103135500D01*
X169996000Y-103135500D01*
X169996000Y-103967619D01*
X170049284Y-104096259D01*
X170147741Y-104194715D01*
X170276380Y-104248000D01*
X170958500Y-104248000D01*
X171046000Y-104160500D01*
X171046000Y-103048000D01*
X171346000Y-103048000D01*
X171346000Y-104160500D01*
X171433500Y-104248000D01*
X172115620Y-104248000D01*
X172244259Y-104194715D01*
X172342716Y-104096259D01*
X172396000Y-103967619D01*
X172396000Y-103135500D01*
X172308500Y-103048000D01*
X171346000Y-103048000D01*
X171046000Y-103048000D01*
X170083500Y-103048000D01*
X169996000Y-103135500D01*
X168787877Y-103135500D01*
X168787877Y-102706000D01*
X168766958Y-102594827D01*
X168701255Y-102492721D01*
X168601003Y-102424222D01*
X168482000Y-102400123D01*
X167682000Y-102400123D01*
X167570827Y-102421042D01*
X167468721Y-102486745D01*
X167400222Y-102586997D01*
X167376123Y-102706000D01*
X167376123Y-104606000D01*
X167397042Y-104717173D01*
X167462745Y-104819279D01*
X167562997Y-104887778D01*
X167682000Y-104911877D01*
X168482000Y-104911877D01*
X168593173Y-104890958D01*
X168695279Y-104825255D01*
X168763778Y-104725003D01*
X168772555Y-104681661D01*
X170040123Y-105949230D01*
X170040123Y-106846770D01*
X169236894Y-107650000D01*
X168650000Y-107650000D01*
X168484308Y-107682958D01*
X168458658Y-107688060D01*
X168296446Y-107796447D01*
X166786447Y-109306447D01*
X166678060Y-109468658D01*
X166640000Y-109660000D01*
X166640000Y-113114123D01*
X166290000Y-113114123D01*
X166178827Y-113135042D01*
X166076721Y-113200745D01*
X166008222Y-113300997D01*
X165984123Y-113420000D01*
X165984123Y-115420000D01*
X166005042Y-115531173D01*
X166070745Y-115633279D01*
X166170997Y-115701778D01*
X166290000Y-115725877D01*
X167738771Y-115725877D01*
X168820000Y-116807107D01*
X168820000Y-118922893D01*
X167652894Y-120090000D01*
X151587107Y-120090000D01*
X149694222Y-118197115D01*
X149711550Y-118110000D01*
X149627817Y-117689048D01*
X149389367Y-117332183D01*
X149032502Y-117093733D01*
X148611550Y-117010000D01*
X148568450Y-117010000D01*
X148147498Y-117093733D01*
X147790633Y-117332183D01*
X147552183Y-117689048D01*
X147468450Y-118110000D01*
X147552183Y-118530952D01*
X147790633Y-118887817D01*
X148147498Y-119126267D01*
X148568450Y-119210000D01*
X148611550Y-119210000D01*
X149032502Y-119126267D01*
X149138401Y-119055507D01*
X150772895Y-120690002D01*
X148977108Y-120690002D01*
X147110000Y-118822894D01*
X147110000Y-116977106D01*
X147770068Y-116317039D01*
X147790633Y-116347817D01*
X148147498Y-116586267D01*
X148568450Y-116670000D01*
X148611550Y-116670000D01*
X149032502Y-116586267D01*
X149389367Y-116347817D01*
X149574999Y-116070000D01*
X149807894Y-116070000D01*
X151249123Y-117511230D01*
X151249123Y-118960000D01*
X151270042Y-119071173D01*
X151335745Y-119173279D01*
X151435997Y-119241778D01*
X151555000Y-119265877D01*
X153555000Y-119265877D01*
X153666173Y-119244958D01*
X153768279Y-119179255D01*
X153836778Y-119079003D01*
X153860877Y-118960000D01*
X153860877Y-118347500D01*
X154705000Y-118347500D01*
X154705000Y-119029620D01*
X154758285Y-119158259D01*
X154856741Y-119256716D01*
X154985381Y-119310000D01*
X155817500Y-119310000D01*
X155905000Y-119222500D01*
X155905000Y-118260000D01*
X156205000Y-118260000D01*
X156205000Y-119222500D01*
X156292500Y-119310000D01*
X157124619Y-119310000D01*
X157253259Y-119256716D01*
X157351715Y-119158259D01*
X157405000Y-119029620D01*
X157405000Y-118347500D01*
X157317500Y-118260000D01*
X156205000Y-118260000D01*
X155905000Y-118260000D01*
X154792500Y-118260000D01*
X154705000Y-118347500D01*
X153860877Y-118347500D01*
X153860877Y-117260000D01*
X153847777Y-117190380D01*
X154705000Y-117190380D01*
X154705000Y-117872500D01*
X154792500Y-117960000D01*
X155905000Y-117960000D01*
X155905000Y-116997500D01*
X156205000Y-116997500D01*
X156205000Y-117960000D01*
X157317500Y-117960000D01*
X157405000Y-117872500D01*
X157405000Y-117190380D01*
X157351715Y-117061741D01*
X157253259Y-116963284D01*
X157124619Y-116910000D01*
X156292500Y-116910000D01*
X156205000Y-116997500D01*
X155905000Y-116997500D01*
X155817500Y-116910000D01*
X154985381Y-116910000D01*
X154856741Y-116963284D01*
X154758285Y-117061741D01*
X154705000Y-117190380D01*
X153847777Y-117190380D01*
X153839958Y-117148827D01*
X153774255Y-117046721D01*
X153674003Y-116978222D01*
X153555000Y-116954123D01*
X152106230Y-116954123D01*
X151982107Y-116830000D01*
X153580000Y-116830000D01*
X153771342Y-116791940D01*
X153933553Y-116683553D01*
X154623553Y-115993554D01*
X154731940Y-115831342D01*
X154743345Y-115774003D01*
X154770000Y-115640000D01*
X154770000Y-115359974D01*
X154856741Y-115446716D01*
X154985381Y-115500000D01*
X155817500Y-115500000D01*
X155905000Y-115412500D01*
X155905000Y-114450000D01*
X156205000Y-114450000D01*
X156205000Y-115412500D01*
X156292500Y-115500000D01*
X157124619Y-115500000D01*
X157253259Y-115446716D01*
X157351715Y-115348259D01*
X157405000Y-115219620D01*
X157405000Y-114537500D01*
X157317500Y-114450000D01*
X156205000Y-114450000D01*
X155905000Y-114450000D01*
X155885000Y-114450000D01*
X155885000Y-114150000D01*
X155905000Y-114150000D01*
X155905000Y-113187500D01*
X156205000Y-113187500D01*
X156205000Y-114150000D01*
X157317500Y-114150000D01*
X157405000Y-114062500D01*
X157405000Y-113380380D01*
X157351715Y-113251741D01*
X157253259Y-113153284D01*
X157124619Y-113100000D01*
X156292500Y-113100000D01*
X156205000Y-113187500D01*
X155905000Y-113187500D01*
X155817500Y-113100000D01*
X154985381Y-113100000D01*
X154856741Y-113153284D01*
X154770000Y-113240026D01*
X154770000Y-112205000D01*
X154731940Y-112013658D01*
X154623553Y-111851446D01*
X153860877Y-111088770D01*
X153860877Y-109640000D01*
X154749123Y-109640000D01*
X154749123Y-111340000D01*
X154770042Y-111451173D01*
X154835745Y-111553279D01*
X154935997Y-111621778D01*
X155055000Y-111645877D01*
X156118771Y-111645877D01*
X158990000Y-114517107D01*
X158990000Y-116220000D01*
X159025097Y-116396447D01*
X159028060Y-116411342D01*
X159136447Y-116573553D01*
X160269123Y-117706229D01*
X160269123Y-118655000D01*
X160290042Y-118766173D01*
X160355745Y-118868279D01*
X160455997Y-118936778D01*
X160575000Y-118960877D01*
X161375000Y-118960877D01*
X161486173Y-118939958D01*
X161588279Y-118874255D01*
X161656778Y-118774003D01*
X161680877Y-118655000D01*
X161680877Y-117942500D01*
X162125000Y-117942500D01*
X162125000Y-118724619D01*
X162178284Y-118853259D01*
X162276741Y-118951715D01*
X162405380Y-119005000D01*
X162637500Y-119005000D01*
X162725000Y-118917500D01*
X162725000Y-117855000D01*
X163025000Y-117855000D01*
X163025000Y-118917500D01*
X163112500Y-119005000D01*
X163344620Y-119005000D01*
X163473259Y-118951715D01*
X163571716Y-118853259D01*
X163625000Y-118724619D01*
X163625000Y-117942500D01*
X163537500Y-117855000D01*
X163025000Y-117855000D01*
X162725000Y-117855000D01*
X162212500Y-117855000D01*
X162125000Y-117942500D01*
X161680877Y-117942500D01*
X161680877Y-116755000D01*
X161667778Y-116685381D01*
X162125000Y-116685381D01*
X162125000Y-117467500D01*
X162212500Y-117555000D01*
X162725000Y-117555000D01*
X162725000Y-116492500D01*
X163025000Y-116492500D01*
X163025000Y-117555000D01*
X163537500Y-117555000D01*
X163625000Y-117467500D01*
X163625000Y-116685381D01*
X163571716Y-116556741D01*
X163473259Y-116458285D01*
X163344620Y-116405000D01*
X163112500Y-116405000D01*
X163025000Y-116492500D01*
X162725000Y-116492500D01*
X162637500Y-116405000D01*
X162405380Y-116405000D01*
X162276741Y-116458285D01*
X162178284Y-116556741D01*
X162125000Y-116685381D01*
X161667778Y-116685381D01*
X161659958Y-116643827D01*
X161594255Y-116541721D01*
X161494003Y-116473222D01*
X161375000Y-116449123D01*
X160575000Y-116449123D01*
X160463827Y-116470042D01*
X160453678Y-116476572D01*
X159990000Y-116012894D01*
X159990000Y-114310000D01*
X159951940Y-114118658D01*
X159889945Y-114025877D01*
X159843554Y-113956447D01*
X157338349Y-111451243D01*
X157360877Y-111340000D01*
X157360877Y-109640000D01*
X157339958Y-109528827D01*
X157274255Y-109426721D01*
X157174003Y-109358222D01*
X157055000Y-109334123D01*
X155055000Y-109334123D01*
X154943827Y-109355042D01*
X154841721Y-109420745D01*
X154773222Y-109520997D01*
X154749123Y-109640000D01*
X153860877Y-109640000D01*
X153839958Y-109528827D01*
X153827555Y-109509551D01*
X154447106Y-108890000D01*
X158502894Y-108890000D01*
X159504123Y-109891230D01*
X159504123Y-111340000D01*
X159525042Y-111451173D01*
X159590745Y-111553279D01*
X159690997Y-111621778D01*
X159810000Y-111645877D01*
X161810000Y-111645877D01*
X161921173Y-111624958D01*
X162023279Y-111559255D01*
X162091778Y-111459003D01*
X162115877Y-111340000D01*
X162115877Y-109752984D01*
X162190000Y-109827107D01*
X162190000Y-113449123D01*
X161525000Y-113449123D01*
X161413827Y-113470042D01*
X161311721Y-113535745D01*
X161243222Y-113635997D01*
X161219123Y-113755000D01*
X161219123Y-115655000D01*
X161240042Y-115766173D01*
X161305745Y-115868279D01*
X161405997Y-115936778D01*
X161525000Y-115960877D01*
X162325000Y-115960877D01*
X162436173Y-115939958D01*
X162538279Y-115874255D01*
X162606778Y-115774003D01*
X162630877Y-115655000D01*
X162630877Y-115205000D01*
X163067894Y-115205000D01*
X165984123Y-118121230D01*
X165984123Y-118920000D01*
X166005042Y-119031173D01*
X166070745Y-119133279D01*
X166170997Y-119201778D01*
X166290000Y-119225877D01*
X167990000Y-119225877D01*
X168101173Y-119204958D01*
X168203279Y-119139255D01*
X168271778Y-119039003D01*
X168295877Y-118920000D01*
X168295877Y-116920000D01*
X168274958Y-116808827D01*
X168209255Y-116706721D01*
X168109003Y-116638222D01*
X167990000Y-116614123D01*
X166290000Y-116614123D01*
X166178827Y-116635042D01*
X166076721Y-116700745D01*
X166036588Y-116759481D01*
X163628553Y-114351447D01*
X163466342Y-114243060D01*
X163275000Y-114205000D01*
X163102723Y-114205000D01*
X163151940Y-114131342D01*
X163172918Y-114025877D01*
X163190000Y-113940000D01*
X163190000Y-111669132D01*
X163240381Y-111690000D01*
X164072500Y-111690000D01*
X164160000Y-111602500D01*
X164160000Y-110640000D01*
X164460000Y-110640000D01*
X164460000Y-111602500D01*
X164547500Y-111690000D01*
X165379619Y-111690000D01*
X165508259Y-111636716D01*
X165606715Y-111538259D01*
X165660000Y-111409620D01*
X165660000Y-110727500D01*
X165572500Y-110640000D01*
X164460000Y-110640000D01*
X164160000Y-110640000D01*
X164140000Y-110640000D01*
X164140000Y-110340000D01*
X164160000Y-110340000D01*
X164160000Y-109377500D01*
X164460000Y-109377500D01*
X164460000Y-110340000D01*
X165572500Y-110340000D01*
X165660000Y-110252500D01*
X165660000Y-109570380D01*
X165606715Y-109441741D01*
X165508259Y-109343284D01*
X165379619Y-109290000D01*
X164547500Y-109290000D01*
X164460000Y-109377500D01*
X164160000Y-109377500D01*
X164072500Y-109290000D01*
X163240381Y-109290000D01*
X163111741Y-109343284D01*
X163101642Y-109353383D01*
X163043553Y-109266446D01*
X161173553Y-107396447D01*
X161011342Y-107288060D01*
X160820000Y-107250000D01*
X151330000Y-107250000D01*
X151138658Y-107288060D01*
X150976446Y-107396447D01*
X148921284Y-109451610D01*
X148611550Y-109390000D01*
X148568450Y-109390000D01*
X148147498Y-109473733D01*
X147790633Y-109712183D01*
X147552183Y-110069048D01*
X147468450Y-110490000D01*
X147552183Y-110910952D01*
X147790633Y-111267817D01*
X148147498Y-111506267D01*
X148568450Y-111590000D01*
X148611550Y-111590000D01*
X149032502Y-111506267D01*
X149389367Y-111267817D01*
X149627817Y-110910952D01*
X149711550Y-110490000D01*
X149642789Y-110144317D01*
X151537107Y-108250000D01*
X153672894Y-108250000D01*
X152588771Y-109334123D01*
X151555000Y-109334123D01*
X151443827Y-109355042D01*
X151341721Y-109420745D01*
X151273222Y-109520997D01*
X151249123Y-109640000D01*
X151249123Y-111340000D01*
X151270042Y-111451173D01*
X151335745Y-111553279D01*
X151435997Y-111621778D01*
X151555000Y-111645877D01*
X153003771Y-111645877D01*
X153770000Y-112412107D01*
X153770000Y-113233814D01*
X153674003Y-113168222D01*
X153555000Y-113144123D01*
X152106229Y-113144123D01*
X151638553Y-112676447D01*
X151476342Y-112568060D01*
X151285000Y-112530000D01*
X149574999Y-112530000D01*
X149389367Y-112252183D01*
X149032502Y-112013733D01*
X148611550Y-111930000D01*
X148568450Y-111930000D01*
X148258716Y-111991610D01*
X144520000Y-108252894D01*
X144520000Y-103080000D01*
X145364123Y-103080000D01*
X145364123Y-106470000D01*
X145385042Y-106581173D01*
X145450745Y-106683279D01*
X145550997Y-106751778D01*
X145670000Y-106775877D01*
X148170000Y-106775877D01*
X148281173Y-106754958D01*
X148383279Y-106689255D01*
X148451778Y-106589003D01*
X148475877Y-106470000D01*
X148475877Y-105475000D01*
X149499123Y-105475000D01*
X149499123Y-106525000D01*
X149520042Y-106636173D01*
X149585745Y-106738279D01*
X149685997Y-106806778D01*
X149805000Y-106830877D01*
X153305000Y-106830877D01*
X153416173Y-106809958D01*
X153518279Y-106744255D01*
X153586778Y-106644003D01*
X153610877Y-106525000D01*
X153610877Y-103025000D01*
X154999123Y-103025000D01*
X154999123Y-106525000D01*
X155020042Y-106636173D01*
X155085745Y-106738279D01*
X155185997Y-106806778D01*
X155305000Y-106830877D01*
X158805000Y-106830877D01*
X158916173Y-106809958D01*
X159018279Y-106744255D01*
X159086778Y-106644003D01*
X159110877Y-106525000D01*
X159110877Y-105275000D01*
X161237894Y-105275000D01*
X161912123Y-105949230D01*
X161912123Y-107398000D01*
X161933042Y-107509173D01*
X161998745Y-107611279D01*
X162098997Y-107679778D01*
X162218000Y-107703877D01*
X163918000Y-107703877D01*
X164029173Y-107682958D01*
X164131279Y-107617255D01*
X164199778Y-107517003D01*
X164223877Y-107398000D01*
X164223877Y-106893500D01*
X166382000Y-106893500D01*
X166382000Y-107675619D01*
X166435284Y-107804259D01*
X166533741Y-107902715D01*
X166662380Y-107956000D01*
X166894500Y-107956000D01*
X166982000Y-107868500D01*
X166982000Y-106806000D01*
X167282000Y-106806000D01*
X167282000Y-107868500D01*
X167369500Y-107956000D01*
X167601620Y-107956000D01*
X167730259Y-107902715D01*
X167828716Y-107804259D01*
X167882000Y-107675619D01*
X167882000Y-106893500D01*
X167794500Y-106806000D01*
X167282000Y-106806000D01*
X166982000Y-106806000D01*
X166469500Y-106806000D01*
X166382000Y-106893500D01*
X164223877Y-106893500D01*
X164223877Y-106321229D01*
X164908725Y-105636381D01*
X166382000Y-105636381D01*
X166382000Y-106418500D01*
X166469500Y-106506000D01*
X166982000Y-106506000D01*
X166982000Y-105443500D01*
X167282000Y-105443500D01*
X167282000Y-106506000D01*
X167794500Y-106506000D01*
X167882000Y-106418500D01*
X167882000Y-105636381D01*
X167828716Y-105507741D01*
X167730259Y-105409285D01*
X167601620Y-105356000D01*
X167369500Y-105356000D01*
X167282000Y-105443500D01*
X166982000Y-105443500D01*
X166894500Y-105356000D01*
X166662380Y-105356000D01*
X166533741Y-105409285D01*
X166435284Y-105507741D01*
X166382000Y-105636381D01*
X164908725Y-105636381D01*
X165659630Y-104885477D01*
X165662997Y-104887778D01*
X165782000Y-104911877D01*
X166582000Y-104911877D01*
X166693173Y-104890958D01*
X166795279Y-104825255D01*
X166863778Y-104725003D01*
X166887877Y-104606000D01*
X166887877Y-102706000D01*
X166866958Y-102594827D01*
X166801255Y-102492721D01*
X166701003Y-102424222D01*
X166582000Y-102400123D01*
X165782000Y-102400123D01*
X165670827Y-102421042D01*
X165568721Y-102486745D01*
X165500222Y-102586997D01*
X165476123Y-102706000D01*
X165476123Y-103654770D01*
X164018432Y-105112461D01*
X163918000Y-105092123D01*
X162469229Y-105092123D01*
X161798553Y-104421447D01*
X161636342Y-104313060D01*
X161606484Y-104307121D01*
X161445000Y-104275000D01*
X159110877Y-104275000D01*
X159110877Y-103135500D01*
X161868000Y-103135500D01*
X161868000Y-103967619D01*
X161921284Y-104096259D01*
X162019741Y-104194715D01*
X162148380Y-104248000D01*
X162830500Y-104248000D01*
X162918000Y-104160500D01*
X162918000Y-103048000D01*
X163218000Y-103048000D01*
X163218000Y-104160500D01*
X163305500Y-104248000D01*
X163987620Y-104248000D01*
X164116259Y-104194715D01*
X164214716Y-104096259D01*
X164268000Y-103967619D01*
X164268000Y-103135500D01*
X164180500Y-103048000D01*
X163218000Y-103048000D01*
X162918000Y-103048000D01*
X161955500Y-103048000D01*
X161868000Y-103135500D01*
X159110877Y-103135500D01*
X159110877Y-103025000D01*
X159089958Y-102913827D01*
X159024255Y-102811721D01*
X158924003Y-102743222D01*
X158805000Y-102719123D01*
X158380827Y-102719123D01*
X159271569Y-101828381D01*
X161868000Y-101828381D01*
X161868000Y-102660500D01*
X161955500Y-102748000D01*
X162918000Y-102748000D01*
X162918000Y-101635500D01*
X163218000Y-101635500D01*
X163218000Y-102748000D01*
X164180500Y-102748000D01*
X164268000Y-102660500D01*
X164268000Y-101828381D01*
X169996000Y-101828381D01*
X169996000Y-102660500D01*
X170083500Y-102748000D01*
X171046000Y-102748000D01*
X171046000Y-101635500D01*
X171346000Y-101635500D01*
X171346000Y-102748000D01*
X172308500Y-102748000D01*
X172396000Y-102660500D01*
X172396000Y-101828381D01*
X172342716Y-101699741D01*
X172244259Y-101601285D01*
X172115620Y-101548000D01*
X171433500Y-101548000D01*
X171346000Y-101635500D01*
X171046000Y-101635500D01*
X170958500Y-101548000D01*
X170276380Y-101548000D01*
X170147741Y-101601285D01*
X170049284Y-101699741D01*
X169996000Y-101828381D01*
X164268000Y-101828381D01*
X164214716Y-101699741D01*
X164116259Y-101601285D01*
X163987620Y-101548000D01*
X163305500Y-101548000D01*
X163218000Y-101635500D01*
X162918000Y-101635500D01*
X162830500Y-101548000D01*
X162148380Y-101548000D01*
X162019741Y-101601285D01*
X161921284Y-101699741D01*
X161868000Y-101828381D01*
X159271569Y-101828381D01*
X159604950Y-101495000D01*
X172325050Y-101495000D01*
X173110000Y-102279950D01*
X173110000Y-109920000D01*
X173163284Y-110187879D01*
X173315025Y-110414975D01*
X175305025Y-112404975D01*
X175532121Y-112556716D01*
X175800000Y-112610000D01*
X189230000Y-112610000D01*
X189497879Y-112556716D01*
X189724975Y-112404975D01*
X191179949Y-110950000D01*
X194469998Y-110950000D01*
X194737877Y-110896716D01*
X194964973Y-110744975D01*
X195875000Y-109834948D01*
X195875000Y-110210050D01*
X194940882Y-111144168D01*
X194859003Y-111088222D01*
X194740000Y-111064123D01*
X191340000Y-111064123D01*
X191228827Y-111085042D01*
X191126721Y-111150745D01*
X191058222Y-111250997D01*
X191034123Y-111370000D01*
X191034123Y-113720000D01*
X191055042Y-113831173D01*
X191120745Y-113933279D01*
X191220997Y-114001778D01*
X191340000Y-114025877D01*
X194740000Y-114025877D01*
X194851173Y-114004958D01*
X194953279Y-113939255D01*
X195021778Y-113839003D01*
X195045877Y-113720000D01*
X195045877Y-113019073D01*
X197069975Y-110994975D01*
X197221716Y-110767879D01*
X197275001Y-110500000D01*
X197275000Y-110499995D01*
X197275000Y-103900000D01*
X197221716Y-103632122D01*
X197221716Y-103632121D01*
X197069975Y-103405025D01*
X194419975Y-100755025D01*
X194192879Y-100603284D01*
X193925000Y-100550000D01*
X188850005Y-100550000D01*
X188850000Y-100549999D01*
X188582121Y-100603284D01*
X188540130Y-100631342D01*
X188355025Y-100755025D01*
X188355023Y-100755028D01*
X186968579Y-102141472D01*
X184913553Y-100086447D01*
X184751342Y-99978060D01*
X184560000Y-99940000D01*
X184425877Y-99940000D01*
X184425877Y-99815000D01*
X184404958Y-99703827D01*
X184339255Y-99601721D01*
X184239003Y-99533222D01*
X184120000Y-99509123D01*
X182620000Y-99509123D01*
X182508827Y-99530042D01*
X182406721Y-99595745D01*
X182338222Y-99695997D01*
X182314123Y-99815000D01*
X182314123Y-101065000D01*
X182335042Y-101176173D01*
X182400745Y-101278279D01*
X182500997Y-101346778D01*
X182620000Y-101370877D01*
X184120000Y-101370877D01*
X184231173Y-101349958D01*
X184333279Y-101284255D01*
X184401778Y-101184003D01*
X184425877Y-101065000D01*
X184425877Y-101012983D01*
X186410000Y-102997107D01*
X186410000Y-104210050D01*
X186369947Y-104250103D01*
X186395000Y-104189619D01*
X186395000Y-104052500D01*
X186307500Y-103965000D01*
X185395000Y-103965000D01*
X185395000Y-103985000D01*
X185095000Y-103985000D01*
X185095000Y-103965000D01*
X184182500Y-103965000D01*
X184095000Y-104052500D01*
X184095000Y-104189619D01*
X184148284Y-104318259D01*
X184246741Y-104416715D01*
X184375380Y-104470000D01*
X184929656Y-104470000D01*
X184923485Y-104474123D01*
X184445000Y-104474123D01*
X184333827Y-104495042D01*
X184231721Y-104560745D01*
X184163222Y-104660997D01*
X184139123Y-104780000D01*
X184139123Y-105390000D01*
X184160042Y-105501173D01*
X184225745Y-105603279D01*
X184325997Y-105671778D01*
X184445000Y-105695877D01*
X184923485Y-105695877D01*
X184959588Y-105720000D01*
X184923485Y-105744123D01*
X184445000Y-105744123D01*
X184333827Y-105765042D01*
X184231721Y-105830745D01*
X184163222Y-105930997D01*
X184139123Y-106050000D01*
X184139123Y-106660000D01*
X184160042Y-106771173D01*
X184225745Y-106873279D01*
X184325997Y-106941778D01*
X184445000Y-106965877D01*
X184923485Y-106965877D01*
X184977122Y-107001716D01*
X185039496Y-107014123D01*
X184445000Y-107014123D01*
X184333827Y-107035042D01*
X184231721Y-107100745D01*
X184163222Y-107200997D01*
X184139123Y-107320000D01*
X184139123Y-107930000D01*
X184160042Y-108041173D01*
X184225745Y-108143279D01*
X184325997Y-108211778D01*
X184445000Y-108235877D01*
X184745000Y-108235877D01*
X184745000Y-108556241D01*
X184556000Y-108634334D01*
X184260372Y-108929446D01*
X184100182Y-109315226D01*
X184099818Y-109732942D01*
X184259334Y-110119000D01*
X184554446Y-110414628D01*
X184940226Y-110574818D01*
X185357942Y-110575182D01*
X185744000Y-110415666D01*
X186039628Y-110120554D01*
X186199818Y-109734774D01*
X186200182Y-109317058D01*
X186040666Y-108931000D01*
X185745554Y-108635372D01*
X185745000Y-108635142D01*
X185745000Y-108342500D01*
X188030000Y-108342500D01*
X188030000Y-109174619D01*
X188083284Y-109303259D01*
X188181741Y-109401715D01*
X188310380Y-109455000D01*
X188992500Y-109455000D01*
X189080000Y-109367500D01*
X189080000Y-108255000D01*
X189380000Y-108255000D01*
X189380000Y-109367500D01*
X189467500Y-109455000D01*
X190149620Y-109455000D01*
X190278259Y-109401715D01*
X190376716Y-109303259D01*
X190430000Y-109174619D01*
X190430000Y-108342500D01*
X190400000Y-108312500D01*
X191875000Y-108312500D01*
X191875000Y-109144619D01*
X191928284Y-109273259D01*
X192026741Y-109371715D01*
X192155380Y-109425000D01*
X192837500Y-109425000D01*
X192925000Y-109337500D01*
X192925000Y-108225000D01*
X193225000Y-108225000D01*
X193225000Y-109337500D01*
X193312500Y-109425000D01*
X193994620Y-109425000D01*
X194123259Y-109371715D01*
X194221716Y-109273259D01*
X194275000Y-109144619D01*
X194275000Y-108312500D01*
X194187500Y-108225000D01*
X193225000Y-108225000D01*
X192925000Y-108225000D01*
X191962500Y-108225000D01*
X191875000Y-108312500D01*
X190400000Y-108312500D01*
X190342500Y-108255000D01*
X189380000Y-108255000D01*
X189080000Y-108255000D01*
X188117500Y-108255000D01*
X188030000Y-108342500D01*
X185745000Y-108342500D01*
X185745000Y-108235877D01*
X186045000Y-108235877D01*
X186156173Y-108214958D01*
X186258279Y-108149255D01*
X186326778Y-108049003D01*
X186350877Y-107930000D01*
X186350877Y-107320000D01*
X186329958Y-107208827D01*
X186264255Y-107106721D01*
X186188559Y-107055000D01*
X186825000Y-107055000D01*
X186923632Y-107035381D01*
X188030000Y-107035381D01*
X188030000Y-107867500D01*
X188117500Y-107955000D01*
X189080000Y-107955000D01*
X189080000Y-106842500D01*
X189380000Y-106842500D01*
X189380000Y-107955000D01*
X190342500Y-107955000D01*
X190430000Y-107867500D01*
X190430000Y-107035381D01*
X190417574Y-107005381D01*
X191875000Y-107005381D01*
X191875000Y-107837500D01*
X191962500Y-107925000D01*
X192925000Y-107925000D01*
X192925000Y-106812500D01*
X193225000Y-106812500D01*
X193225000Y-107925000D01*
X194187500Y-107925000D01*
X194275000Y-107837500D01*
X194275000Y-107005381D01*
X194221716Y-106876741D01*
X194123259Y-106778285D01*
X193994620Y-106725000D01*
X193312500Y-106725000D01*
X193225000Y-106812500D01*
X192925000Y-106812500D01*
X192837500Y-106725000D01*
X192155380Y-106725000D01*
X192026741Y-106778285D01*
X191928284Y-106876741D01*
X191875000Y-107005381D01*
X190417574Y-107005381D01*
X190376716Y-106906741D01*
X190278259Y-106808285D01*
X190149620Y-106755000D01*
X189467500Y-106755000D01*
X189380000Y-106842500D01*
X189080000Y-106842500D01*
X188992500Y-106755000D01*
X188310380Y-106755000D01*
X188181741Y-106808285D01*
X188083284Y-106906741D01*
X188030000Y-107035381D01*
X186923632Y-107035381D01*
X187092879Y-107001716D01*
X187319975Y-106849975D01*
X188279438Y-105890512D01*
X188380000Y-105910877D01*
X190080000Y-105910877D01*
X190191173Y-105889958D01*
X190293279Y-105824255D01*
X190361778Y-105724003D01*
X190385877Y-105605000D01*
X190385877Y-105275000D01*
X191919123Y-105275000D01*
X191919123Y-105575000D01*
X191940042Y-105686173D01*
X192005745Y-105788279D01*
X192105997Y-105856778D01*
X192225000Y-105880877D01*
X193925000Y-105880877D01*
X194036173Y-105859958D01*
X194138279Y-105794255D01*
X194206778Y-105694003D01*
X194230877Y-105575000D01*
X194230877Y-105520827D01*
X194825000Y-106114950D01*
X194825000Y-108905048D01*
X194180048Y-109550000D01*
X190890005Y-109550000D01*
X190890000Y-109549999D01*
X190622121Y-109603284D01*
X190549032Y-109652121D01*
X190395025Y-109755025D01*
X190395023Y-109755028D01*
X188940050Y-111210000D01*
X176089950Y-111210000D01*
X174510000Y-109630050D01*
X174510000Y-107320000D01*
X178139123Y-107320000D01*
X178139123Y-107930000D01*
X178160042Y-108041173D01*
X178225745Y-108143279D01*
X178325997Y-108211778D01*
X178445000Y-108235877D01*
X180045000Y-108235877D01*
X180156173Y-108214958D01*
X180258279Y-108149255D01*
X180326778Y-108049003D01*
X180350877Y-107930000D01*
X180350877Y-107320000D01*
X180329958Y-107208827D01*
X180264255Y-107106721D01*
X180164003Y-107038222D01*
X180045000Y-107014123D01*
X178445000Y-107014123D01*
X178333827Y-107035042D01*
X178231721Y-107100745D01*
X178163222Y-107200997D01*
X178139123Y-107320000D01*
X174510000Y-107320000D01*
X174510000Y-101990000D01*
X174456716Y-101722122D01*
X174304975Y-101495025D01*
X173109975Y-100300025D01*
X172882879Y-100148284D01*
X172615000Y-100095000D01*
X159315005Y-100095000D01*
X159315000Y-100094999D01*
X159047121Y-100148284D01*
X158820025Y-100300025D01*
X156560025Y-102560025D01*
X156453719Y-102719123D01*
X155305000Y-102719123D01*
X155193827Y-102740042D01*
X155091721Y-102805745D01*
X155023222Y-102905997D01*
X154999123Y-103025000D01*
X153610877Y-103025000D01*
X153589958Y-102913827D01*
X153524255Y-102811721D01*
X153424003Y-102743222D01*
X153305000Y-102719123D01*
X149805000Y-102719123D01*
X149693827Y-102740042D01*
X149591721Y-102805745D01*
X149523222Y-102905997D01*
X149499123Y-103025000D01*
X149499123Y-104075000D01*
X148475877Y-104075000D01*
X148475877Y-103080000D01*
X148454958Y-102968827D01*
X148389255Y-102866721D01*
X148289003Y-102798222D01*
X148170000Y-102774123D01*
X145670000Y-102774123D01*
X145558827Y-102795042D01*
X145456721Y-102860745D01*
X145388222Y-102960997D01*
X145364123Y-103080000D01*
X144520000Y-103080000D01*
X144520000Y-102587106D01*
X147267107Y-99840000D01*
X173992894Y-99840000D01*
X174920000Y-100767107D01*
X174920000Y-105900000D01*
X174949837Y-106050000D01*
X174958060Y-106091342D01*
X175066447Y-106253553D01*
X175521446Y-106708553D01*
X175667285Y-106806000D01*
X175683658Y-106816940D01*
X175875000Y-106855000D01*
X178213983Y-106855000D01*
X178225745Y-106873279D01*
X178325997Y-106941778D01*
X178445000Y-106965877D01*
X180045000Y-106965877D01*
X180156173Y-106944958D01*
X180258279Y-106879255D01*
X180326778Y-106779003D01*
X180350877Y-106660000D01*
X180350877Y-106050000D01*
X180333472Y-105957500D01*
X180585000Y-105957500D01*
X180585000Y-107544619D01*
X180638284Y-107673259D01*
X180736741Y-107771715D01*
X180865380Y-107825000D01*
X182007500Y-107825000D01*
X182095000Y-107737500D01*
X182095000Y-105870000D01*
X182395000Y-105870000D01*
X182395000Y-107737500D01*
X182482500Y-107825000D01*
X183624620Y-107825000D01*
X183753259Y-107771715D01*
X183851716Y-107673259D01*
X183905000Y-107544619D01*
X183905000Y-105957500D01*
X183817500Y-105870000D01*
X182395000Y-105870000D01*
X182095000Y-105870000D01*
X180672500Y-105870000D01*
X180585000Y-105957500D01*
X180333472Y-105957500D01*
X180329958Y-105938827D01*
X180264255Y-105836721D01*
X180164003Y-105768222D01*
X180045000Y-105744123D01*
X178445000Y-105744123D01*
X178333827Y-105765042D01*
X178231721Y-105830745D01*
X178215148Y-105855000D01*
X177654728Y-105855000D01*
X177914628Y-105595554D01*
X177919010Y-105585000D01*
X178213983Y-105585000D01*
X178225745Y-105603279D01*
X178325997Y-105671778D01*
X178445000Y-105695877D01*
X180045000Y-105695877D01*
X180156173Y-105674958D01*
X180258279Y-105609255D01*
X180326778Y-105509003D01*
X180350877Y-105390000D01*
X180350877Y-104780000D01*
X180329958Y-104668827D01*
X180264255Y-104566721D01*
X180164003Y-104498222D01*
X180045000Y-104474123D01*
X178445000Y-104474123D01*
X178333827Y-104495042D01*
X178231721Y-104560745D01*
X178215148Y-104585000D01*
X177989627Y-104585000D01*
X177915666Y-104406000D01*
X177808677Y-104298824D01*
X177890000Y-104315000D01*
X178213983Y-104315000D01*
X178225745Y-104333279D01*
X178325997Y-104401778D01*
X178445000Y-104425877D01*
X180045000Y-104425877D01*
X180156173Y-104404958D01*
X180258279Y-104339255D01*
X180326778Y-104239003D01*
X180350877Y-104120000D01*
X180350877Y-103895381D01*
X180585000Y-103895381D01*
X180585000Y-105482500D01*
X180672500Y-105570000D01*
X182095000Y-105570000D01*
X182095000Y-103702500D01*
X182395000Y-103702500D01*
X182395000Y-105570000D01*
X183817500Y-105570000D01*
X183905000Y-105482500D01*
X183905000Y-103895381D01*
X183851716Y-103766741D01*
X183753259Y-103668285D01*
X183624620Y-103615000D01*
X182482500Y-103615000D01*
X182395000Y-103702500D01*
X182095000Y-103702500D01*
X182007500Y-103615000D01*
X180865380Y-103615000D01*
X180736741Y-103668285D01*
X180638284Y-103766741D01*
X180585000Y-103895381D01*
X180350877Y-103895381D01*
X180350877Y-103510000D01*
X180337778Y-103440381D01*
X184095000Y-103440381D01*
X184095000Y-103577500D01*
X184182500Y-103665000D01*
X185095000Y-103665000D01*
X185095000Y-103247500D01*
X185395000Y-103247500D01*
X185395000Y-103665000D01*
X186307500Y-103665000D01*
X186395000Y-103577500D01*
X186395000Y-103440381D01*
X186341716Y-103311741D01*
X186243259Y-103213285D01*
X186114620Y-103160000D01*
X185482500Y-103160000D01*
X185395000Y-103247500D01*
X185095000Y-103247500D01*
X185007500Y-103160000D01*
X184375380Y-103160000D01*
X184246741Y-103213285D01*
X184148284Y-103311741D01*
X184095000Y-103440381D01*
X180337778Y-103440381D01*
X180329958Y-103398827D01*
X180264255Y-103296721D01*
X180164003Y-103228222D01*
X180045000Y-103204123D01*
X178445000Y-103204123D01*
X178333827Y-103225042D01*
X178231721Y-103290745D01*
X178215148Y-103315000D01*
X178097107Y-103315000D01*
X178060814Y-103278707D01*
X178099818Y-103184774D01*
X178100182Y-102767058D01*
X177940666Y-102381000D01*
X177645554Y-102085372D01*
X177579496Y-102057942D01*
X177824818Y-102057942D01*
X177984334Y-102444000D01*
X178279446Y-102739628D01*
X178665226Y-102899818D01*
X179082942Y-102900182D01*
X179469000Y-102740666D01*
X179764628Y-102445554D01*
X179924818Y-102059774D01*
X179925182Y-101642058D01*
X179885671Y-101546435D01*
X180182375Y-101249731D01*
X180200745Y-101278279D01*
X180300997Y-101346778D01*
X180420000Y-101370877D01*
X181920000Y-101370877D01*
X182031173Y-101349958D01*
X182133279Y-101284255D01*
X182201778Y-101184003D01*
X182225877Y-101065000D01*
X182225877Y-99815000D01*
X182204958Y-99703827D01*
X182139255Y-99601721D01*
X182039003Y-99533222D01*
X181920000Y-99509123D01*
X180420000Y-99509123D01*
X180308827Y-99530042D01*
X180206721Y-99595745D01*
X180138222Y-99695997D01*
X180114123Y-99815000D01*
X180114123Y-99973989D01*
X180093658Y-99978060D01*
X179931447Y-100086447D01*
X179178707Y-100839187D01*
X179084774Y-100800182D01*
X178667058Y-100799818D01*
X178281000Y-100959334D01*
X177985372Y-101254446D01*
X177825182Y-101640226D01*
X177824818Y-102057942D01*
X177579496Y-102057942D01*
X177259774Y-101925182D01*
X176842058Y-101924818D01*
X176456000Y-102084334D01*
X176160372Y-102379446D01*
X176000182Y-102765226D01*
X175999818Y-103182942D01*
X176159334Y-103569000D01*
X176454446Y-103864628D01*
X176738138Y-103982427D01*
X176431000Y-104109334D01*
X176135372Y-104404446D01*
X175975182Y-104790226D01*
X175974818Y-105207942D01*
X176134334Y-105594000D01*
X176394878Y-105855000D01*
X176082107Y-105855000D01*
X175920000Y-105692894D01*
X175920000Y-100560000D01*
X175881940Y-100368658D01*
X175801758Y-100248658D01*
X175773554Y-100206447D01*
X174847106Y-99280000D01*
X197355000Y-99280000D01*
X197355000Y-128530000D01*
X164840000Y-128530000D01*
X164840000Y-127247550D01*
X165119783Y-127247550D01*
X165309684Y-127707143D01*
X165661007Y-128059081D01*
X166120269Y-128249783D01*
X166617550Y-128250217D01*
X167077143Y-128060316D01*
X167429081Y-127708993D01*
X167619783Y-127249731D01*
X167619784Y-127247550D01*
X167659783Y-127247550D01*
X167849684Y-127707143D01*
X168201007Y-128059081D01*
X168660269Y-128249783D01*
X169157550Y-128250217D01*
X169617143Y-128060316D01*
X169969081Y-127708993D01*
X170159783Y-127249731D01*
X170159784Y-127247550D01*
X170199783Y-127247550D01*
X170389684Y-127707143D01*
X170741007Y-128059081D01*
X171200269Y-128249783D01*
X171697550Y-128250217D01*
X172157143Y-128060316D01*
X172242615Y-127974993D01*
X173227139Y-127974993D01*
X173337266Y-128153606D01*
X173828418Y-128315583D01*
X174344169Y-128277275D01*
X174642734Y-128153606D01*
X174752861Y-127974993D01*
X173990000Y-127212132D01*
X173227139Y-127974993D01*
X172242615Y-127974993D01*
X172509081Y-127708993D01*
X172699783Y-127249731D01*
X172699843Y-127180738D01*
X172712725Y-127354169D01*
X172836394Y-127652734D01*
X173015007Y-127762861D01*
X173777868Y-127000000D01*
X174202132Y-127000000D01*
X174964993Y-127762861D01*
X175143606Y-127652734D01*
X175279790Y-127239793D01*
X175279783Y-127247550D01*
X175469684Y-127707143D01*
X175821007Y-128059081D01*
X176280269Y-128249783D01*
X176777550Y-128250217D01*
X177237143Y-128060316D01*
X177589081Y-127708993D01*
X177779783Y-127249731D01*
X177779784Y-127247550D01*
X177819783Y-127247550D01*
X178009684Y-127707143D01*
X178361007Y-128059081D01*
X178820269Y-128249783D01*
X179317550Y-128250217D01*
X179777143Y-128060316D01*
X180129081Y-127708993D01*
X180319783Y-127249731D01*
X180319784Y-127247550D01*
X180359783Y-127247550D01*
X180549684Y-127707143D01*
X180901007Y-128059081D01*
X181360269Y-128249783D01*
X181857550Y-128250217D01*
X182317143Y-128060316D01*
X182402615Y-127974993D01*
X183387139Y-127974993D01*
X183497266Y-128153606D01*
X183988418Y-128315583D01*
X184504169Y-128277275D01*
X184802734Y-128153606D01*
X184912861Y-127974993D01*
X184150000Y-127212132D01*
X183387139Y-127974993D01*
X182402615Y-127974993D01*
X182669081Y-127708993D01*
X182859783Y-127249731D01*
X182859843Y-127180738D01*
X182872725Y-127354169D01*
X182996394Y-127652734D01*
X183175007Y-127762861D01*
X183937868Y-127000000D01*
X183175007Y-126237139D01*
X182996394Y-126347266D01*
X182860210Y-126760207D01*
X182860217Y-126752450D01*
X182670316Y-126292857D01*
X182318993Y-125940919D01*
X181859731Y-125750217D01*
X181362450Y-125749783D01*
X180902857Y-125939684D01*
X180550919Y-126291007D01*
X180360217Y-126750269D01*
X180359783Y-127247550D01*
X180319784Y-127247550D01*
X180320217Y-126752450D01*
X180130316Y-126292857D01*
X179778993Y-125940919D01*
X179319731Y-125750217D01*
X178822450Y-125749783D01*
X178362857Y-125939684D01*
X178010919Y-126291007D01*
X177820217Y-126750269D01*
X177819783Y-127247550D01*
X177779784Y-127247550D01*
X177780217Y-126752450D01*
X177590316Y-126292857D01*
X177238993Y-125940919D01*
X176779731Y-125750217D01*
X176282450Y-125749783D01*
X175822857Y-125939684D01*
X175470919Y-126291007D01*
X175280217Y-126750269D01*
X175280157Y-126819262D01*
X175267275Y-126645831D01*
X175143606Y-126347266D01*
X174964993Y-126237139D01*
X174202132Y-127000000D01*
X173777868Y-127000000D01*
X173015007Y-126237139D01*
X172836394Y-126347266D01*
X172700210Y-126760207D01*
X172700217Y-126752450D01*
X172510316Y-126292857D01*
X172158993Y-125940919D01*
X171699731Y-125750217D01*
X171202450Y-125749783D01*
X170742857Y-125939684D01*
X170390919Y-126291007D01*
X170200217Y-126750269D01*
X170199783Y-127247550D01*
X170159784Y-127247550D01*
X170160217Y-126752450D01*
X169970316Y-126292857D01*
X169618993Y-125940919D01*
X169159731Y-125750217D01*
X168662450Y-125749783D01*
X168202857Y-125939684D01*
X167850919Y-126291007D01*
X167660217Y-126750269D01*
X167659783Y-127247550D01*
X167619784Y-127247550D01*
X167620217Y-126752450D01*
X167430316Y-126292857D01*
X167078993Y-125940919D01*
X166619731Y-125750217D01*
X166122450Y-125749783D01*
X165662857Y-125939684D01*
X165310919Y-126291007D01*
X165120217Y-126750269D01*
X165119783Y-127247550D01*
X164840000Y-127247550D01*
X164840000Y-124707550D01*
X165119783Y-124707550D01*
X165309684Y-125167143D01*
X165661007Y-125519081D01*
X166120269Y-125709783D01*
X166617550Y-125710217D01*
X167077143Y-125520316D01*
X167429081Y-125168993D01*
X167619783Y-124709731D01*
X167619784Y-124707550D01*
X167659783Y-124707550D01*
X167849684Y-125167143D01*
X168201007Y-125519081D01*
X168660269Y-125709783D01*
X169157550Y-125710217D01*
X169617143Y-125520316D01*
X169969081Y-125168993D01*
X170159783Y-124709731D01*
X170159784Y-124707550D01*
X170199783Y-124707550D01*
X170389684Y-125167143D01*
X170741007Y-125519081D01*
X171200269Y-125709783D01*
X171697550Y-125710217D01*
X172157143Y-125520316D01*
X172509081Y-125168993D01*
X172699783Y-124709731D01*
X172699784Y-124707550D01*
X172739783Y-124707550D01*
X172929684Y-125167143D01*
X173281007Y-125519081D01*
X173740269Y-125709783D01*
X173809262Y-125709843D01*
X173635831Y-125722725D01*
X173337266Y-125846394D01*
X173227139Y-126025007D01*
X173990000Y-126787868D01*
X174752861Y-126025007D01*
X174642734Y-125846394D01*
X174229793Y-125710210D01*
X174237550Y-125710217D01*
X174697143Y-125520316D01*
X175049081Y-125168993D01*
X175239783Y-124709731D01*
X175240217Y-124212450D01*
X175050316Y-123752857D01*
X174698993Y-123400919D01*
X174239731Y-123210217D01*
X173742450Y-123209783D01*
X173282857Y-123399684D01*
X172930919Y-123751007D01*
X172740217Y-124210269D01*
X172739783Y-124707550D01*
X172699784Y-124707550D01*
X172700217Y-124212450D01*
X172510316Y-123752857D01*
X172158993Y-123400919D01*
X171699731Y-123210217D01*
X171202450Y-123209783D01*
X170742857Y-123399684D01*
X170390919Y-123751007D01*
X170200217Y-124210269D01*
X170199783Y-124707550D01*
X170159784Y-124707550D01*
X170160217Y-124212450D01*
X169970316Y-123752857D01*
X169618993Y-123400919D01*
X169159731Y-123210217D01*
X168662450Y-123209783D01*
X168202857Y-123399684D01*
X167850919Y-123751007D01*
X167660217Y-124210269D01*
X167659783Y-124707550D01*
X167619784Y-124707550D01*
X167620217Y-124212450D01*
X167430316Y-123752857D01*
X167078993Y-123400919D01*
X166619731Y-123210217D01*
X166122450Y-123209783D01*
X165662857Y-123399684D01*
X165310919Y-123751007D01*
X165120217Y-124210269D01*
X165119783Y-124707550D01*
X164840000Y-124707550D01*
X164840000Y-122555000D01*
X164811455Y-122411494D01*
X164730165Y-122289835D01*
X164608506Y-122208545D01*
X164465000Y-122180000D01*
X134360000Y-122180000D01*
X134360000Y-117310000D01*
X139864123Y-117310000D01*
X139864123Y-118910000D01*
X139885042Y-119021173D01*
X139950745Y-119123279D01*
X140050997Y-119191778D01*
X140170000Y-119215877D01*
X141770000Y-119215877D01*
X141881173Y-119194958D01*
X141983279Y-119129255D01*
X142051778Y-119029003D01*
X142075877Y-118910000D01*
X142075877Y-117310000D01*
X142054958Y-117198827D01*
X141989255Y-117096721D01*
X141889003Y-117028222D01*
X141770000Y-117004123D01*
X140170000Y-117004123D01*
X140058827Y-117025042D01*
X139956721Y-117090745D01*
X139888222Y-117190997D01*
X139864123Y-117310000D01*
X134360000Y-117310000D01*
X134360000Y-111573850D01*
X135018282Y-111573850D01*
X135146851Y-111768052D01*
X135692510Y-111955157D01*
X136268234Y-111919204D01*
X136633149Y-111768052D01*
X136761718Y-111573850D01*
X135890000Y-110702132D01*
X135018282Y-111573850D01*
X134360000Y-111573850D01*
X134360000Y-110292510D01*
X134424843Y-110292510D01*
X134460796Y-110868234D01*
X134611948Y-111233149D01*
X134806150Y-111361718D01*
X135677868Y-110490000D01*
X136102132Y-110490000D01*
X136973850Y-111361718D01*
X137168052Y-111233149D01*
X137310914Y-110816516D01*
X139867328Y-110816516D01*
X139959400Y-111038835D01*
X140246357Y-111383797D01*
X140643482Y-111592687D01*
X140820000Y-111542690D01*
X140820000Y-110640000D01*
X141120000Y-110640000D01*
X141120000Y-111542690D01*
X141296518Y-111592687D01*
X141693643Y-111383797D01*
X141980600Y-111038835D01*
X142072672Y-110816516D01*
X142021858Y-110640000D01*
X141120000Y-110640000D01*
X140820000Y-110640000D01*
X139918142Y-110640000D01*
X139867328Y-110816516D01*
X137310914Y-110816516D01*
X137355157Y-110687490D01*
X137322434Y-110163484D01*
X139867328Y-110163484D01*
X139918142Y-110340000D01*
X140820000Y-110340000D01*
X140820000Y-109437310D01*
X141120000Y-109437310D01*
X141120000Y-110340000D01*
X142021858Y-110340000D01*
X142072672Y-110163484D01*
X141980600Y-109941165D01*
X141693643Y-109596203D01*
X141296518Y-109387313D01*
X141120000Y-109437310D01*
X140820000Y-109437310D01*
X140643482Y-109387313D01*
X140246357Y-109596203D01*
X139959400Y-109941165D01*
X139867328Y-110163484D01*
X137322434Y-110163484D01*
X137319204Y-110111766D01*
X137168052Y-109746851D01*
X136973850Y-109618282D01*
X136102132Y-110490000D01*
X135677868Y-110490000D01*
X134806150Y-109618282D01*
X134611948Y-109746851D01*
X134424843Y-110292510D01*
X134360000Y-110292510D01*
X134360000Y-109406150D01*
X135018282Y-109406150D01*
X135890000Y-110277868D01*
X136761718Y-109406150D01*
X136633149Y-109211948D01*
X136087490Y-109024843D01*
X135511766Y-109060796D01*
X135146851Y-109211948D01*
X135018282Y-109406150D01*
X134360000Y-109406150D01*
X134360000Y-105687256D01*
X134489757Y-105687256D01*
X134702445Y-106202000D01*
X135095928Y-106596170D01*
X135610301Y-106809757D01*
X136167256Y-106810243D01*
X136682000Y-106597555D01*
X137076170Y-106204072D01*
X137289757Y-105689699D01*
X137289944Y-105475000D01*
X138544123Y-105475000D01*
X138544123Y-106470000D01*
X138565042Y-106581173D01*
X138630745Y-106683279D01*
X138730997Y-106751778D01*
X138850000Y-106775877D01*
X141350000Y-106775877D01*
X141461173Y-106754958D01*
X141563279Y-106689255D01*
X141631778Y-106589003D01*
X141655877Y-106470000D01*
X141655877Y-103080000D01*
X141634958Y-102968827D01*
X141569255Y-102866721D01*
X141469003Y-102798222D01*
X141350000Y-102774123D01*
X138850000Y-102774123D01*
X138738827Y-102795042D01*
X138636721Y-102860745D01*
X138568222Y-102960997D01*
X138544123Y-103080000D01*
X138544123Y-104075000D01*
X136525005Y-104075000D01*
X136525000Y-104074999D01*
X136390215Y-104101810D01*
X136169699Y-104010243D01*
X135612744Y-104009757D01*
X135098000Y-104222445D01*
X134703830Y-104615928D01*
X134490243Y-105130301D01*
X134489757Y-105687256D01*
X134360000Y-105687256D01*
X134360000Y-99280000D01*
X146412893Y-99280000D01*
X143666447Y-102026447D01*
M02*
