M48
;DRILL file {KiCad 4.0.2-stable} date 6/25/2017 2:35:22 PM
;FORMAT={-:-/ absolute / inch / decimal}
FMAT,2
INCH,TZ
T1C0.024
T2C0.031
T3C0.039
T4C0.047
%
G90
G05
M72
T1
X6.8317Y-4.4154
X6.9695Y-4.1339
X6.9705Y-4.0541
X7.0423Y-4.0098
X7.0541Y-4.5965
X7.2894Y-4.312
T2
X5.55Y-4.35
X5.55Y-4.45
X5.55Y-4.55
X5.55Y-4.65
X5.85Y-4.35
X5.85Y-4.45
X5.85Y-4.55
X5.85Y-4.65
T3
X6.55Y-4.9
X6.55Y-5.
X6.65Y-4.9
X6.65Y-5.
X6.75Y-4.9
X6.75Y-5.
X6.85Y-4.9
X6.85Y-5.
X6.95Y-4.9
X6.95Y-5.
X7.05Y-4.9
X7.05Y-5.
X7.15Y-4.9
X7.15Y-5.
X7.25Y-4.9
X7.25Y-5.
X7.35Y-4.9
X7.35Y-5.
X7.45Y-4.9
X7.45Y-5.
T4
X5.35Y-4.15
X5.35Y-4.35
X5.35Y-4.55
X7.65Y-4.825
X7.65Y-4.975
T0
M30
