G04 #@! TF.FileFunction,Copper,L1,Top,Signal*
%FSLAX46Y46*%
G04 Gerber Fmt 4.6, Leading zero omitted, Abs format (unit mm)*
G04 Created by KiCad (PCBNEW 4.0.2-stable) date 9/10/2017 7:41:32 PM*
%MOMM*%
G01*
G04 APERTURE LIST*
%ADD10C,0.100000*%
%ADD11R,1.600000X1.600000*%
%ADD12O,1.600000X1.600000*%
%ADD13R,0.800000X1.900000*%
%ADD14R,1.700000X2.000000*%
%ADD15R,1.250000X1.500000*%
%ADD16R,1.500000X1.250000*%
%ADD17C,1.900000*%
%ADD18R,3.500000X3.500000*%
%ADD19R,2.620000X3.510000*%
%ADD20R,1.600000X0.610000*%
%ADD21R,3.400000X2.350000*%
%ADD22C,2.200000*%
%ADD23R,2.000000X1.700000*%
%ADD24R,2.500000X3.390000*%
%ADD25C,1.500000*%
%ADD26C,1.000000*%
%ADD27C,0.400000*%
%ADD28C,0.254000*%
G04 APERTURE END LIST*
D10*
D11*
X142490000Y-118640000D03*
D12*
X150110000Y-111020000D03*
X142490000Y-116100000D03*
X150110000Y-113560000D03*
X142490000Y-113560000D03*
X150110000Y-116100000D03*
X142490000Y-111020000D03*
X150110000Y-118640000D03*
D13*
X162495000Y-118235000D03*
X164395000Y-118235000D03*
X163445000Y-115235000D03*
X169602000Y-104186000D03*
X167702000Y-104186000D03*
X168652000Y-107186000D03*
D14*
X164588000Y-106928000D03*
X164588000Y-103428000D03*
X172716000Y-106928000D03*
X172716000Y-103428000D03*
X182000000Y-105350000D03*
X182000000Y-108850000D03*
X179300000Y-105350000D03*
X179300000Y-108850000D03*
D15*
X193750000Y-107650000D03*
X193750000Y-109850000D03*
D16*
X182290000Y-102540000D03*
X184490000Y-102540000D03*
D14*
X184300000Y-117750000D03*
X184300000Y-114250000D03*
D17*
X189230000Y-124460000D03*
X189230000Y-127000000D03*
X186690000Y-124460000D03*
X186690000Y-127000000D03*
X184150000Y-124460000D03*
X184150000Y-127000000D03*
X181610000Y-124460000D03*
X181610000Y-127000000D03*
X179070000Y-124460000D03*
X179070000Y-127000000D03*
X176530000Y-124460000D03*
X176530000Y-127000000D03*
X173990000Y-124460000D03*
X173990000Y-127000000D03*
X171450000Y-124460000D03*
X171450000Y-127000000D03*
X168910000Y-124460000D03*
X168910000Y-127000000D03*
X166370000Y-124460000D03*
X166370000Y-127000000D03*
D18*
X158575000Y-105305000D03*
X153075000Y-105305000D03*
D19*
X187670000Y-106420000D03*
D20*
X190670000Y-104515000D03*
X190670000Y-105785000D03*
X190670000Y-107055000D03*
X190670000Y-108325000D03*
X184670000Y-108325000D03*
X184670000Y-107055000D03*
X184670000Y-105785000D03*
X184670000Y-104515000D03*
D21*
X179000000Y-119525000D03*
X179000000Y-113475000D03*
D22*
X135890000Y-105410000D03*
X135890000Y-110490000D03*
X135890000Y-115570000D03*
D23*
X162330000Y-111020000D03*
X165830000Y-111020000D03*
X154075000Y-111020000D03*
X157575000Y-111020000D03*
D14*
X168660000Y-118450000D03*
X168660000Y-114950000D03*
X193750000Y-104750000D03*
X193750000Y-101250000D03*
X193750000Y-112750000D03*
X193750000Y-116250000D03*
D23*
X154075000Y-118640000D03*
X157575000Y-118640000D03*
D14*
X190750000Y-112750000D03*
X190750000Y-116250000D03*
X188000000Y-116250000D03*
X188000000Y-112750000D03*
D24*
X141620000Y-105305000D03*
X148440000Y-105305000D03*
D22*
X194310000Y-126365000D03*
X194310000Y-122555000D03*
D25*
X177100000Y-107700000D03*
X182200000Y-100500000D03*
X174310000Y-118530000D03*
X153850000Y-114870000D03*
D26*
X167702000Y-104186000D02*
X167702000Y-102168000D01*
X168430000Y-101440000D02*
X176050000Y-101440000D01*
X167702000Y-102168000D02*
X168430000Y-101440000D01*
X164588000Y-106928000D02*
X167330000Y-104186000D01*
X167330000Y-104186000D02*
X167702000Y-104186000D01*
X158575000Y-105305000D02*
X160198000Y-106928000D01*
X160198000Y-106928000D02*
X164588000Y-106928000D01*
D27*
X165660000Y-120140000D02*
X166970000Y-120140000D01*
X160740000Y-120140000D02*
X165660000Y-120140000D01*
X160200000Y-119600000D02*
X160740000Y-120140000D01*
X160200000Y-117700000D02*
X160200000Y-119600000D01*
X159000000Y-116500000D02*
X160200000Y-117700000D01*
X152500000Y-116500000D02*
X159000000Y-116500000D01*
X150360000Y-118640000D02*
X152500000Y-116500000D01*
X166970000Y-120140000D02*
X168660000Y-118450000D01*
D26*
X172716000Y-106928000D02*
X172716000Y-116294000D01*
X172716000Y-116294000D02*
X170560000Y-118450000D01*
X170560000Y-118450000D02*
X168660000Y-118450000D01*
D27*
X150110000Y-118640000D02*
X150360000Y-118640000D01*
D26*
X169602000Y-104186000D02*
X172344000Y-106928000D01*
X172344000Y-106928000D02*
X172716000Y-106928000D01*
D27*
X150110000Y-111020000D02*
X150110000Y-110070000D01*
X168660000Y-109910000D02*
X168660000Y-114950000D01*
X167580000Y-108830000D02*
X168660000Y-109910000D01*
X151350000Y-108830000D02*
X167580000Y-108830000D01*
X150110000Y-110070000D02*
X151350000Y-108830000D01*
D26*
X163445000Y-115235000D02*
X168375000Y-115235000D01*
X168375000Y-115235000D02*
X168660000Y-114950000D01*
D27*
X150110000Y-113560000D02*
X148710000Y-113560000D01*
X188300000Y-99300000D02*
X158400000Y-99300000D01*
X158400000Y-99300000D02*
X155800000Y-101900000D01*
X188300000Y-99300000D02*
X193750000Y-104750000D01*
X155800000Y-107200000D02*
X155800000Y-101900000D01*
X155200000Y-107800000D02*
X155800000Y-107200000D01*
X154200000Y-107800000D02*
X155200000Y-107800000D01*
X150390000Y-107800000D02*
X154200000Y-107800000D01*
X147550000Y-110640000D02*
X150390000Y-107800000D01*
X147550000Y-112400000D02*
X147550000Y-110640000D01*
X148710000Y-113560000D02*
X147550000Y-112400000D01*
D26*
X190670000Y-105785000D02*
X192715000Y-105785000D01*
X192715000Y-105785000D02*
X193750000Y-104750000D01*
D27*
X135890000Y-115570000D02*
X136680000Y-114780000D01*
X155985002Y-109430002D02*
X157575000Y-111020000D01*
X152649998Y-109430002D02*
X155985002Y-109430002D01*
X152080000Y-110000000D02*
X152649998Y-109430002D01*
X152080000Y-114050000D02*
X152080000Y-110000000D01*
X151350000Y-114780000D02*
X152080000Y-114050000D01*
X136680000Y-114780000D02*
X151350000Y-114780000D01*
D26*
X157575000Y-111020000D02*
X162330000Y-111020000D01*
D27*
X135890000Y-115570000D02*
X136660000Y-114800000D01*
X154075000Y-111020000D02*
X154075000Y-112255000D01*
X162495000Y-117005000D02*
X162495000Y-118235000D01*
X159790000Y-114300000D02*
X162495000Y-117005000D01*
X156120000Y-114300000D02*
X159790000Y-114300000D01*
X154075000Y-112255000D02*
X156120000Y-114300000D01*
D26*
X190670000Y-107055000D02*
X193155000Y-107055000D01*
X193155000Y-107055000D02*
X193750000Y-107650000D01*
X193750000Y-109850000D02*
X193750000Y-112750000D01*
X182290000Y-102540000D02*
X182290000Y-100590000D01*
X182200000Y-100500000D02*
X182290000Y-100590000D01*
X184670000Y-107055000D02*
X177745000Y-107055000D01*
X176300000Y-110775000D02*
X179000000Y-113475000D01*
X176300000Y-108500000D02*
X176300000Y-110775000D01*
X177745000Y-107055000D02*
X177100000Y-107700000D01*
X177100000Y-107700000D02*
X176300000Y-108500000D01*
X184670000Y-104515000D02*
X184670000Y-102720000D01*
X184670000Y-102720000D02*
X184490000Y-102540000D01*
X189230000Y-127000000D02*
X193675000Y-127000000D01*
X193675000Y-127000000D02*
X194310000Y-126365000D01*
X186690000Y-127000000D02*
X189230000Y-127000000D01*
X194310000Y-126365000D02*
X187845000Y-119900000D01*
X187845000Y-119900000D02*
X184200000Y-119900000D01*
X194310000Y-126365000D02*
X193675000Y-127000000D01*
X188000000Y-116250000D02*
X186500000Y-117750000D01*
X186500000Y-117750000D02*
X184250000Y-117750000D01*
D27*
X154075000Y-118640000D02*
X153430000Y-118640000D01*
X153430000Y-118640000D02*
X151670000Y-120400000D01*
X151670000Y-120400000D02*
X148900000Y-120400000D01*
X148900000Y-120400000D02*
X147870000Y-119370000D01*
X147870000Y-119370000D02*
X147870000Y-118340000D01*
X147870000Y-118340000D02*
X150110000Y-116100000D01*
X150110000Y-116100000D02*
X151850000Y-116100000D01*
X176530000Y-120750000D02*
X176530000Y-124460000D01*
X174310000Y-118530000D02*
X176530000Y-120750000D01*
X153080000Y-114870000D02*
X153850000Y-114870000D01*
X151850000Y-116100000D02*
X153080000Y-114870000D01*
D26*
X148440000Y-105305000D02*
X153075000Y-105305000D01*
X135890000Y-105410000D02*
X135995000Y-105305000D01*
X135995000Y-105305000D02*
X141620000Y-105305000D01*
D28*
G36*
X185173000Y-120773000D02*
X177227000Y-120773000D01*
X177227000Y-116627000D01*
X185173000Y-116627000D01*
X185173000Y-120773000D01*
X185173000Y-120773000D01*
G37*
X185173000Y-120773000D02*
X177227000Y-120773000D01*
X177227000Y-116627000D01*
X185173000Y-116627000D01*
X185173000Y-120773000D01*
G36*
X180673000Y-104100000D02*
X180683006Y-104149410D01*
X180711447Y-104191035D01*
X180753841Y-104218315D01*
X180800000Y-104227000D01*
X182973000Y-104227000D01*
X182973000Y-105300000D01*
X182983006Y-105349410D01*
X183011447Y-105391035D01*
X183053841Y-105418315D01*
X183100000Y-105427000D01*
X185573000Y-105427000D01*
X185573000Y-106173000D01*
X175227000Y-106173000D01*
X175227000Y-101127000D01*
X180673000Y-101127000D01*
X180673000Y-104100000D01*
X180673000Y-104100000D01*
G37*
X180673000Y-104100000D02*
X180683006Y-104149410D01*
X180711447Y-104191035D01*
X180753841Y-104218315D01*
X180800000Y-104227000D01*
X182973000Y-104227000D01*
X182973000Y-105300000D01*
X182983006Y-105349410D01*
X183011447Y-105391035D01*
X183053841Y-105418315D01*
X183100000Y-105427000D01*
X185573000Y-105427000D01*
X185573000Y-106173000D01*
X175227000Y-106173000D01*
X175227000Y-101127000D01*
X180673000Y-101127000D01*
X180673000Y-104100000D01*
G36*
X191673000Y-113873000D02*
X187027000Y-113873000D01*
X187027000Y-110227000D01*
X189600000Y-110227000D01*
X189649410Y-110216994D01*
X189691035Y-110188553D01*
X189718315Y-110146159D01*
X189727000Y-110100000D01*
X189727000Y-107927000D01*
X191673000Y-107927000D01*
X191673000Y-113873000D01*
X191673000Y-113873000D01*
G37*
X191673000Y-113873000D02*
X187027000Y-113873000D01*
X187027000Y-110227000D01*
X189600000Y-110227000D01*
X189649410Y-110216994D01*
X189691035Y-110188553D01*
X189718315Y-110146159D01*
X189727000Y-110100000D01*
X189727000Y-107927000D01*
X191673000Y-107927000D01*
X191673000Y-113873000D01*
G36*
X155427355Y-101527355D02*
X155313115Y-101698325D01*
X155313115Y-101698326D01*
X155273000Y-101900000D01*
X155273000Y-106981710D01*
X155147918Y-107106792D01*
X155158406Y-107055000D01*
X155158406Y-103555000D01*
X155135605Y-103433821D01*
X155063988Y-103322526D01*
X154954714Y-103247862D01*
X154825000Y-103221594D01*
X151325000Y-103221594D01*
X151203821Y-103244395D01*
X151092526Y-103316012D01*
X151017862Y-103425286D01*
X150991594Y-103555000D01*
X150991594Y-104478000D01*
X150023406Y-104478000D01*
X150023406Y-103610000D01*
X150000605Y-103488821D01*
X149928988Y-103377526D01*
X149819714Y-103302862D01*
X149690000Y-103276594D01*
X147190000Y-103276594D01*
X147068821Y-103299395D01*
X146957526Y-103371012D01*
X146882862Y-103480286D01*
X146856594Y-103610000D01*
X146856594Y-107000000D01*
X146879395Y-107121179D01*
X146951012Y-107232474D01*
X147060286Y-107307138D01*
X147190000Y-107333406D01*
X149690000Y-107333406D01*
X149811179Y-107310605D01*
X149922474Y-107238988D01*
X149997138Y-107129714D01*
X150023406Y-107000000D01*
X150023406Y-106132000D01*
X150991594Y-106132000D01*
X150991594Y-107055000D01*
X151014395Y-107176179D01*
X151076698Y-107273000D01*
X150390000Y-107273000D01*
X150188326Y-107313115D01*
X150017355Y-107427354D01*
X147177355Y-110267355D01*
X147063115Y-110438325D01*
X147039532Y-110556885D01*
X147023000Y-110640000D01*
X147023000Y-112400000D01*
X147063115Y-112601675D01*
X147177355Y-112772645D01*
X148337355Y-113932645D01*
X148508326Y-114046885D01*
X148710000Y-114087000D01*
X149110664Y-114087000D01*
X149221582Y-114253000D01*
X143378418Y-114253000D01*
X143553291Y-113991284D01*
X143639079Y-113560000D01*
X143553291Y-113128716D01*
X143308988Y-112763091D01*
X142943363Y-112518788D01*
X142622680Y-112455000D01*
X142863002Y-112455000D01*
X142863002Y-112246957D01*
X143075180Y-112330296D01*
X143532064Y-112006617D01*
X143800265Y-111605175D01*
X143710527Y-111393000D01*
X142863000Y-111393000D01*
X142863000Y-111413000D01*
X142117000Y-111413000D01*
X142117000Y-111393000D01*
X141269473Y-111393000D01*
X141179735Y-111605175D01*
X141447936Y-112006617D01*
X141904820Y-112330296D01*
X142116998Y-112246957D01*
X142116998Y-112455000D01*
X142357320Y-112455000D01*
X142036637Y-112518788D01*
X141671012Y-112763091D01*
X141426709Y-113128716D01*
X141340921Y-113560000D01*
X141426709Y-113991284D01*
X141601582Y-114253000D01*
X136680000Y-114253000D01*
X136517330Y-114285357D01*
X136175093Y-114143248D01*
X135607397Y-114142752D01*
X135082725Y-114359543D01*
X134680953Y-114760614D01*
X134463248Y-115284907D01*
X134462752Y-115852603D01*
X134679543Y-116377275D01*
X135080614Y-116779047D01*
X135604907Y-116996752D01*
X136172603Y-116997248D01*
X136697275Y-116780457D01*
X137099047Y-116379386D01*
X137316752Y-115855093D01*
X137317231Y-115307000D01*
X141668400Y-115307000D01*
X141426709Y-115668716D01*
X141340921Y-116100000D01*
X141426709Y-116531284D01*
X141671012Y-116896909D01*
X142036637Y-117141212D01*
X142467921Y-117227000D01*
X142512079Y-117227000D01*
X142943363Y-117141212D01*
X143308988Y-116896909D01*
X143553291Y-116531284D01*
X143639079Y-116100000D01*
X143553291Y-115668716D01*
X143311600Y-115307000D01*
X149288400Y-115307000D01*
X149046709Y-115668716D01*
X148960921Y-116100000D01*
X149027914Y-116436795D01*
X147497355Y-117967355D01*
X147383115Y-118138325D01*
X147361235Y-118248325D01*
X147343000Y-118340000D01*
X147343000Y-119370000D01*
X147383115Y-119571675D01*
X147497355Y-119742645D01*
X148527355Y-120772645D01*
X148698325Y-120886885D01*
X148900000Y-120927000D01*
X151670000Y-120927000D01*
X151871675Y-120886885D01*
X152042645Y-120772645D01*
X153005881Y-119809409D01*
X153075000Y-119823406D01*
X155075000Y-119823406D01*
X155196179Y-119800605D01*
X155307474Y-119728988D01*
X155382138Y-119619714D01*
X155408406Y-119490000D01*
X155408406Y-117790000D01*
X155385605Y-117668821D01*
X155313988Y-117557526D01*
X155204714Y-117482862D01*
X155075000Y-117456594D01*
X153075000Y-117456594D01*
X152953821Y-117479395D01*
X152842526Y-117551012D01*
X152767862Y-117660286D01*
X152741594Y-117790000D01*
X152741594Y-118583116D01*
X151451710Y-119873000D01*
X149118290Y-119873000D01*
X148397000Y-119151710D01*
X148397000Y-118558290D01*
X149787957Y-117167333D01*
X150087921Y-117227000D01*
X150132079Y-117227000D01*
X150563363Y-117141212D01*
X150928988Y-116896909D01*
X151109336Y-116627000D01*
X151627710Y-116627000D01*
X150618848Y-117635862D01*
X150563363Y-117598788D01*
X150132079Y-117513000D01*
X150087921Y-117513000D01*
X149656637Y-117598788D01*
X149291012Y-117843091D01*
X149046709Y-118208716D01*
X148960921Y-118640000D01*
X149046709Y-119071284D01*
X149291012Y-119436909D01*
X149656637Y-119681212D01*
X150087921Y-119767000D01*
X150132079Y-119767000D01*
X150563363Y-119681212D01*
X150928988Y-119436909D01*
X151173291Y-119071284D01*
X151259079Y-118640000D01*
X151233564Y-118511726D01*
X152718290Y-117027000D01*
X158781710Y-117027000D01*
X159673000Y-117918290D01*
X159673000Y-119600000D01*
X159713115Y-119801675D01*
X159827355Y-119972645D01*
X160367354Y-120512645D01*
X160538325Y-120626885D01*
X160571785Y-120633540D01*
X160740000Y-120667000D01*
X166970000Y-120667000D01*
X167171675Y-120626885D01*
X167342645Y-120512645D01*
X168071884Y-119783406D01*
X169510000Y-119783406D01*
X169631179Y-119760605D01*
X169742474Y-119688988D01*
X169817138Y-119579714D01*
X169843406Y-119450000D01*
X169843406Y-119277000D01*
X170560000Y-119277000D01*
X170876479Y-119214048D01*
X171144777Y-119034777D01*
X173300777Y-116878778D01*
X173480048Y-116610479D01*
X173495801Y-116531284D01*
X173543000Y-116294000D01*
X173543000Y-108261406D01*
X173566000Y-108261406D01*
X173687179Y-108238605D01*
X173798474Y-108166988D01*
X173873138Y-108057714D01*
X173899406Y-107928000D01*
X173899406Y-105928000D01*
X173876605Y-105806821D01*
X173804988Y-105695526D01*
X173695714Y-105620862D01*
X173566000Y-105594594D01*
X172180149Y-105594594D01*
X170335406Y-103749852D01*
X170335406Y-103236000D01*
X170312605Y-103114821D01*
X170240988Y-103003526D01*
X170131714Y-102928862D01*
X170002000Y-102902594D01*
X169202000Y-102902594D01*
X169080821Y-102925395D01*
X168969526Y-102997012D01*
X168894862Y-103106286D01*
X168868594Y-103236000D01*
X168868594Y-103823662D01*
X168837952Y-103869521D01*
X168775000Y-104186000D01*
X168837952Y-104502479D01*
X168868594Y-104548338D01*
X168868594Y-105136000D01*
X168891395Y-105257179D01*
X168963012Y-105368474D01*
X169072286Y-105443138D01*
X169202000Y-105469406D01*
X169715852Y-105469406D01*
X171532594Y-107286149D01*
X171532594Y-107928000D01*
X171555395Y-108049179D01*
X171627012Y-108160474D01*
X171736286Y-108235138D01*
X171866000Y-108261406D01*
X171889000Y-108261406D01*
X171889000Y-115951445D01*
X170217446Y-117623000D01*
X169843406Y-117623000D01*
X169843406Y-117450000D01*
X169820605Y-117328821D01*
X169748988Y-117217526D01*
X169639714Y-117142862D01*
X169510000Y-117116594D01*
X167810000Y-117116594D01*
X167688821Y-117139395D01*
X167577526Y-117211012D01*
X167502862Y-117320286D01*
X167476594Y-117450000D01*
X167476594Y-118888116D01*
X166751710Y-119613000D01*
X160958291Y-119613000D01*
X160727000Y-119381710D01*
X160727000Y-117700000D01*
X160686885Y-117498326D01*
X160686885Y-117498325D01*
X160572645Y-117327355D01*
X159372645Y-116127355D01*
X159201675Y-116013115D01*
X159000000Y-115973000D01*
X152722290Y-115973000D01*
X153076101Y-115619189D01*
X153239132Y-115782504D01*
X153634832Y-115946813D01*
X154063289Y-115947187D01*
X154459275Y-115783569D01*
X154762504Y-115480868D01*
X154926813Y-115085168D01*
X154927187Y-114656711D01*
X154763569Y-114260725D01*
X154460868Y-113957496D01*
X154065168Y-113793187D01*
X153636711Y-113792813D01*
X153240725Y-113956431D01*
X152937496Y-114259132D01*
X152886706Y-114381448D01*
X152878326Y-114383115D01*
X152707355Y-114497355D01*
X151631710Y-115573000D01*
X151109336Y-115573000D01*
X150931600Y-115307000D01*
X151350000Y-115307000D01*
X151551675Y-115266885D01*
X151722645Y-115152645D01*
X152452645Y-114422645D01*
X152566885Y-114251675D01*
X152607000Y-114050000D01*
X152607000Y-110218290D01*
X152763509Y-110061781D01*
X152741594Y-110170000D01*
X152741594Y-111870000D01*
X152764395Y-111991179D01*
X152836012Y-112102474D01*
X152945286Y-112177138D01*
X153075000Y-112203406D01*
X153548000Y-112203406D01*
X153548000Y-112255000D01*
X153588115Y-112456675D01*
X153702355Y-112627645D01*
X155747355Y-114672645D01*
X155918326Y-114786885D01*
X156120000Y-114827000D01*
X159571710Y-114827000D01*
X161833379Y-117088669D01*
X161787862Y-117155286D01*
X161761594Y-117285000D01*
X161761594Y-119185000D01*
X161784395Y-119306179D01*
X161856012Y-119417474D01*
X161965286Y-119492138D01*
X162095000Y-119518406D01*
X162895000Y-119518406D01*
X163016179Y-119495605D01*
X163127474Y-119423988D01*
X163202138Y-119314714D01*
X163228406Y-119185000D01*
X163228406Y-117285000D01*
X163205605Y-117163821D01*
X163133988Y-117052526D01*
X163024714Y-116977862D01*
X163016262Y-116976150D01*
X162981885Y-116803326D01*
X162867645Y-116632355D01*
X160162645Y-113927355D01*
X159991675Y-113813115D01*
X159790000Y-113773000D01*
X156338290Y-113773000D01*
X154768696Y-112203406D01*
X155075000Y-112203406D01*
X155196179Y-112180605D01*
X155307474Y-112108988D01*
X155382138Y-111999714D01*
X155408406Y-111870000D01*
X155408406Y-110170000D01*
X155385605Y-110048821D01*
X155326521Y-109957002D01*
X155766712Y-109957002D01*
X156241594Y-110431884D01*
X156241594Y-111870000D01*
X156264395Y-111991179D01*
X156336012Y-112102474D01*
X156445286Y-112177138D01*
X156575000Y-112203406D01*
X158575000Y-112203406D01*
X158696179Y-112180605D01*
X158807474Y-112108988D01*
X158882138Y-111999714D01*
X158908406Y-111870000D01*
X158908406Y-111847000D01*
X160996594Y-111847000D01*
X160996594Y-111870000D01*
X161019395Y-111991179D01*
X161091012Y-112102474D01*
X161200286Y-112177138D01*
X161330000Y-112203406D01*
X163330000Y-112203406D01*
X163451179Y-112180605D01*
X163562474Y-112108988D01*
X163637138Y-111999714D01*
X163663406Y-111870000D01*
X163663406Y-110170000D01*
X163640605Y-110048821D01*
X163568988Y-109937526D01*
X163459714Y-109862862D01*
X163330000Y-109836594D01*
X161330000Y-109836594D01*
X161208821Y-109859395D01*
X161097526Y-109931012D01*
X161022862Y-110040286D01*
X160996594Y-110170000D01*
X160996594Y-110193000D01*
X158908406Y-110193000D01*
X158908406Y-110170000D01*
X158885605Y-110048821D01*
X158813988Y-109937526D01*
X158704714Y-109862862D01*
X158575000Y-109836594D01*
X157136884Y-109836594D01*
X156657290Y-109357000D01*
X167361710Y-109357000D01*
X168133000Y-110128291D01*
X168133000Y-113616594D01*
X167810000Y-113616594D01*
X167688821Y-113639395D01*
X167577526Y-113711012D01*
X167502862Y-113820286D01*
X167476594Y-113950000D01*
X167476594Y-114408000D01*
X164178406Y-114408000D01*
X164178406Y-114285000D01*
X164155605Y-114163821D01*
X164083988Y-114052526D01*
X163974714Y-113977862D01*
X163845000Y-113951594D01*
X163045000Y-113951594D01*
X162923821Y-113974395D01*
X162812526Y-114046012D01*
X162737862Y-114155286D01*
X162711594Y-114285000D01*
X162711594Y-114872662D01*
X162680952Y-114918521D01*
X162618000Y-115235000D01*
X162680952Y-115551479D01*
X162711594Y-115597338D01*
X162711594Y-116185000D01*
X162734395Y-116306179D01*
X162806012Y-116417474D01*
X162915286Y-116492138D01*
X163045000Y-116518406D01*
X163845000Y-116518406D01*
X163966179Y-116495605D01*
X164077474Y-116423988D01*
X164152138Y-116314714D01*
X164178406Y-116185000D01*
X164178406Y-116062000D01*
X167497668Y-116062000D01*
X167499395Y-116071179D01*
X167571012Y-116182474D01*
X167680286Y-116257138D01*
X167810000Y-116283406D01*
X169510000Y-116283406D01*
X169631179Y-116260605D01*
X169742474Y-116188988D01*
X169817138Y-116079714D01*
X169843406Y-115950000D01*
X169843406Y-113950000D01*
X169820605Y-113828821D01*
X169748988Y-113717526D01*
X169639714Y-113642862D01*
X169510000Y-113616594D01*
X169187000Y-113616594D01*
X169187000Y-109910000D01*
X169146885Y-109708326D01*
X169105312Y-109646108D01*
X169032646Y-109537355D01*
X167952645Y-108457355D01*
X167781675Y-108343115D01*
X167580000Y-108303000D01*
X155320658Y-108303000D01*
X155401675Y-108286885D01*
X155572645Y-108172645D01*
X156172645Y-107572645D01*
X156286885Y-107401675D01*
X156327000Y-107200000D01*
X156327000Y-102118290D01*
X158618290Y-99827000D01*
X174383000Y-99827000D01*
X174383000Y-100613000D01*
X168430000Y-100613000D01*
X168113521Y-100675952D01*
X167845222Y-100855223D01*
X167117223Y-101583223D01*
X166937952Y-101851521D01*
X166875000Y-102168000D01*
X166875000Y-103514508D01*
X166745223Y-103601222D01*
X164751852Y-105594594D01*
X163738000Y-105594594D01*
X163616821Y-105617395D01*
X163505526Y-105689012D01*
X163430862Y-105798286D01*
X163404594Y-105928000D01*
X163404594Y-106101000D01*
X160658406Y-106101000D01*
X160658406Y-103555000D01*
X160635605Y-103433821D01*
X160563988Y-103322526D01*
X160454714Y-103247862D01*
X160325000Y-103221594D01*
X156825000Y-103221594D01*
X156703821Y-103244395D01*
X156592526Y-103316012D01*
X156517862Y-103425286D01*
X156491594Y-103555000D01*
X156491594Y-107055000D01*
X156514395Y-107176179D01*
X156586012Y-107287474D01*
X156695286Y-107362138D01*
X156825000Y-107388406D01*
X159488851Y-107388406D01*
X159613223Y-107512778D01*
X159881521Y-107692048D01*
X160198000Y-107755000D01*
X163404594Y-107755000D01*
X163404594Y-107928000D01*
X163427395Y-108049179D01*
X163499012Y-108160474D01*
X163608286Y-108235138D01*
X163738000Y-108261406D01*
X165438000Y-108261406D01*
X165559179Y-108238605D01*
X165670474Y-108166988D01*
X165745138Y-108057714D01*
X165771406Y-107928000D01*
X165771406Y-106914148D01*
X167230606Y-105454948D01*
X167302000Y-105469406D01*
X168102000Y-105469406D01*
X168223179Y-105446605D01*
X168334474Y-105374988D01*
X168409138Y-105265714D01*
X168435406Y-105136000D01*
X168435406Y-104548338D01*
X168466048Y-104502479D01*
X168529000Y-104186000D01*
X168529000Y-102510554D01*
X168772555Y-102267000D01*
X174383000Y-102267000D01*
X174383000Y-107850000D01*
X174393006Y-107899410D01*
X174421447Y-107941035D01*
X174463841Y-107968315D01*
X174510000Y-107977000D01*
X175673945Y-107977000D01*
X175535952Y-108183521D01*
X175473000Y-108500000D01*
X175473000Y-110775000D01*
X175535952Y-111091479D01*
X175715223Y-111359777D01*
X176966594Y-112611148D01*
X176966594Y-114650000D01*
X176989395Y-114771179D01*
X177061012Y-114882474D01*
X177170286Y-114957138D01*
X177300000Y-114983406D01*
X180700000Y-114983406D01*
X180821179Y-114960605D01*
X180932474Y-114888988D01*
X181007138Y-114779714D01*
X181033406Y-114650000D01*
X181033406Y-112300000D01*
X181010605Y-112178821D01*
X180938988Y-112067526D01*
X180829714Y-111992862D01*
X180700000Y-111966594D01*
X178661149Y-111966594D01*
X177127000Y-110432446D01*
X177127000Y-108842554D01*
X177192472Y-108777082D01*
X177313289Y-108777187D01*
X177709275Y-108613569D01*
X178012504Y-108310868D01*
X178151138Y-107977000D01*
X185970000Y-107977000D01*
X186019410Y-107966994D01*
X186061035Y-107938553D01*
X186088315Y-107896159D01*
X186096998Y-107850714D01*
X186142126Y-99827000D01*
X188081710Y-99827000D01*
X191057710Y-102803000D01*
X189380000Y-102803000D01*
X189330590Y-102813006D01*
X189288965Y-102841447D01*
X189261685Y-102883841D01*
X189253000Y-102930000D01*
X189253000Y-109173000D01*
X186300000Y-109173000D01*
X186250590Y-109183006D01*
X186208965Y-109211447D01*
X186181685Y-109253841D01*
X186173000Y-109300000D01*
X186173000Y-115883000D01*
X176580000Y-115883000D01*
X176530590Y-115893006D01*
X176488965Y-115921447D01*
X176461685Y-115963841D01*
X176453000Y-116010000D01*
X176453000Y-119927710D01*
X175352674Y-118827384D01*
X175386813Y-118745168D01*
X175387187Y-118316711D01*
X175223569Y-117920725D01*
X174920868Y-117617496D01*
X174525168Y-117453187D01*
X174096711Y-117452813D01*
X173700725Y-117616431D01*
X173397496Y-117919132D01*
X173233187Y-118314832D01*
X173232813Y-118743289D01*
X173396431Y-119139275D01*
X173699132Y-119442504D01*
X174094832Y-119606813D01*
X174523289Y-119607187D01*
X174607218Y-119572508D01*
X176003000Y-120968290D01*
X176003000Y-123296036D01*
X175807583Y-123376781D01*
X175448043Y-123735693D01*
X175259777Y-124189088D01*
X175073219Y-123737583D01*
X174714307Y-123378043D01*
X174245125Y-123183222D01*
X173737103Y-123182779D01*
X173267583Y-123376781D01*
X172908043Y-123735693D01*
X172719777Y-124189088D01*
X172533219Y-123737583D01*
X172174307Y-123378043D01*
X171705125Y-123183222D01*
X171197103Y-123182779D01*
X170727583Y-123376781D01*
X170368043Y-123735693D01*
X170179777Y-124189088D01*
X169993219Y-123737583D01*
X169634307Y-123378043D01*
X169165125Y-123183222D01*
X168657103Y-123182779D01*
X168187583Y-123376781D01*
X167828043Y-123735693D01*
X167639777Y-124189088D01*
X167453219Y-123737583D01*
X167094307Y-123378043D01*
X166625125Y-123183222D01*
X166117103Y-123182779D01*
X165647583Y-123376781D01*
X165288043Y-123735693D01*
X165093222Y-124204875D01*
X165092779Y-124712897D01*
X165286781Y-125182417D01*
X165645693Y-125541957D01*
X166099088Y-125730223D01*
X165647583Y-125916781D01*
X165288043Y-126275693D01*
X165093222Y-126744875D01*
X165092779Y-127252897D01*
X165286781Y-127722417D01*
X165645693Y-128081957D01*
X166114875Y-128276778D01*
X166622897Y-128277221D01*
X167092417Y-128083219D01*
X167451957Y-127724307D01*
X167640223Y-127270912D01*
X167826781Y-127722417D01*
X168185693Y-128081957D01*
X168654875Y-128276778D01*
X169162897Y-128277221D01*
X169632417Y-128083219D01*
X169991957Y-127724307D01*
X170180223Y-127270912D01*
X170366781Y-127722417D01*
X170725693Y-128081957D01*
X171194875Y-128276778D01*
X171702897Y-128277221D01*
X172172417Y-128083219D01*
X172531957Y-127724307D01*
X172561788Y-127652465D01*
X172730107Y-127732392D01*
X173462498Y-127000000D01*
X172730107Y-126267608D01*
X172562068Y-126347403D01*
X172533219Y-126277583D01*
X172174307Y-125918043D01*
X171720912Y-125729777D01*
X172172417Y-125543219D01*
X172531957Y-125184307D01*
X172720223Y-124730912D01*
X172906781Y-125182417D01*
X173265693Y-125541957D01*
X173337535Y-125571788D01*
X173257608Y-125740107D01*
X173990000Y-126472498D01*
X174722392Y-125740107D01*
X174642597Y-125572068D01*
X174712417Y-125543219D01*
X175071957Y-125184307D01*
X175260223Y-124730912D01*
X175446781Y-125182417D01*
X175805693Y-125541957D01*
X176259088Y-125730223D01*
X175807583Y-125916781D01*
X175448043Y-126275693D01*
X175418212Y-126347535D01*
X175249893Y-126267608D01*
X174517502Y-127000000D01*
X175249893Y-127732392D01*
X175417932Y-127652597D01*
X175446781Y-127722417D01*
X175805693Y-128081957D01*
X176274875Y-128276778D01*
X176782897Y-128277221D01*
X177252417Y-128083219D01*
X177611957Y-127724307D01*
X177800223Y-127270912D01*
X177986781Y-127722417D01*
X178345693Y-128081957D01*
X178814875Y-128276778D01*
X179322897Y-128277221D01*
X179792417Y-128083219D01*
X180151957Y-127724307D01*
X180340223Y-127270912D01*
X180526781Y-127722417D01*
X180885693Y-128081957D01*
X181354875Y-128276778D01*
X181862897Y-128277221D01*
X182332417Y-128083219D01*
X182691957Y-127724307D01*
X182721788Y-127652465D01*
X182890107Y-127732392D01*
X183622498Y-127000000D01*
X182890107Y-126267608D01*
X182722068Y-126347403D01*
X182693219Y-126277583D01*
X182334307Y-125918043D01*
X181880912Y-125729777D01*
X182332417Y-125543219D01*
X182691957Y-125184307D01*
X182880223Y-124730912D01*
X183066781Y-125182417D01*
X183425693Y-125541957D01*
X183497535Y-125571788D01*
X183417608Y-125740107D01*
X184150000Y-126472498D01*
X184882392Y-125740107D01*
X184802597Y-125572068D01*
X184872417Y-125543219D01*
X185231957Y-125184307D01*
X185420223Y-124730912D01*
X185606781Y-125182417D01*
X185965693Y-125541957D01*
X186419088Y-125730223D01*
X185967583Y-125916781D01*
X185608043Y-126275693D01*
X185578212Y-126347535D01*
X185409893Y-126267608D01*
X184677502Y-127000000D01*
X185409893Y-127732392D01*
X185577932Y-127652597D01*
X185606781Y-127722417D01*
X185965693Y-128081957D01*
X186434875Y-128276778D01*
X186942897Y-128277221D01*
X187412417Y-128083219D01*
X187669084Y-127827000D01*
X188251181Y-127827000D01*
X188505693Y-128081957D01*
X188974875Y-128276778D01*
X189482897Y-128277221D01*
X189952417Y-128083219D01*
X190209084Y-127827000D01*
X193675000Y-127827000D01*
X193968971Y-127768525D01*
X194024907Y-127791752D01*
X194592603Y-127792248D01*
X195117275Y-127575457D01*
X195519047Y-127174386D01*
X195736752Y-126650093D01*
X195737248Y-126082397D01*
X195520457Y-125557725D01*
X195119386Y-125155953D01*
X194595093Y-124938248D01*
X194052329Y-124937774D01*
X193040949Y-123926394D01*
X193466108Y-123926394D01*
X193595353Y-124173212D01*
X194269015Y-124323516D01*
X194948916Y-124204580D01*
X195024647Y-124173212D01*
X195153892Y-123926394D01*
X194310000Y-123082502D01*
X193466108Y-123926394D01*
X193040949Y-123926394D01*
X191628570Y-122514015D01*
X192541484Y-122514015D01*
X192660420Y-123193916D01*
X192691788Y-123269647D01*
X192938606Y-123398892D01*
X193782498Y-122555000D01*
X194837502Y-122555000D01*
X195681394Y-123398892D01*
X195928212Y-123269647D01*
X196078516Y-122595985D01*
X195959580Y-121916084D01*
X195928212Y-121840353D01*
X195681394Y-121711108D01*
X194837502Y-122555000D01*
X193782498Y-122555000D01*
X192938606Y-121711108D01*
X192691788Y-121840353D01*
X192541484Y-122514015D01*
X191628570Y-122514015D01*
X190298161Y-121183606D01*
X193466108Y-121183606D01*
X194310000Y-122027498D01*
X195153892Y-121183606D01*
X195024647Y-120936788D01*
X194350985Y-120786484D01*
X193671084Y-120905420D01*
X193595353Y-120936788D01*
X193466108Y-121183606D01*
X190298161Y-121183606D01*
X189397000Y-120282446D01*
X189397000Y-115235344D01*
X195191667Y-115159280D01*
X195240941Y-115148627D01*
X195282189Y-115119642D01*
X195308910Y-115076893D01*
X195317000Y-115032291D01*
X195317000Y-102930000D01*
X195306994Y-102880590D01*
X195278553Y-102838965D01*
X195236159Y-102811685D01*
X195190000Y-102803000D01*
X192548290Y-102803000D01*
X189052290Y-99307000D01*
X197328000Y-99307000D01*
X197328000Y-128503000D01*
X184722103Y-128503000D01*
X184764388Y-128494708D01*
X184772480Y-128491356D01*
X184882392Y-128259893D01*
X184150000Y-127527502D01*
X183417608Y-128259893D01*
X183527520Y-128491356D01*
X183585240Y-128503000D01*
X174562103Y-128503000D01*
X174604388Y-128494708D01*
X174612480Y-128491356D01*
X174722392Y-128259893D01*
X173990000Y-127527502D01*
X173257608Y-128259893D01*
X173367520Y-128491356D01*
X173425240Y-128503000D01*
X164867000Y-128503000D01*
X164867000Y-122555000D01*
X164836400Y-122401161D01*
X164749257Y-122270743D01*
X164618839Y-122183600D01*
X164465000Y-122153000D01*
X134387000Y-122153000D01*
X134387000Y-117840000D01*
X141356594Y-117840000D01*
X141356594Y-119440000D01*
X141379395Y-119561179D01*
X141451012Y-119672474D01*
X141560286Y-119747138D01*
X141690000Y-119773406D01*
X143290000Y-119773406D01*
X143411179Y-119750605D01*
X143522474Y-119678988D01*
X143597138Y-119569714D01*
X143623406Y-119440000D01*
X143623406Y-117840000D01*
X143600605Y-117718821D01*
X143528988Y-117607526D01*
X143419714Y-117532862D01*
X143290000Y-117506594D01*
X141690000Y-117506594D01*
X141568821Y-117529395D01*
X141457526Y-117601012D01*
X141382862Y-117710286D01*
X141356594Y-117840000D01*
X134387000Y-117840000D01*
X134387000Y-111861394D01*
X135046108Y-111861394D01*
X135175353Y-112108212D01*
X135849015Y-112258516D01*
X136528916Y-112139580D01*
X136604647Y-112108212D01*
X136733892Y-111861394D01*
X135890000Y-111017502D01*
X135046108Y-111861394D01*
X134387000Y-111861394D01*
X134387000Y-111264977D01*
X134518606Y-111333892D01*
X135362498Y-110490000D01*
X136417502Y-110490000D01*
X137261394Y-111333892D01*
X137508212Y-111204647D01*
X137658516Y-110530985D01*
X137641695Y-110434825D01*
X141179735Y-110434825D01*
X141269473Y-110647000D01*
X142117000Y-110647000D01*
X142117000Y-109793044D01*
X142863000Y-109793044D01*
X142863000Y-110647000D01*
X143710527Y-110647000D01*
X143800265Y-110434825D01*
X143532064Y-110033383D01*
X143075180Y-109709704D01*
X142863000Y-109793044D01*
X142117000Y-109793044D01*
X141904820Y-109709704D01*
X141447936Y-110033383D01*
X141179735Y-110434825D01*
X137641695Y-110434825D01*
X137539580Y-109851084D01*
X137508212Y-109775353D01*
X137261394Y-109646108D01*
X136417502Y-110490000D01*
X135362498Y-110490000D01*
X134518606Y-109646108D01*
X134387000Y-109715023D01*
X134387000Y-109118606D01*
X135046108Y-109118606D01*
X135890000Y-109962498D01*
X136733892Y-109118606D01*
X136604647Y-108871788D01*
X135930985Y-108721484D01*
X135251084Y-108840420D01*
X135175353Y-108871788D01*
X135046108Y-109118606D01*
X134387000Y-109118606D01*
X134387000Y-105692603D01*
X134462752Y-105692603D01*
X134679543Y-106217275D01*
X135080614Y-106619047D01*
X135604907Y-106836752D01*
X136172603Y-106837248D01*
X136697275Y-106620457D01*
X137099047Y-106219386D01*
X137135333Y-106132000D01*
X140036594Y-106132000D01*
X140036594Y-107000000D01*
X140059395Y-107121179D01*
X140131012Y-107232474D01*
X140240286Y-107307138D01*
X140370000Y-107333406D01*
X142870000Y-107333406D01*
X142991179Y-107310605D01*
X143102474Y-107238988D01*
X143177138Y-107129714D01*
X143203406Y-107000000D01*
X143203406Y-103610000D01*
X143180605Y-103488821D01*
X143108988Y-103377526D01*
X142999714Y-103302862D01*
X142870000Y-103276594D01*
X140370000Y-103276594D01*
X140248821Y-103299395D01*
X140137526Y-103371012D01*
X140062862Y-103480286D01*
X140036594Y-103610000D01*
X140036594Y-104478000D01*
X136975950Y-104478000D01*
X136699386Y-104200953D01*
X136175093Y-103983248D01*
X135607397Y-103982752D01*
X135082725Y-104199543D01*
X134680953Y-104600614D01*
X134463248Y-105124907D01*
X134462752Y-105692603D01*
X134387000Y-105692603D01*
X134387000Y-99307000D01*
X157647710Y-99307000D01*
X155427355Y-101527355D01*
X155427355Y-101527355D01*
G37*
X155427355Y-101527355D02*
X155313115Y-101698325D01*
X155313115Y-101698326D01*
X155273000Y-101900000D01*
X155273000Y-106981710D01*
X155147918Y-107106792D01*
X155158406Y-107055000D01*
X155158406Y-103555000D01*
X155135605Y-103433821D01*
X155063988Y-103322526D01*
X154954714Y-103247862D01*
X154825000Y-103221594D01*
X151325000Y-103221594D01*
X151203821Y-103244395D01*
X151092526Y-103316012D01*
X151017862Y-103425286D01*
X150991594Y-103555000D01*
X150991594Y-104478000D01*
X150023406Y-104478000D01*
X150023406Y-103610000D01*
X150000605Y-103488821D01*
X149928988Y-103377526D01*
X149819714Y-103302862D01*
X149690000Y-103276594D01*
X147190000Y-103276594D01*
X147068821Y-103299395D01*
X146957526Y-103371012D01*
X146882862Y-103480286D01*
X146856594Y-103610000D01*
X146856594Y-107000000D01*
X146879395Y-107121179D01*
X146951012Y-107232474D01*
X147060286Y-107307138D01*
X147190000Y-107333406D01*
X149690000Y-107333406D01*
X149811179Y-107310605D01*
X149922474Y-107238988D01*
X149997138Y-107129714D01*
X150023406Y-107000000D01*
X150023406Y-106132000D01*
X150991594Y-106132000D01*
X150991594Y-107055000D01*
X151014395Y-107176179D01*
X151076698Y-107273000D01*
X150390000Y-107273000D01*
X150188326Y-107313115D01*
X150017355Y-107427354D01*
X147177355Y-110267355D01*
X147063115Y-110438325D01*
X147039532Y-110556885D01*
X147023000Y-110640000D01*
X147023000Y-112400000D01*
X147063115Y-112601675D01*
X147177355Y-112772645D01*
X148337355Y-113932645D01*
X148508326Y-114046885D01*
X148710000Y-114087000D01*
X149110664Y-114087000D01*
X149221582Y-114253000D01*
X143378418Y-114253000D01*
X143553291Y-113991284D01*
X143639079Y-113560000D01*
X143553291Y-113128716D01*
X143308988Y-112763091D01*
X142943363Y-112518788D01*
X142622680Y-112455000D01*
X142863002Y-112455000D01*
X142863002Y-112246957D01*
X143075180Y-112330296D01*
X143532064Y-112006617D01*
X143800265Y-111605175D01*
X143710527Y-111393000D01*
X142863000Y-111393000D01*
X142863000Y-111413000D01*
X142117000Y-111413000D01*
X142117000Y-111393000D01*
X141269473Y-111393000D01*
X141179735Y-111605175D01*
X141447936Y-112006617D01*
X141904820Y-112330296D01*
X142116998Y-112246957D01*
X142116998Y-112455000D01*
X142357320Y-112455000D01*
X142036637Y-112518788D01*
X141671012Y-112763091D01*
X141426709Y-113128716D01*
X141340921Y-113560000D01*
X141426709Y-113991284D01*
X141601582Y-114253000D01*
X136680000Y-114253000D01*
X136517330Y-114285357D01*
X136175093Y-114143248D01*
X135607397Y-114142752D01*
X135082725Y-114359543D01*
X134680953Y-114760614D01*
X134463248Y-115284907D01*
X134462752Y-115852603D01*
X134679543Y-116377275D01*
X135080614Y-116779047D01*
X135604907Y-116996752D01*
X136172603Y-116997248D01*
X136697275Y-116780457D01*
X137099047Y-116379386D01*
X137316752Y-115855093D01*
X137317231Y-115307000D01*
X141668400Y-115307000D01*
X141426709Y-115668716D01*
X141340921Y-116100000D01*
X141426709Y-116531284D01*
X141671012Y-116896909D01*
X142036637Y-117141212D01*
X142467921Y-117227000D01*
X142512079Y-117227000D01*
X142943363Y-117141212D01*
X143308988Y-116896909D01*
X143553291Y-116531284D01*
X143639079Y-116100000D01*
X143553291Y-115668716D01*
X143311600Y-115307000D01*
X149288400Y-115307000D01*
X149046709Y-115668716D01*
X148960921Y-116100000D01*
X149027914Y-116436795D01*
X147497355Y-117967355D01*
X147383115Y-118138325D01*
X147361235Y-118248325D01*
X147343000Y-118340000D01*
X147343000Y-119370000D01*
X147383115Y-119571675D01*
X147497355Y-119742645D01*
X148527355Y-120772645D01*
X148698325Y-120886885D01*
X148900000Y-120927000D01*
X151670000Y-120927000D01*
X151871675Y-120886885D01*
X152042645Y-120772645D01*
X153005881Y-119809409D01*
X153075000Y-119823406D01*
X155075000Y-119823406D01*
X155196179Y-119800605D01*
X155307474Y-119728988D01*
X155382138Y-119619714D01*
X155408406Y-119490000D01*
X155408406Y-117790000D01*
X155385605Y-117668821D01*
X155313988Y-117557526D01*
X155204714Y-117482862D01*
X155075000Y-117456594D01*
X153075000Y-117456594D01*
X152953821Y-117479395D01*
X152842526Y-117551012D01*
X152767862Y-117660286D01*
X152741594Y-117790000D01*
X152741594Y-118583116D01*
X151451710Y-119873000D01*
X149118290Y-119873000D01*
X148397000Y-119151710D01*
X148397000Y-118558290D01*
X149787957Y-117167333D01*
X150087921Y-117227000D01*
X150132079Y-117227000D01*
X150563363Y-117141212D01*
X150928988Y-116896909D01*
X151109336Y-116627000D01*
X151627710Y-116627000D01*
X150618848Y-117635862D01*
X150563363Y-117598788D01*
X150132079Y-117513000D01*
X150087921Y-117513000D01*
X149656637Y-117598788D01*
X149291012Y-117843091D01*
X149046709Y-118208716D01*
X148960921Y-118640000D01*
X149046709Y-119071284D01*
X149291012Y-119436909D01*
X149656637Y-119681212D01*
X150087921Y-119767000D01*
X150132079Y-119767000D01*
X150563363Y-119681212D01*
X150928988Y-119436909D01*
X151173291Y-119071284D01*
X151259079Y-118640000D01*
X151233564Y-118511726D01*
X152718290Y-117027000D01*
X158781710Y-117027000D01*
X159673000Y-117918290D01*
X159673000Y-119600000D01*
X159713115Y-119801675D01*
X159827355Y-119972645D01*
X160367354Y-120512645D01*
X160538325Y-120626885D01*
X160571785Y-120633540D01*
X160740000Y-120667000D01*
X166970000Y-120667000D01*
X167171675Y-120626885D01*
X167342645Y-120512645D01*
X168071884Y-119783406D01*
X169510000Y-119783406D01*
X169631179Y-119760605D01*
X169742474Y-119688988D01*
X169817138Y-119579714D01*
X169843406Y-119450000D01*
X169843406Y-119277000D01*
X170560000Y-119277000D01*
X170876479Y-119214048D01*
X171144777Y-119034777D01*
X173300777Y-116878778D01*
X173480048Y-116610479D01*
X173495801Y-116531284D01*
X173543000Y-116294000D01*
X173543000Y-108261406D01*
X173566000Y-108261406D01*
X173687179Y-108238605D01*
X173798474Y-108166988D01*
X173873138Y-108057714D01*
X173899406Y-107928000D01*
X173899406Y-105928000D01*
X173876605Y-105806821D01*
X173804988Y-105695526D01*
X173695714Y-105620862D01*
X173566000Y-105594594D01*
X172180149Y-105594594D01*
X170335406Y-103749852D01*
X170335406Y-103236000D01*
X170312605Y-103114821D01*
X170240988Y-103003526D01*
X170131714Y-102928862D01*
X170002000Y-102902594D01*
X169202000Y-102902594D01*
X169080821Y-102925395D01*
X168969526Y-102997012D01*
X168894862Y-103106286D01*
X168868594Y-103236000D01*
X168868594Y-103823662D01*
X168837952Y-103869521D01*
X168775000Y-104186000D01*
X168837952Y-104502479D01*
X168868594Y-104548338D01*
X168868594Y-105136000D01*
X168891395Y-105257179D01*
X168963012Y-105368474D01*
X169072286Y-105443138D01*
X169202000Y-105469406D01*
X169715852Y-105469406D01*
X171532594Y-107286149D01*
X171532594Y-107928000D01*
X171555395Y-108049179D01*
X171627012Y-108160474D01*
X171736286Y-108235138D01*
X171866000Y-108261406D01*
X171889000Y-108261406D01*
X171889000Y-115951445D01*
X170217446Y-117623000D01*
X169843406Y-117623000D01*
X169843406Y-117450000D01*
X169820605Y-117328821D01*
X169748988Y-117217526D01*
X169639714Y-117142862D01*
X169510000Y-117116594D01*
X167810000Y-117116594D01*
X167688821Y-117139395D01*
X167577526Y-117211012D01*
X167502862Y-117320286D01*
X167476594Y-117450000D01*
X167476594Y-118888116D01*
X166751710Y-119613000D01*
X160958291Y-119613000D01*
X160727000Y-119381710D01*
X160727000Y-117700000D01*
X160686885Y-117498326D01*
X160686885Y-117498325D01*
X160572645Y-117327355D01*
X159372645Y-116127355D01*
X159201675Y-116013115D01*
X159000000Y-115973000D01*
X152722290Y-115973000D01*
X153076101Y-115619189D01*
X153239132Y-115782504D01*
X153634832Y-115946813D01*
X154063289Y-115947187D01*
X154459275Y-115783569D01*
X154762504Y-115480868D01*
X154926813Y-115085168D01*
X154927187Y-114656711D01*
X154763569Y-114260725D01*
X154460868Y-113957496D01*
X154065168Y-113793187D01*
X153636711Y-113792813D01*
X153240725Y-113956431D01*
X152937496Y-114259132D01*
X152886706Y-114381448D01*
X152878326Y-114383115D01*
X152707355Y-114497355D01*
X151631710Y-115573000D01*
X151109336Y-115573000D01*
X150931600Y-115307000D01*
X151350000Y-115307000D01*
X151551675Y-115266885D01*
X151722645Y-115152645D01*
X152452645Y-114422645D01*
X152566885Y-114251675D01*
X152607000Y-114050000D01*
X152607000Y-110218290D01*
X152763509Y-110061781D01*
X152741594Y-110170000D01*
X152741594Y-111870000D01*
X152764395Y-111991179D01*
X152836012Y-112102474D01*
X152945286Y-112177138D01*
X153075000Y-112203406D01*
X153548000Y-112203406D01*
X153548000Y-112255000D01*
X153588115Y-112456675D01*
X153702355Y-112627645D01*
X155747355Y-114672645D01*
X155918326Y-114786885D01*
X156120000Y-114827000D01*
X159571710Y-114827000D01*
X161833379Y-117088669D01*
X161787862Y-117155286D01*
X161761594Y-117285000D01*
X161761594Y-119185000D01*
X161784395Y-119306179D01*
X161856012Y-119417474D01*
X161965286Y-119492138D01*
X162095000Y-119518406D01*
X162895000Y-119518406D01*
X163016179Y-119495605D01*
X163127474Y-119423988D01*
X163202138Y-119314714D01*
X163228406Y-119185000D01*
X163228406Y-117285000D01*
X163205605Y-117163821D01*
X163133988Y-117052526D01*
X163024714Y-116977862D01*
X163016262Y-116976150D01*
X162981885Y-116803326D01*
X162867645Y-116632355D01*
X160162645Y-113927355D01*
X159991675Y-113813115D01*
X159790000Y-113773000D01*
X156338290Y-113773000D01*
X154768696Y-112203406D01*
X155075000Y-112203406D01*
X155196179Y-112180605D01*
X155307474Y-112108988D01*
X155382138Y-111999714D01*
X155408406Y-111870000D01*
X155408406Y-110170000D01*
X155385605Y-110048821D01*
X155326521Y-109957002D01*
X155766712Y-109957002D01*
X156241594Y-110431884D01*
X156241594Y-111870000D01*
X156264395Y-111991179D01*
X156336012Y-112102474D01*
X156445286Y-112177138D01*
X156575000Y-112203406D01*
X158575000Y-112203406D01*
X158696179Y-112180605D01*
X158807474Y-112108988D01*
X158882138Y-111999714D01*
X158908406Y-111870000D01*
X158908406Y-111847000D01*
X160996594Y-111847000D01*
X160996594Y-111870000D01*
X161019395Y-111991179D01*
X161091012Y-112102474D01*
X161200286Y-112177138D01*
X161330000Y-112203406D01*
X163330000Y-112203406D01*
X163451179Y-112180605D01*
X163562474Y-112108988D01*
X163637138Y-111999714D01*
X163663406Y-111870000D01*
X163663406Y-110170000D01*
X163640605Y-110048821D01*
X163568988Y-109937526D01*
X163459714Y-109862862D01*
X163330000Y-109836594D01*
X161330000Y-109836594D01*
X161208821Y-109859395D01*
X161097526Y-109931012D01*
X161022862Y-110040286D01*
X160996594Y-110170000D01*
X160996594Y-110193000D01*
X158908406Y-110193000D01*
X158908406Y-110170000D01*
X158885605Y-110048821D01*
X158813988Y-109937526D01*
X158704714Y-109862862D01*
X158575000Y-109836594D01*
X157136884Y-109836594D01*
X156657290Y-109357000D01*
X167361710Y-109357000D01*
X168133000Y-110128291D01*
X168133000Y-113616594D01*
X167810000Y-113616594D01*
X167688821Y-113639395D01*
X167577526Y-113711012D01*
X167502862Y-113820286D01*
X167476594Y-113950000D01*
X167476594Y-114408000D01*
X164178406Y-114408000D01*
X164178406Y-114285000D01*
X164155605Y-114163821D01*
X164083988Y-114052526D01*
X163974714Y-113977862D01*
X163845000Y-113951594D01*
X163045000Y-113951594D01*
X162923821Y-113974395D01*
X162812526Y-114046012D01*
X162737862Y-114155286D01*
X162711594Y-114285000D01*
X162711594Y-114872662D01*
X162680952Y-114918521D01*
X162618000Y-115235000D01*
X162680952Y-115551479D01*
X162711594Y-115597338D01*
X162711594Y-116185000D01*
X162734395Y-116306179D01*
X162806012Y-116417474D01*
X162915286Y-116492138D01*
X163045000Y-116518406D01*
X163845000Y-116518406D01*
X163966179Y-116495605D01*
X164077474Y-116423988D01*
X164152138Y-116314714D01*
X164178406Y-116185000D01*
X164178406Y-116062000D01*
X167497668Y-116062000D01*
X167499395Y-116071179D01*
X167571012Y-116182474D01*
X167680286Y-116257138D01*
X167810000Y-116283406D01*
X169510000Y-116283406D01*
X169631179Y-116260605D01*
X169742474Y-116188988D01*
X169817138Y-116079714D01*
X169843406Y-115950000D01*
X169843406Y-113950000D01*
X169820605Y-113828821D01*
X169748988Y-113717526D01*
X169639714Y-113642862D01*
X169510000Y-113616594D01*
X169187000Y-113616594D01*
X169187000Y-109910000D01*
X169146885Y-109708326D01*
X169105312Y-109646108D01*
X169032646Y-109537355D01*
X167952645Y-108457355D01*
X167781675Y-108343115D01*
X167580000Y-108303000D01*
X155320658Y-108303000D01*
X155401675Y-108286885D01*
X155572645Y-108172645D01*
X156172645Y-107572645D01*
X156286885Y-107401675D01*
X156327000Y-107200000D01*
X156327000Y-102118290D01*
X158618290Y-99827000D01*
X174383000Y-99827000D01*
X174383000Y-100613000D01*
X168430000Y-100613000D01*
X168113521Y-100675952D01*
X167845222Y-100855223D01*
X167117223Y-101583223D01*
X166937952Y-101851521D01*
X166875000Y-102168000D01*
X166875000Y-103514508D01*
X166745223Y-103601222D01*
X164751852Y-105594594D01*
X163738000Y-105594594D01*
X163616821Y-105617395D01*
X163505526Y-105689012D01*
X163430862Y-105798286D01*
X163404594Y-105928000D01*
X163404594Y-106101000D01*
X160658406Y-106101000D01*
X160658406Y-103555000D01*
X160635605Y-103433821D01*
X160563988Y-103322526D01*
X160454714Y-103247862D01*
X160325000Y-103221594D01*
X156825000Y-103221594D01*
X156703821Y-103244395D01*
X156592526Y-103316012D01*
X156517862Y-103425286D01*
X156491594Y-103555000D01*
X156491594Y-107055000D01*
X156514395Y-107176179D01*
X156586012Y-107287474D01*
X156695286Y-107362138D01*
X156825000Y-107388406D01*
X159488851Y-107388406D01*
X159613223Y-107512778D01*
X159881521Y-107692048D01*
X160198000Y-107755000D01*
X163404594Y-107755000D01*
X163404594Y-107928000D01*
X163427395Y-108049179D01*
X163499012Y-108160474D01*
X163608286Y-108235138D01*
X163738000Y-108261406D01*
X165438000Y-108261406D01*
X165559179Y-108238605D01*
X165670474Y-108166988D01*
X165745138Y-108057714D01*
X165771406Y-107928000D01*
X165771406Y-106914148D01*
X167230606Y-105454948D01*
X167302000Y-105469406D01*
X168102000Y-105469406D01*
X168223179Y-105446605D01*
X168334474Y-105374988D01*
X168409138Y-105265714D01*
X168435406Y-105136000D01*
X168435406Y-104548338D01*
X168466048Y-104502479D01*
X168529000Y-104186000D01*
X168529000Y-102510554D01*
X168772555Y-102267000D01*
X174383000Y-102267000D01*
X174383000Y-107850000D01*
X174393006Y-107899410D01*
X174421447Y-107941035D01*
X174463841Y-107968315D01*
X174510000Y-107977000D01*
X175673945Y-107977000D01*
X175535952Y-108183521D01*
X175473000Y-108500000D01*
X175473000Y-110775000D01*
X175535952Y-111091479D01*
X175715223Y-111359777D01*
X176966594Y-112611148D01*
X176966594Y-114650000D01*
X176989395Y-114771179D01*
X177061012Y-114882474D01*
X177170286Y-114957138D01*
X177300000Y-114983406D01*
X180700000Y-114983406D01*
X180821179Y-114960605D01*
X180932474Y-114888988D01*
X181007138Y-114779714D01*
X181033406Y-114650000D01*
X181033406Y-112300000D01*
X181010605Y-112178821D01*
X180938988Y-112067526D01*
X180829714Y-111992862D01*
X180700000Y-111966594D01*
X178661149Y-111966594D01*
X177127000Y-110432446D01*
X177127000Y-108842554D01*
X177192472Y-108777082D01*
X177313289Y-108777187D01*
X177709275Y-108613569D01*
X178012504Y-108310868D01*
X178151138Y-107977000D01*
X185970000Y-107977000D01*
X186019410Y-107966994D01*
X186061035Y-107938553D01*
X186088315Y-107896159D01*
X186096998Y-107850714D01*
X186142126Y-99827000D01*
X188081710Y-99827000D01*
X191057710Y-102803000D01*
X189380000Y-102803000D01*
X189330590Y-102813006D01*
X189288965Y-102841447D01*
X189261685Y-102883841D01*
X189253000Y-102930000D01*
X189253000Y-109173000D01*
X186300000Y-109173000D01*
X186250590Y-109183006D01*
X186208965Y-109211447D01*
X186181685Y-109253841D01*
X186173000Y-109300000D01*
X186173000Y-115883000D01*
X176580000Y-115883000D01*
X176530590Y-115893006D01*
X176488965Y-115921447D01*
X176461685Y-115963841D01*
X176453000Y-116010000D01*
X176453000Y-119927710D01*
X175352674Y-118827384D01*
X175386813Y-118745168D01*
X175387187Y-118316711D01*
X175223569Y-117920725D01*
X174920868Y-117617496D01*
X174525168Y-117453187D01*
X174096711Y-117452813D01*
X173700725Y-117616431D01*
X173397496Y-117919132D01*
X173233187Y-118314832D01*
X173232813Y-118743289D01*
X173396431Y-119139275D01*
X173699132Y-119442504D01*
X174094832Y-119606813D01*
X174523289Y-119607187D01*
X174607218Y-119572508D01*
X176003000Y-120968290D01*
X176003000Y-123296036D01*
X175807583Y-123376781D01*
X175448043Y-123735693D01*
X175259777Y-124189088D01*
X175073219Y-123737583D01*
X174714307Y-123378043D01*
X174245125Y-123183222D01*
X173737103Y-123182779D01*
X173267583Y-123376781D01*
X172908043Y-123735693D01*
X172719777Y-124189088D01*
X172533219Y-123737583D01*
X172174307Y-123378043D01*
X171705125Y-123183222D01*
X171197103Y-123182779D01*
X170727583Y-123376781D01*
X170368043Y-123735693D01*
X170179777Y-124189088D01*
X169993219Y-123737583D01*
X169634307Y-123378043D01*
X169165125Y-123183222D01*
X168657103Y-123182779D01*
X168187583Y-123376781D01*
X167828043Y-123735693D01*
X167639777Y-124189088D01*
X167453219Y-123737583D01*
X167094307Y-123378043D01*
X166625125Y-123183222D01*
X166117103Y-123182779D01*
X165647583Y-123376781D01*
X165288043Y-123735693D01*
X165093222Y-124204875D01*
X165092779Y-124712897D01*
X165286781Y-125182417D01*
X165645693Y-125541957D01*
X166099088Y-125730223D01*
X165647583Y-125916781D01*
X165288043Y-126275693D01*
X165093222Y-126744875D01*
X165092779Y-127252897D01*
X165286781Y-127722417D01*
X165645693Y-128081957D01*
X166114875Y-128276778D01*
X166622897Y-128277221D01*
X167092417Y-128083219D01*
X167451957Y-127724307D01*
X167640223Y-127270912D01*
X167826781Y-127722417D01*
X168185693Y-128081957D01*
X168654875Y-128276778D01*
X169162897Y-128277221D01*
X169632417Y-128083219D01*
X169991957Y-127724307D01*
X170180223Y-127270912D01*
X170366781Y-127722417D01*
X170725693Y-128081957D01*
X171194875Y-128276778D01*
X171702897Y-128277221D01*
X172172417Y-128083219D01*
X172531957Y-127724307D01*
X172561788Y-127652465D01*
X172730107Y-127732392D01*
X173462498Y-127000000D01*
X172730107Y-126267608D01*
X172562068Y-126347403D01*
X172533219Y-126277583D01*
X172174307Y-125918043D01*
X171720912Y-125729777D01*
X172172417Y-125543219D01*
X172531957Y-125184307D01*
X172720223Y-124730912D01*
X172906781Y-125182417D01*
X173265693Y-125541957D01*
X173337535Y-125571788D01*
X173257608Y-125740107D01*
X173990000Y-126472498D01*
X174722392Y-125740107D01*
X174642597Y-125572068D01*
X174712417Y-125543219D01*
X175071957Y-125184307D01*
X175260223Y-124730912D01*
X175446781Y-125182417D01*
X175805693Y-125541957D01*
X176259088Y-125730223D01*
X175807583Y-125916781D01*
X175448043Y-126275693D01*
X175418212Y-126347535D01*
X175249893Y-126267608D01*
X174517502Y-127000000D01*
X175249893Y-127732392D01*
X175417932Y-127652597D01*
X175446781Y-127722417D01*
X175805693Y-128081957D01*
X176274875Y-128276778D01*
X176782897Y-128277221D01*
X177252417Y-128083219D01*
X177611957Y-127724307D01*
X177800223Y-127270912D01*
X177986781Y-127722417D01*
X178345693Y-128081957D01*
X178814875Y-128276778D01*
X179322897Y-128277221D01*
X179792417Y-128083219D01*
X180151957Y-127724307D01*
X180340223Y-127270912D01*
X180526781Y-127722417D01*
X180885693Y-128081957D01*
X181354875Y-128276778D01*
X181862897Y-128277221D01*
X182332417Y-128083219D01*
X182691957Y-127724307D01*
X182721788Y-127652465D01*
X182890107Y-127732392D01*
X183622498Y-127000000D01*
X182890107Y-126267608D01*
X182722068Y-126347403D01*
X182693219Y-126277583D01*
X182334307Y-125918043D01*
X181880912Y-125729777D01*
X182332417Y-125543219D01*
X182691957Y-125184307D01*
X182880223Y-124730912D01*
X183066781Y-125182417D01*
X183425693Y-125541957D01*
X183497535Y-125571788D01*
X183417608Y-125740107D01*
X184150000Y-126472498D01*
X184882392Y-125740107D01*
X184802597Y-125572068D01*
X184872417Y-125543219D01*
X185231957Y-125184307D01*
X185420223Y-124730912D01*
X185606781Y-125182417D01*
X185965693Y-125541957D01*
X186419088Y-125730223D01*
X185967583Y-125916781D01*
X185608043Y-126275693D01*
X185578212Y-126347535D01*
X185409893Y-126267608D01*
X184677502Y-127000000D01*
X185409893Y-127732392D01*
X185577932Y-127652597D01*
X185606781Y-127722417D01*
X185965693Y-128081957D01*
X186434875Y-128276778D01*
X186942897Y-128277221D01*
X187412417Y-128083219D01*
X187669084Y-127827000D01*
X188251181Y-127827000D01*
X188505693Y-128081957D01*
X188974875Y-128276778D01*
X189482897Y-128277221D01*
X189952417Y-128083219D01*
X190209084Y-127827000D01*
X193675000Y-127827000D01*
X193968971Y-127768525D01*
X194024907Y-127791752D01*
X194592603Y-127792248D01*
X195117275Y-127575457D01*
X195519047Y-127174386D01*
X195736752Y-126650093D01*
X195737248Y-126082397D01*
X195520457Y-125557725D01*
X195119386Y-125155953D01*
X194595093Y-124938248D01*
X194052329Y-124937774D01*
X193040949Y-123926394D01*
X193466108Y-123926394D01*
X193595353Y-124173212D01*
X194269015Y-124323516D01*
X194948916Y-124204580D01*
X195024647Y-124173212D01*
X195153892Y-123926394D01*
X194310000Y-123082502D01*
X193466108Y-123926394D01*
X193040949Y-123926394D01*
X191628570Y-122514015D01*
X192541484Y-122514015D01*
X192660420Y-123193916D01*
X192691788Y-123269647D01*
X192938606Y-123398892D01*
X193782498Y-122555000D01*
X194837502Y-122555000D01*
X195681394Y-123398892D01*
X195928212Y-123269647D01*
X196078516Y-122595985D01*
X195959580Y-121916084D01*
X195928212Y-121840353D01*
X195681394Y-121711108D01*
X194837502Y-122555000D01*
X193782498Y-122555000D01*
X192938606Y-121711108D01*
X192691788Y-121840353D01*
X192541484Y-122514015D01*
X191628570Y-122514015D01*
X190298161Y-121183606D01*
X193466108Y-121183606D01*
X194310000Y-122027498D01*
X195153892Y-121183606D01*
X195024647Y-120936788D01*
X194350985Y-120786484D01*
X193671084Y-120905420D01*
X193595353Y-120936788D01*
X193466108Y-121183606D01*
X190298161Y-121183606D01*
X189397000Y-120282446D01*
X189397000Y-115235344D01*
X195191667Y-115159280D01*
X195240941Y-115148627D01*
X195282189Y-115119642D01*
X195308910Y-115076893D01*
X195317000Y-115032291D01*
X195317000Y-102930000D01*
X195306994Y-102880590D01*
X195278553Y-102838965D01*
X195236159Y-102811685D01*
X195190000Y-102803000D01*
X192548290Y-102803000D01*
X189052290Y-99307000D01*
X197328000Y-99307000D01*
X197328000Y-128503000D01*
X184722103Y-128503000D01*
X184764388Y-128494708D01*
X184772480Y-128491356D01*
X184882392Y-128259893D01*
X184150000Y-127527502D01*
X183417608Y-128259893D01*
X183527520Y-128491356D01*
X183585240Y-128503000D01*
X174562103Y-128503000D01*
X174604388Y-128494708D01*
X174612480Y-128491356D01*
X174722392Y-128259893D01*
X173990000Y-127527502D01*
X173257608Y-128259893D01*
X173367520Y-128491356D01*
X173425240Y-128503000D01*
X164867000Y-128503000D01*
X164867000Y-122555000D01*
X164836400Y-122401161D01*
X164749257Y-122270743D01*
X164618839Y-122183600D01*
X164465000Y-122153000D01*
X134387000Y-122153000D01*
X134387000Y-117840000D01*
X141356594Y-117840000D01*
X141356594Y-119440000D01*
X141379395Y-119561179D01*
X141451012Y-119672474D01*
X141560286Y-119747138D01*
X141690000Y-119773406D01*
X143290000Y-119773406D01*
X143411179Y-119750605D01*
X143522474Y-119678988D01*
X143597138Y-119569714D01*
X143623406Y-119440000D01*
X143623406Y-117840000D01*
X143600605Y-117718821D01*
X143528988Y-117607526D01*
X143419714Y-117532862D01*
X143290000Y-117506594D01*
X141690000Y-117506594D01*
X141568821Y-117529395D01*
X141457526Y-117601012D01*
X141382862Y-117710286D01*
X141356594Y-117840000D01*
X134387000Y-117840000D01*
X134387000Y-111861394D01*
X135046108Y-111861394D01*
X135175353Y-112108212D01*
X135849015Y-112258516D01*
X136528916Y-112139580D01*
X136604647Y-112108212D01*
X136733892Y-111861394D01*
X135890000Y-111017502D01*
X135046108Y-111861394D01*
X134387000Y-111861394D01*
X134387000Y-111264977D01*
X134518606Y-111333892D01*
X135362498Y-110490000D01*
X136417502Y-110490000D01*
X137261394Y-111333892D01*
X137508212Y-111204647D01*
X137658516Y-110530985D01*
X137641695Y-110434825D01*
X141179735Y-110434825D01*
X141269473Y-110647000D01*
X142117000Y-110647000D01*
X142117000Y-109793044D01*
X142863000Y-109793044D01*
X142863000Y-110647000D01*
X143710527Y-110647000D01*
X143800265Y-110434825D01*
X143532064Y-110033383D01*
X143075180Y-109709704D01*
X142863000Y-109793044D01*
X142117000Y-109793044D01*
X141904820Y-109709704D01*
X141447936Y-110033383D01*
X141179735Y-110434825D01*
X137641695Y-110434825D01*
X137539580Y-109851084D01*
X137508212Y-109775353D01*
X137261394Y-109646108D01*
X136417502Y-110490000D01*
X135362498Y-110490000D01*
X134518606Y-109646108D01*
X134387000Y-109715023D01*
X134387000Y-109118606D01*
X135046108Y-109118606D01*
X135890000Y-109962498D01*
X136733892Y-109118606D01*
X136604647Y-108871788D01*
X135930985Y-108721484D01*
X135251084Y-108840420D01*
X135175353Y-108871788D01*
X135046108Y-109118606D01*
X134387000Y-109118606D01*
X134387000Y-105692603D01*
X134462752Y-105692603D01*
X134679543Y-106217275D01*
X135080614Y-106619047D01*
X135604907Y-106836752D01*
X136172603Y-106837248D01*
X136697275Y-106620457D01*
X137099047Y-106219386D01*
X137135333Y-106132000D01*
X140036594Y-106132000D01*
X140036594Y-107000000D01*
X140059395Y-107121179D01*
X140131012Y-107232474D01*
X140240286Y-107307138D01*
X140370000Y-107333406D01*
X142870000Y-107333406D01*
X142991179Y-107310605D01*
X143102474Y-107238988D01*
X143177138Y-107129714D01*
X143203406Y-107000000D01*
X143203406Y-103610000D01*
X143180605Y-103488821D01*
X143108988Y-103377526D01*
X142999714Y-103302862D01*
X142870000Y-103276594D01*
X140370000Y-103276594D01*
X140248821Y-103299395D01*
X140137526Y-103371012D01*
X140062862Y-103480286D01*
X140036594Y-103610000D01*
X140036594Y-104478000D01*
X136975950Y-104478000D01*
X136699386Y-104200953D01*
X136175093Y-103983248D01*
X135607397Y-103982752D01*
X135082725Y-104199543D01*
X134680953Y-104600614D01*
X134463248Y-105124907D01*
X134462752Y-105692603D01*
X134387000Y-105692603D01*
X134387000Y-99307000D01*
X157647710Y-99307000D01*
X155427355Y-101527355D01*
M02*
